<svg xmlns="http://www.w3.org/2000/svg" width="60" height="60" viewBox="0 0 60 60">
  <g id="icon" transform="translate(-446 -289)">
    <circle id="타원_786" data-name="타원 786" cx="30" cy="30" r="30" transform="translate(446 289)" fill="#f1f2f9"/>
    <path id="noun-lock-5282425" d="M122.171,39.815V38.044c0-3.809-.92-8.873-8.873-8.873s-8.873,5.064-8.873,8.873v1.772c-3.965.487-5.258,2.493-5.258,7.429v2.629c0,5.792,1.766,7.558,7.559,7.558h13.145c5.792,0,7.559-1.766,7.559-7.558V47.245c0-4.937-1.293-6.943-5.258-7.429ZM106.4,38.044c0-4.142,1.173-6.9,6.9-6.9s6.9,2.758,6.9,6.9v1.65c-.111,0-.214-.007-.329-.007H106.726c-.114,0-.217.005-.329.007Zm19.06,11.83c0,4.7-.887,5.587-5.587,5.587H106.726c-4.7,0-5.587-.888-5.587-5.587V47.245c0-4.7.887-5.587,5.587-5.587h13.145c4.7,0,5.587.888,5.587,5.587ZM109.25,48.06a1.317,1.317,0,0,1,.105.5,1.3,1.3,0,0,1-1.314,1.315,1.315,1.315,0,0,1-.5-.105,1.261,1.261,0,0,1-.815-1.209,1.316,1.316,0,0,1,.105-.5,1.188,1.188,0,0,1,.71-.71,1.318,1.318,0,0,1,1.433.277,1.516,1.516,0,0,1,.276.433Zm5.258,0a1.314,1.314,0,0,1,.105.5,1.359,1.359,0,0,1-.381.933l-.2.157a1,1,0,0,1-.236.119.814.814,0,0,1-.25.079,1.672,1.672,0,0,1-.249.026,1.383,1.383,0,0,1-.933-.381,1.353,1.353,0,0,1-.381-.933,1.1,1.1,0,0,1,.105-.5,1.518,1.518,0,0,1,.276-.433,1.31,1.31,0,0,1,1.182-.355.8.8,0,0,1,.25.078.987.987,0,0,1,.236.119,2.027,2.027,0,0,1,.2.158A1.507,1.507,0,0,1,114.508,48.06Zm4.982-.433a1.359,1.359,0,0,1,.381.933,1.315,1.315,0,0,1-.105.5,1.364,1.364,0,0,1-.276.434,1.387,1.387,0,0,1-.933.381,1.356,1.356,0,0,1-.933-.381,1.521,1.521,0,0,1-.276-.434,1.315,1.315,0,0,1-.105-.5,1.377,1.377,0,0,1,.381-.933l.2-.158a1.011,1.011,0,0,1,.237-.119.83.83,0,0,1,.236-.078,1.338,1.338,0,0,1,1.2.355Z" transform="translate(362.485 275.481)" fill="#262a41"/>
  </g>
</svg>
