<svg xmlns="http://www.w3.org/2000/svg" width="40" height="40" viewBox="0 0 40 40">
  <g id="icon" transform="translate(-1230 -310)">
    <rect id="area" width="40" height="40" transform="translate(1230 310)" fill="none"/>
    <g id="icon-2" data-name="icon" transform="translate(1187.014 51.813)">
      <path id="패스_17009" data-name="패스 17009" d="M56.409,292.21l-6.19,2.737-4.98,10.98,8.937-3.958,8.81,4.98v-5.3" transform="translate(0 -13.761)" fill="none" stroke="#fff" stroke-linejoin="round" stroke-width="1.4"/>
      <line id="선_117" data-name="선 117" x1="2.299" y2="6" transform="translate(54.177 282.208)" fill="none" stroke="#fff" stroke-linecap="round" stroke-linejoin="round" stroke-width="1.4"/>
      <path id="패스_17010" data-name="패스 17010" d="M85.6,292.1l6.156,2.795,4.98,10.98L87.8,301.916l-8.81,4.98" transform="translate(-16.003 -13.708)" fill="none" stroke="#fff" stroke-linejoin="round" stroke-width="1.4"/>
      <line id="선_118" data-name="선 118" x2="2.299" y2="6" transform="translate(69.498 282.208)" fill="none" stroke="#fff" stroke-linecap="round" stroke-linejoin="round" stroke-width="1.4"/>
      <path id="패스_17011" data-name="패스 17011" d="M79.654,270.04c0,3.785-6.853,15.324-6.853,15.324s-6.853-11.54-6.853-15.324a6.853,6.853,0,0,1,13.706,0Z" transform="translate(-9.819)" fill="none" stroke="#fff" stroke-linejoin="round" stroke-width="1.4"/>
      <path id="패스_17012" data-name="패스 17012" d="M79.329,273.023a3.545,3.545,0,1,1-3.545-3.544A3.546,3.546,0,0,1,79.329,273.023Z" transform="translate(-12.802 -2.983)" fill="none" stroke="#fff" stroke-linejoin="round" stroke-width="1.4"/>
    </g>
  </g>
</svg>
