<svg xmlns="http://www.w3.org/2000/svg" width="70" height="70" viewBox="0 0 70 70">
  <g id="icon" transform="translate(-446 -289)">
    <circle id="타원_786" data-name="타원 786" cx="35" cy="35" r="35" transform="translate(446 289)" fill="#fff1e9"/>
    <path id="Icon_awesome-check" data-name="Icon awesome-check" d="M11.874,30.135.512,18.773a1.748,1.748,0,0,1,0-2.472l2.472-2.472a1.748,1.748,0,0,1,2.472,0l7.654,7.654L29.5,5.089a1.748,1.748,0,0,1,2.472,0l2.472,2.472a1.748,1.748,0,0,1,0,2.472l-20.1,20.1A1.748,1.748,0,0,1,11.874,30.135Z" transform="translate(464.075 306.756)" fill="#f36a23"/>
  </g>
</svg>
