<svg xmlns="http://www.w3.org/2000/svg" width="20" height="20" viewBox="0 0 20 20">
  <g id="icon" transform="translate(-437 -699)">
    <rect id="area" width="20" height="20" transform="translate(437 699)" fill="none"/>
    <g id="그룹_19254" data-name="그룹 19254" transform="translate(381.661 191.12)">
      <path id="패스_16944" data-name="패스 16944" d="M78.877,0A8.88,8.88,0,0,0,72.6,15.159,8.88,8.88,0,1,0,85.156,2.6,8.821,8.821,0,0,0,78.877,0Zm5.494,14.374A7.77,7.77,0,1,1,73.383,3.386,7.77,7.77,0,1,1,84.371,14.374Z" transform="translate(-13.538 509)" fill="#222"/>
      <path id="패스_16945" data-name="패스 16945" d="M337.159,77.816,333.61,76.3V70.556a.555.555,0,1,0-1.11,0v6.105a.555.555,0,0,0,.336.51l3.885,1.665a.555.555,0,1,0,.437-1.02Z" transform="translate(-267.716 441.219)" fill="#222"/>
      <path id="패스_16946" data-name="패스 16946" d="M141.11,262.5h-.555a.555.555,0,1,0,0,1.11h.555a.555.555,0,1,0,0-1.11Z" transform="translate(-81.321 254.825)" fill="#222"/>
      <path id="패스_16947" data-name="패스 16947" d="M507.5,263.055a.555.555,0,0,0,.555.555h.555a.555.555,0,1,0,0-1.11h-.555A.555.555,0,0,0,507.5,263.055Z" transform="translate(-437.166 254.825)" fill="#222"/>
      <path id="패스_16948" data-name="패스 16948" d="M333.055,437.5a.555.555,0,0,0-.555.555v.555a.555.555,0,1,0,1.11,0v-.555A.555.555,0,0,0,333.055,437.5Z" transform="translate(-267.716 85.375)" fill="#222"/>
    </g>
  </g>
</svg>
