<svg xmlns="http://www.w3.org/2000/svg" width="22" height="22" viewBox="0 0 22 22">
  <g id="icon_pdf" data-name="icon / pdf" transform="translate(-728 -441)">
    <rect id="area" width="22" height="22" transform="translate(728 441)" fill="none"/>
    <g id="그룹_18926" data-name="그룹 18926" transform="translate(-178.106 -221.791)">
      <g id="그룹_18925" data-name="그룹 18925" transform="translate(908.98 663.46)">
        <path id="패스_10647" data-name="패스 10647" d="M2221.446,2766.105v-.516h-2.364v3.441h.594v-1.481h1.385v-.517h-1.385v-.926Z" transform="translate(-2208.971 -2749.365)" fill="#fff"/>
        <path id="패스_10648" data-name="패스 10648" d="M1800.01,2766.015a1.414,1.414,0,0,0-1.034-.426h-1.23v3.441h1.23a1.379,1.379,0,0,0,1.015-.387,1.77,1.77,0,0,0,.465-1.3A1.8,1.8,0,0,0,1800.01,2766.015Zm-1.671,2.5v-2.408h.617a.769.769,0,0,1,.562.247,1.347,1.347,0,0,1,.324.986,1.312,1.312,0,0,1-.344.966.729.729,0,0,1-.543.209Z" transform="translate(-1790.886 -2749.365)" fill="#f9f9f9"/>
        <path id="패스_10649" data-name="패스 10649" d="M1876.145,2833.742a1.348,1.348,0,0,0-.324-.986.77.77,0,0,0-.562-.247h-.617v2.408h.617a.729.729,0,0,0,.543-.208A1.313,1.313,0,0,0,1876.145,2833.742Z" transform="translate(-1867.188 -2815.769)" fill="#ff0303"/>
        <path id="패스_10650" data-name="패스 10650" d="M1479.533,2833.5a.547.547,0,0,0,.151-.408.588.588,0,0,0-.132-.427.521.521,0,0,0-.389-.151h-.925v1.119h.925A.5.5,0,0,0,1479.533,2833.5Z" transform="translate(-1473.845 -2815.769)" fill="#fc0303"/>
        <path id="패스_10651" data-name="패스 10651" d="M2684,665.861a.8.8,0,0,0,.5.156h1.748l-.486-.486-.343-.343-.184-.184-.606-.606-.938-.938v.533c0,.1,0,.193,0,.288s0,.165,0,.247,0,.158,0,.236c0,.155,0,.316,0,.474A.784.784,0,0,0,2684,665.861Z" transform="translate(-2669.992 -663.46)" fill="#e6e7e8"/>
        <path id="패스_10652" data-name="패스 10652" d="M908.98,664.317V678.3h10.6l5.021,0h.634V666.346h-1.721a1.81,1.81,0,0,1-.324-.019,1.05,1.05,0,0,1-.841-1.005c-.006-.388,0-.784,0-1.167,0-.162,0-.331,0-.5v-.2H909.866a.8.8,0,0,0-.787.34.854.854,0,0,0-.1.479C908.98,664.292,908.98,664.3,908.98,664.317Z" transform="translate(-908.98 -663.46)" fill="#e6e7e8"/>
        <path id="패스_10653" data-name="패스 10653" d="M925.244,2635.763c0-.144,0-.292,0-.436,0-.073,0-.148,0-.223v-4.081h-.23c-.138,0-.278,0-.414,0h-5.569l-4.66,0H908.99v4.7c0,.008,0,.016,0,.024s0,.037,0,.056a.7.7,0,0,0,.694.7h14.858a.715.715,0,0,0,.491-.2.705.705,0,0,0,.211-.49v-.012C925.244,2635.78,925.244,2635.772,925.244,2635.763Zm-4.164-2.264v.516h-1.385v1.482H919.1v-3.441h2.364v.516h-1.77v.927Zm-4,2h-1.23v-3.441h1.23a1.415,1.415,0,0,1,1.034.426,1.8,1.8,0,0,1,.445,1.323,1.772,1.772,0,0,1-.465,1.3A1.38,1.38,0,0,1,917.079,2635.5Zm-3.7-1.289v1.289h-.594v-3.441H914.4a1.015,1.015,0,0,1,.746.292,1.091,1.091,0,0,1,.291.8,1.066,1.066,0,0,1-.272.784,1.04,1.04,0,0,1-.765.272Z" transform="translate(-908.99 -2615.833)" fill="#f90606"/>
      </g>
      <path id="패스_10654" data-name="패스 10654" d="M1420.609,1138.339c.652,0,1.636-.871,2.355-2.337a13.955,13.955,0,0,1,2.406-.649,4.02,4.02,0,0,0,1.549.883c.869,0,1.052-.5,1.052-.924,0-.829-.947-.829-1.4-.829a8.282,8.282,0,0,0-1.017.125,10.206,10.206,0,0,1-.838-.724c-.267-.267-.505-.526-.712-.772a7.855,7.855,0,0,0,.464-1.784c0-1.163-.42-1.4-1.052-1.4-.479,0-1.052.249-1.052,1.436a3.362,3.362,0,0,0,.854,1.9c-.139.424-.3.913-.486,1.465-.088.265-.184.51-.285.736-.083.037-.163.074-.24.113-.279.139-.543.265-.789.381-1.119.53-1.859.88-1.859,1.573C1419.557,1138.028,1420.1,1138.339,1420.609,1138.339Zm5.959-3.155c.518,0,.665.051.7.128,0,.157,0,.223-.325.225a2.578,2.578,0,0,1-.589-.336C1426.453,1135.189,1426.527,1135.184,1426.568,1135.184Zm-2.351-.8c.066.066.229.213.446.4-.432.094-.892.211-1.331.35q.033-.091.063-.185c.13-.39.247-.741.352-1.056Q1423.964,1134.128,1424.217,1134.38Zm-1.154-3.018c0-.735.228-.735.35-.735.248,0,.351,0,.351.7a5.623,5.623,0,0,1-.279,1.095A2.156,2.156,0,0,1,1423.062,1131.362Zm-1.346,5.224.139-.065c-.526.763-1.047,1.117-1.246,1.117a.554.554,0,0,1-.35-.113C1420.258,1137.277,1421,1136.925,1421.716,1136.586Z" transform="translate(-506.637 -462.866)" fill="#ff0606"/>
    </g>
  </g>
</svg>
