<svg xmlns="http://www.w3.org/2000/svg" width="24.567" height="24.561" viewBox="0 0 24.567 24.561">
  <g id="그룹_19005" data-name="그룹 19005" transform="translate(-152.231 -254)">
    <path id="패스_16568" data-name="패스 16568" d="M393.214,326.115c-.048,0-.1,0-.144,0a2.964,2.964,0,0,1-2.141-1.078l-4.711-5.741a.492.492,0,0,1,.107-.721,8.676,8.676,0,0,0,2.3-2.3.491.491,0,0,1,.721-.107l5.741,4.711a2.958,2.958,0,0,1-1.877,5.244Zm-5.9-7.04,4.378,5.335a1.952,1.952,0,0,0,1.429.72,1.93,1.93,0,0,0,1.494-.576,1.975,1.975,0,0,0-.144-2.923l-5.335-4.378a9.871,9.871,0,0,1-1.822,1.822Z" transform="translate(-219.374 -47.554)" fill="#ddd"/>
    <path id="패스_16569" data-name="패스 16569" d="M159.766,99.575a9.77,9.77,0,1,1,6.9-2.86,9.7,9.7,0,0,1-6.9,2.86Zm0-18.549a8.78,8.78,0,1,0,6.215,2.57,8.761,8.761,0,0,0-6.215-2.57Z" transform="translate(2.234 173.956)" fill="#ddd"/>
    <path id="패스_16570" data-name="패스 16570" d="M224.2,209.133h-1.8a.491.491,0,0,1-.491-.491v-6.133a.491.491,0,0,1,.491-.491h1.8a.491.491,0,0,1,.491.491v6.133A.491.491,0,0,1,224.2,209.133Zm-1.31-.983h.819V203h-.819Z" transform="translate(-65.264 59.473)" fill="#ddd"/>
    <path id="패스_16571" data-name="패스 16571" d="M288.677,169.837h-1.8a.491.491,0,0,1-.491-.491v-8.7a.491.491,0,0,1,.491-.491h1.8a.491.491,0,0,1,.491.491v8.7A.491.491,0,0,1,288.677,169.837Zm-1.31-.983h.819v-7.721h-.819Z" transform="translate(-125.776 98.77)" fill="#ddd"/>
    <path id="패스_16572" data-name="패스 16572" d="M353.167,233.321h-1.8a.491.491,0,0,1-.491-.491v-4.55a.491.491,0,0,1,.491-.491h1.8a.491.491,0,0,1,.491.491v4.55A.491.491,0,0,1,353.167,233.321Zm-1.31-.983h.819v-3.567h-.819Z" transform="translate(-186.305 35.286)" fill="#ddd"/>
  </g>
</svg>
