<svg xmlns="http://www.w3.org/2000/svg" width="20" height="20" viewBox="0 0 20 20">
  <g id="icon" transform="translate(-547 -368)">
    <rect id="area" width="20" height="20" transform="translate(547 368)" fill="none"/>
    <g id="icon-2" data-name="icon" transform="translate(-201.229 52.084)">
      <path id="패스_17013" data-name="패스 17013" d="M763.42,327.924a3.182,3.182,0,1,0,3.182,3.182A3.186,3.186,0,0,0,763.42,327.924Zm0,4.987a1.8,1.8,0,1,1,1.8-1.8A1.807,1.807,0,0,1,763.42,332.911Z" transform="translate(-5.191 -5.19)" fill="#999"/>
      <path id="패스_17014" data-name="패스 17014" d="M766.668,324.124l-1.774-.336a6.911,6.911,0,0,0-.448-1.08l1.017-1.493a.689.689,0,0,0-.082-.875l-1.576-1.576a.689.689,0,0,0-.875-.082l-1.492,1.017a6.961,6.961,0,0,0-1.081-.448l-.336-1.774a.688.688,0,0,0-.677-.561h-2.231a.688.688,0,0,0-.676.561l-.337,1.774a6.975,6.975,0,0,0-1.08.448l-1.492-1.017a.689.689,0,0,0-.875.082l-1.577,1.577a.688.688,0,0,0-.082.875l1.017,1.492a6.966,6.966,0,0,0-.448,1.08l-1.775.336a.689.689,0,0,0-.561.677v2.23a.689.689,0,0,0,.561.676l1.775.336a6.988,6.988,0,0,0,.448,1.08l-1.018,1.492a.69.69,0,0,0,.083.875l1.577,1.577a.689.689,0,0,0,.875.082l1.493-1.017a6.986,6.986,0,0,0,1.08.448l.337,1.775a.688.688,0,0,0,.676.56h2.231a.689.689,0,0,0,.677-.561l.336-1.774a6.877,6.877,0,0,0,1.08-.448l1.493,1.017a.689.689,0,0,0,.875-.082l1.576-1.577a.689.689,0,0,0,.082-.875l-1.017-1.493a6.877,6.877,0,0,0,.448-1.08l1.775-.336a.688.688,0,0,0,.561-.676V324.8A.688.688,0,0,0,766.668,324.124Zm-.817,2.337-1.631.309a.689.689,0,0,0-.541.51,5.609,5.609,0,0,1-.632,1.526.688.688,0,0,0,.021.742l.935,1.374-.77.771-1.372-.936a.689.689,0,0,0-.743-.021,5.554,5.554,0,0,1-1.525.632.689.689,0,0,0-.51.54l-.309,1.632h-1.09l-.309-1.632a.69.69,0,0,0-.51-.54,5.589,5.589,0,0,1-1.527-.633.688.688,0,0,0-.741.022l-1.372.935-.77-.77.935-1.373a.688.688,0,0,0,.022-.742,5.563,5.563,0,0,1-.633-1.526.689.689,0,0,0-.54-.51l-1.633-.309v-1.089l1.633-.309a.688.688,0,0,0,.54-.51,5.574,5.574,0,0,1,.633-1.526.689.689,0,0,0-.022-.742l-.935-1.372.77-.771,1.372.935a.688.688,0,0,0,.742.022,5.581,5.581,0,0,1,1.526-.633.69.69,0,0,0,.51-.54l.309-1.632h1.089l.309,1.632a.69.69,0,0,0,.51.54,5.6,5.6,0,0,1,1.526.632.688.688,0,0,0,.742-.021l1.372-.935.769.77-.935,1.372a.689.689,0,0,0-.021.742,5.62,5.62,0,0,1,.632,1.526.688.688,0,0,0,.541.51l1.631.309Z" fill="#999"/>
    </g>
  </g>
</svg>
