<svg xmlns="http://www.w3.org/2000/svg" width="18" height="18" viewBox="0 0 18 18">
  <g id="icon_이름" data-name="icon / 이름" transform="translate(-1733 -678)">
    <rect id="area" width="18" height="18" transform="translate(1733 678)" fill="none"/>
    <path id="패스_1563" data-name="패스 1563" d="M240.762,95.1a3.434,3.434,0,1,1-3.452,3.452A3.42,3.42,0,0,1,240.762,95.1Zm0,.727a2.707,2.707,0,1,0,2.689,2.725A2.7,2.7,0,0,0,240.762,95.829Z" transform="translate(1501.241 585.682)" fill="#666" stroke="#666" stroke-width="0.4"/>
    <path id="패스_1564" data-name="패스 1564" d="M182.965,344.259a.349.349,0,1,1-.69-.109,5.156,5.156,0,0,1,10.247,0,.37.37,0,0,1-.327.4.324.324,0,0,1-.4-.291,4.441,4.441,0,0,0-8.83,0Z" transform="translate(1554.604 348.661)" fill="#666" stroke="#666" stroke-width="0.4"/>
  </g>
</svg>
