<svg xmlns="http://www.w3.org/2000/svg" width="40" height="40" viewBox="0 0 40 40">
  <g id="_" data-name="&gt;" transform="translate(0 5)">
    <rect id="area" width="40" height="40" transform="translate(0 -5)" fill="none"/>
    <path id="Icon_ionic-ios-arrow-round-back" data-name="Icon ionic-ios-arrow-round-back" d="M32.665,11.763a1.86,1.86,0,0,0-.014,2.561L40.845,22.8H9.623a1.811,1.811,0,0,0,0,3.619H40.845L32.638,34.9a1.873,1.873,0,0,0,.014,2.561,1.71,1.71,0,0,0,2.47-.014L46.245,25.893h0a2.039,2.039,0,0,0,.364-.571,1.774,1.774,0,0,0,.135-.7,1.845,1.845,0,0,0-.5-1.267L35.122,11.805A1.683,1.683,0,0,0,32.665,11.763Z" transform="translate(-7.744 -9.252)" fill="#fff"/>
  </g>
</svg>
