<svg xmlns="http://www.w3.org/2000/svg" width="18" height="18" viewBox="0 0 18 18">
  <g id="icon_달력" data-name="icon / 달력" transform="translate(-1733 -678)">
    <rect id="area" width="18" height="18" transform="translate(1733 678)" fill="none"/>
    <g id="그룹_18951" data-name="그룹 18951" transform="translate(170.714 222.393)">
      <path id="패스_16440" data-name="패스 16440" d="M257.289,46.668h3.729c.343,0,.621.412.621.747v.747a.693.693,0,0,1-.621.747h-3.729c-.343,0-.621-.412-.621-.747v-.747A.693.693,0,0,1,257.289,46.668Z" transform="translate(1312.132 411.003)" fill="#f36a23"/>
      <path id="패스_16441" data-name="패스 16441" d="M172.582,70h-.661v.661a1.321,1.321,0,0,1-1.321,1.321h-3.964a1.321,1.321,0,0,1-1.321-1.321V70h-.661a1.321,1.321,0,0,0-1.321,1.321v9.911a1.321,1.321,0,0,0,1.321,1.321h7.928a1.321,1.321,0,0,0,1.321-1.321V71.321A1.321,1.321,0,0,0,172.582,70ZM171.26,80.571h-5.285a.661.661,0,1,1,0-1.321h5.286a.661.661,0,1,1,0,1.321Zm0-2.643h-5.285a.661.661,0,0,1,0-1.321h5.286a.661.661,0,0,1,0,1.321Zm0-2.643h-5.285a.661.661,0,0,1,0-1.321h5.286a.661.661,0,0,1,0,1.321Z" transform="translate(1402.668 388.661)" fill="#f36a23"/>
    </g>
  </g>
</svg>
