<svg xmlns="http://www.w3.org/2000/svg" width="22" height="22" viewBox="0 0 22 22">
  <g id="체크박스" transform="translate(-594 -201)">
    <rect id="사각형_386" data-name="사각형 386" width="22" height="22" rx="5" transform="translate(594 201)" fill="#f36a23"/>
    <path id="Icon_awesome-check" data-name="Icon awesome-check" d="M3.375,11.842.146,8.612a.5.5,0,0,1,0-.7l.7-.7a.5.5,0,0,1,.7,0L3.726,9.382l4.66-4.66a.5.5,0,0,1,.7,0l.7.7a.5.5,0,0,1,0,.7L4.078,11.842A.5.5,0,0,1,3.375,11.842Z" transform="translate(599.977 204.152)" fill="#fff"/>
  </g>
</svg>
