<svg xmlns="http://www.w3.org/2000/svg" width="38" height="38" viewBox="0 0 38 38">
  <g id="icon" transform="translate(-525 -407)">
    <rect id="area" width="38" height="38" transform="translate(525 407)" fill="none"/>
    <g id="그룹_18924" data-name="그룹 18924" transform="translate(531.248 409.38)">
      <path id="패스_10630" data-name="패스 10630" d="M769.779,1487.04a1.591,1.591,0,0,1,1.119.464,1.579,1.579,0,0,0,2.237,0,1.591,1.591,0,0,1,1.119-.464h.686a1.582,1.582,0,0,1,1.551,1.272l1.33,6.643H766.212l1.329-6.643a1.582,1.582,0,0,1,1.551-1.272Z" transform="translate(-759.333 -1487.04)" fill="#a67c52"/>
      <ellipse id="타원_767" data-name="타원 767" cx="1.304" cy="1.289" rx="1.304" ry="1.289" transform="translate(15.6 30.663)" fill="#838bc5"/>
      <ellipse id="타원_768" data-name="타원 768" cx="1.304" cy="1.289" rx="1.304" ry="1.289" transform="translate(7.158 30.663)" fill="#838bc5"/>
      <path id="패스_10631" data-name="패스 10631" d="M691.212,1690.678v-6.332a7.176,7.176,0,0,1,1.071-3.809,5.5,5.5,0,0,1,2.791-2.306l1.85-.654.107-.037-.443,7.334v5.8Z" transform="translate(-691.212 -1657.437)" fill="#a67c52"/>
      <path id="패스_10632" data-name="패스 10632" d="M753.85,1671.637v8.537l-.274-.047a20.363,20.363,0,0,1-2.364-.575l.522-7.334,2.1-.628h.005Z" transform="translate(-745.916 -1652.115)" fill="#338dc9"/>
      <path id="패스_10633" data-name="패스 10633" d="M886.716,1690.678v-5.8l-.454-7.334.11.037,1.894.654a6.34,6.34,0,0,1,3.953,6.115v6.332Z" transform="translate(-866.714 -1657.437)" fill="#a67c52"/>
      <path id="패스_10634" data-name="패스 10634" d="M888.266,1678.231l-1.894-.654-.11-.037.03.485.6.207a6.341,6.341,0,0,1,3.953,6.115v6.332h1.376v-6.332A6.34,6.34,0,0,0,888.266,1678.231Z" transform="translate(-866.714 -1657.437)" fill="#7d5d3e"/>
      <path id="패스_10635" data-name="패스 10635" d="M695.124,1678.231l1.85-.654.108-.037-.029.485-.584.207a6.346,6.346,0,0,0-3.862,6.115v6.332h-1.344v-6.332A6.346,6.346,0,0,1,695.124,1678.231Z" transform="translate(-691.257 -1657.437)" fill="#b89675"/>
      <path id="패스_10636" data-name="패스 10636" d="M868.328,1672.218l.522,7.334a21.327,21.327,0,0,1-2.628.628h-.01v-8.542l.01-.047h.005Z" transform="translate(-848.78 -1652.115)" fill="#338dc9"/>
      <path id="패스_10637" data-name="패스 10637" d="M785.709,1672.04v8.542a27.144,27.144,0,0,1-4.749.428,26.606,26.606,0,0,1-4.749-.433v-8.537l4.749,4.749Z" transform="translate(-768.277 -1652.518)" fill="#a67c52"/>
      <path id="패스_10638" data-name="패스 10638" d="M778.075,1667.4a4.366,4.366,0,0,0,5.593,0l.005-.005,1.958.443-.01.048-4.749,4.748-4.749-4.748-.011-.048,1.958-.443Z" transform="translate(-768.188 -1648.359)" fill="#e5c69c"/>
      <g id="그룹_18921" data-name="그룹 18921" transform="translate(8.697 19.031)">
        <path id="패스_10639" data-name="패스 10639" d="M787.426,1669.72a5.393,5.393,0,0,0,3.986-2.062l-1.184-.268-.005.005a4.367,4.367,0,0,1-5.593,0l-.005-.005-1.184.268A5.393,5.393,0,0,0,787.426,1669.72Z" transform="translate(-783.44 -1667.39)" fill="#ac9575"/>
      </g>
      <path id="패스_10640" data-name="패스 10640" d="M779.126,1577.04a5.263,5.263,0,0,0,2.638,4.221l-.29,2.031a4.356,4.356,0,0,1-1.53,2.739l-.422.348-.232.2-.005.005a4.366,4.366,0,0,1-5.593,0l-.005-.005-.232-.2-.422-.348a4.355,4.355,0,0,1-1.53-2.739l-.29-2.031a5.263,5.263,0,0,0,2.638-4.221Z" transform="translate(-763.805 -1567.542)" fill="#e5c69c"/>
      <g id="그룹_18922" data-name="그룹 18922" transform="translate(14.478)">
        <path id="패스_10641" data-name="패스 10641" d="M840.9,1488.312a1.582,1.582,0,0,0-1.551-1.272h-.686a1.562,1.562,0,0,0-.443.072,1.578,1.578,0,0,1,1.1,1.2l1.33,6.643h1.583Z" transform="translate(-838.217 -1487.04)" fill="#7d5d3e"/>
      </g>
      <g id="그룹_18923" data-name="그룹 18923" transform="translate(6.879)">
        <path id="패스_10642" data-name="패스 10642" d="M767.541,1488.312a1.582,1.582,0,0,1,1.551-1.272h.686a1.561,1.561,0,0,1,.443.072,1.578,1.578,0,0,0-1.1,1.2l-1.33,6.643h-1.583Z" transform="translate(-766.212 -1487.04)" fill="#b89675"/>
      </g>
      <path id="패스_10643" data-name="패스 10643" d="M846.212,1577.04h3.166l-.528,4.221A5.263,5.263,0,0,1,846.212,1577.04Z" transform="translate(-830.891 -1567.542)" fill="#564a41"/>
      <path id="패스_10644" data-name="패스 10644" d="M751.212,1747.04a20.4,20.4,0,0,0,2.364.575l.274.047a26.57,26.57,0,0,0,4.749.433,27.163,27.163,0,0,0,4.749-.427h.01a21.3,21.3,0,0,0,2.628-.628v5.8H762.82a1.055,1.055,0,1,0-1.055-1.055,1.058,1.058,0,0,0,1.055,1.055h-8.442a1.055,1.055,0,1,0-1.055-1.055,1.058,1.058,0,0,0,1.055,1.055h-3.166Z" transform="translate(-745.916 -1719.604)" fill="#026eaa"/>
      <path id="패스_10645" data-name="패스 10645" d="M769.378,1577.04a5.263,5.263,0,0,1-2.638,4.221l-.528-4.221Z" transform="translate(-759.333 -1567.542)" fill="#564a41"/>
      <path id="패스_10646" data-name="패스 10646" d="M730.433,1562.04H745.47a.792.792,0,0,1,0,1.583H727a.792.792,0,0,1,0-1.583Z" transform="translate(-723.554 -1554.125)" fill="#754c24"/>
    </g>
  </g>
</svg>
