<svg xmlns="http://www.w3.org/2000/svg" xmlns:xlink="http://www.w3.org/1999/xlink" width="38" height="40.262" viewBox="0 0 38 40.262">
  <defs>
    <linearGradient id="linear-gradient" x1="0.154" y1="0.936" x2="0.806" y2="0.084" gradientUnits="objectBoundingBox">
      <stop offset="0" stop-color="#731c0f"/>
      <stop offset="0.258" stop-color="#832d1b"/>
      <stop offset="0.721" stop-color="#9c462d"/>
      <stop offset="1" stop-color="#a65034"/>
    </linearGradient>
    <linearGradient id="linear-gradient-2" x1="4.72" y1="1.498" x2="4.58" y2="0.609" xlink:href="#linear-gradient"/>
    <linearGradient id="linear-gradient-3" x1="1.184" y1="0.607" x2="0.073" y2="0.434" gradientUnits="objectBoundingBox">
      <stop offset="0" stop-color="#b51118"/>
      <stop offset="0.165" stop-color="#cd350b"/>
      <stop offset="0.312" stop-color="#df4e03"/>
      <stop offset="0.401" stop-color="#e65800"/>
      <stop offset="0.492" stop-color="#e76000"/>
      <stop offset="0.64" stop-color="#ed7700"/>
      <stop offset="0.823" stop-color="#f59d00"/>
      <stop offset="0.999" stop-color="#ffc900"/>
    </linearGradient>
    <linearGradient id="linear-gradient-4" x1="0.138" y1="0.887" x2="1.193" y2="-0.067" gradientUnits="objectBoundingBox">
      <stop offset="0" stop-color="#b51118"/>
      <stop offset="0.165" stop-color="#cd350b"/>
      <stop offset="0.312" stop-color="#df4e03"/>
      <stop offset="0.401" stop-color="#e65800"/>
      <stop offset="0.5" stop-color="#e66000"/>
      <stop offset="0.66" stop-color="#e97700"/>
      <stop offset="0.859" stop-color="#ec9d00"/>
      <stop offset="1" stop-color="#f0bd00"/>
    </linearGradient>
  </defs>
  <g id="icon" transform="translate(-529 -339)">
    <rect id="area" width="38" height="38" transform="translate(529 339)" fill="none"/>
    <g id="icon-2" data-name="icon" transform="translate(-2026.916 135.969)">
      <ellipse id="타원_2166" data-name="타원 2166" cx="7" cy="1" rx="7" ry="1" transform="translate(2563.916 232.031)" opacity="0.6"/>
      <ellipse id="타원_2167" data-name="타원 2167" cx="9" cy="1" rx="9" ry="1" transform="matrix(1, 0.017, -0.017, 1, 2569.917, 237.874)" opacity="0.6"/>
      <g id="그룹_19314" data-name="그룹 19314" transform="translate(2558.675 203.031)">
        <g id="그룹_19313" data-name="그룹 19313" transform="translate(0 0.082)">
          <path id="패스_17015" data-name="패스 17015" d="M2830.79,332.167s1.768-2.974,2.375-4.3l1.821,1.159a7.343,7.343,0,0,0-3.031,3.928Z" transform="translate(-2802.578 -315.007)" fill="url(#linear-gradient)"/>
          <path id="패스_17016" data-name="패스 17016" d="M2675.883,211.172s1.885-4.419-.957-7.349l-1.8,1.576a4.941,4.941,0,0,1,1.843,2.536,13.289,13.289,0,0,1-.089,3.074Z" transform="translate(-2661.261 -203.823)" fill="url(#linear-gradient-2)"/>
          <path id="패스_17017" data-name="패스 17017" d="M2603.389,282.539c.673-3.282-1.091-6.661-2.776-11.2s-2.452-5.385-5.009-5.762-4.171,1.842-4.894,4.548c-.815,3.052-5.538,5.627-6.322,9.237-.878,4.044,1.239,8.21,4.634,9.3,3.973,1.275,8.677.759,10.687-.836A9.729,9.729,0,0,0,2603.389,282.539Z" transform="translate(-2581.544 -259.137)" fill="url(#linear-gradient-3)"/>
          <path id="패스_17018" data-name="패스 17018" d="M2730.669,365.445c-.289.036-.109,2.458.18,2.49C2731.175,367.971,2730.992,365.4,2730.669,365.445Z" transform="translate(-2712.706 -348.688)" fill="#ffa340"/>
          <path id="패스_17019" data-name="패스 17019" d="M2737.418,351.523c-.3.033-.036,1.588.252,1.552S2737.743,351.487,2737.418,351.523Z" transform="translate(-2718.77 -336.209)" fill="#ffa340"/>
          <path id="패스_17020" data-name="패스 17020" d="M2729.223,315.33c-.289.036.361,3.031.686,2.959S2729.5,315.3,2729.223,315.33Z" transform="translate(-2711.476 -303.769)" fill="#ffa340"/>
          <path id="패스_17021" data-name="패스 17021" d="M2602.748,345.6c-3.267-1.017-7.12,2.408-7.714,6.053-.372,2.285.424,5.339,2.611,6.409,3.037,1.486,7.841-1.306,8.663-5.222C2606.907,349.992,2605.422,346.433,2602.748,345.6Z" transform="translate(-2591.186 -330.739)" fill="#ffd573" opacity="0.15" style="mix-blend-mode: lighten;isolation: isolate"/>
          <path id="패스_17022" data-name="패스 17022" d="M2662.812,274.449c-1.342-3.613-2.1-4.885-3.645-5.445.524,1.056,3.07,9.739.692,15.425a14.887,14.887,0,0,1-4.2,6.034,14.562,14.562,0,0,1-2.075,1.851c3.329.491,6.7-.092,8.325-1.379a9.729,9.729,0,0,0,3.68-5.287C2666.261,282.366,2664.5,278.987,2662.812,274.449Z" transform="translate(-2643.743 -262.246)" fill="#9c1717" opacity="0.15" style="mix-blend-mode: multiply;isolation: isolate"/>
          <path id="패스_17023" data-name="패스 17023" d="M2662.418,371.328a6.946,6.946,0,0,0-1.435,5.517c.441,3.531,3.09,7.559,10.1,7.5a11.552,11.552,0,0,0,11.532-12.966c-.331-3.228-1.972-6.771-4.14-7.34A20.926,20.926,0,0,1,2662.418,371.328Z" transform="translate(-2650.315 -347.432)" fill="url(#linear-gradient-4)"/>
          <path id="패스_17024" data-name="패스 17024" d="M2683.263,363.458c-2.175-1.151-4.552.828-6.869,2.152s-4.479,1.467-7.531,3.062c-3.642,1.9-4,4.757-2.648,6.456,1.287,1.614,2.938,1.407,3.643,1.7,1.166.487,2.094,3.4,7.033,2.685,5.527-.8,7.929-5.7,8.111-9.518C2685.167,366.52,2684.67,364.2,2683.263,363.458Z" transform="translate(-2654.414 -346.597)" fill="#fff4a0"/>
          <path id="패스_17025" data-name="패스 17025" d="M2571,237.517s-8.079.732-12.322,7.279C2558.675,244.8,2567.641,245.662,2571,237.517Z" transform="translate(-2558.675 -234.024)" fill="#5b703a"/>
        </g>
        <path id="패스_17026" data-name="패스 17026" d="M2672.607,204.689c-.409-.354,1.391-2.048,1.8-1.576C2674.7,203.447,2673.025,205.051,2672.607,204.689Z" transform="translate(-2660.741 -203.031)" fill="#cc856f"/>
        <path id="패스_17027" data-name="패스 17027" d="M2595.431,371.87c-.978-.38-2.565,3.072-1.717,3.466S2596.317,372.215,2595.431,371.87Z" transform="translate(-2589.866 -354.339)" fill="#ffe18f"/>
        <path id="패스_17028" data-name="패스 17028" d="M2617.156,352.706c-.319-.46.924-1.848,1.467-1.25S2617.645,353.413,2617.156,352.706Z" transform="translate(-2611.047 -335.936)" fill="#ffe18f"/>
        <path id="패스_17029" data-name="패스 17029" d="M2853.273,326.579c-.358.418,1.361,1.623,1.821,1.159S2853.771,326,2853.273,326.579Z" transform="translate(-2822.687 -313.636)" fill="#cc856f"/>
        <path id="패스_17030" data-name="패스 17030" d="M2683.263,363.458c-2.175-1.151-4.552.828-6.869,2.152s-4.479,1.467-7.531,3.062c-3.642,1.9-4,4.757-2.648,6.456,1.287,1.614,2.938,1.407,3.643,1.7,1.166.487,2.094,3.4,7.033,2.686,5.527-.8,7.929-5.7,8.111-9.518C2685.167,366.52,2684.67,364.2,2683.263,363.458Zm-1.5,12.373c-2.723,2.956-7.542,3.607-9.727,1.548-2.2-2.073-3.632-1.781-4.537-2.353a2.416,2.416,0,0,1-1.218-2.395c-.008-1.491,1.549-3.415,7.394-5.209,5.335-1.638,6.054-4,8.865-3.7C2684.511,363.935,2684.7,372.638,2681.76,375.83Z" transform="translate(-2654.414 -346.515)" fill="#ffda6e"/>
        <path id="패스_17031" data-name="패스 17031" d="M2730.031,448.34a2.614,2.614,0,0,0-2.246.5c-.405.5-.551,1.14-.352,1.248C2727.731,450.252,2730.182,448.47,2730.031,448.34Z" transform="translate(-2709.857 -422.833)" fill="#d99b3f"/>
        <path id="패스_17032" data-name="패스 17032" d="M2742.392,458.239c.279.239-.24,1.58-1.1,2.011-.4.2-1.663.12-1.714-.1C2739.5,459.826,2742.243,458.112,2742.392,458.239Z" transform="translate(-2720.82 -431.773)" fill="#d99b3f"/>
        <path id="패스_17033" data-name="패스 17033" d="M2571,237.517a38.289,38.289,0,0,1-12.322,7.279S2567.782,245.928,2571,237.517Z" transform="translate(-2558.675 -233.942)" fill="#435725"/>
      </g>
      <path id="패스_17034" data-name="패스 17034" d="M2708.726,296.613c-.361-.029.251,3.532.575,3.489S2709.088,296.642,2708.726,296.613Z" transform="translate(-134.395 -83.88)" fill="#ffa340" opacity="0.5"/>
      <path id="패스_17035" data-name="패스 17035" d="M2686.362,389.442c-.424-.094-1.079,2.6-.758,2.634S2686.686,389.514,2686.362,389.442Z" transform="translate(-113.693 -167.083)" fill="#ffa340"/>
      <path id="패스_17036" data-name="패스 17036" d="M2670.178,404.056c-.311-.093-1.046,2.237-.686,2.418S2670.539,404.165,2670.178,404.056Z" transform="translate(-99.24 -180.182)" fill="#ffa340"/>
    </g>
  </g>
</svg>
