<svg xmlns="http://www.w3.org/2000/svg" width="40" height="40" viewBox="0 0 40 40">
  <g id="_" data-name="&lt;" transform="translate(-0.026 4.507)">
    <rect id="area" width="40" height="40" transform="translate(0.026 -4.507)" fill="none"/>
    <path id="Icon_ionic-ios-arrow-round-back" data-name="Icon ionic-ios-arrow-round-back" d="M21.961,11.763a1.86,1.86,0,0,1,.014,2.561L13.781,22.8H45a1.811,1.811,0,0,1,0,3.619H13.781L21.988,34.9a1.873,1.873,0,0,1-.013,2.561,1.71,1.71,0,0,1-2.47-.014L8.381,25.893h0a2.039,2.039,0,0,1-.364-.571,1.774,1.774,0,0,1-.135-.7,1.845,1.845,0,0,1,.5-1.267L19.5,11.805A1.683,1.683,0,0,1,21.961,11.763Z" transform="translate(-6.855 -8.759)" fill="#fff"/>
  </g>
</svg>
