<svg xmlns="http://www.w3.org/2000/svg" xmlns:xlink="http://www.w3.org/1999/xlink" width="30" height="30" viewBox="0 0 30 30">
  <defs>
    <linearGradient id="linear-gradient" x2="1" y2="1" gradientUnits="objectBoundingBox">
      <stop offset="0" stop-color="#1b36eb"/>
      <stop offset="1" stop-color="#9e54ff"/>
    </linearGradient>
  </defs>
  <g id="icon" transform="translate(-1809 -313)">
    <rect id="아이콘박스" width="30" height="30" rx="5" transform="translate(1809 313)" fill="url(#linear-gradient)"/>
    <g id="noun-rules-1219370" transform="translate(1688.194 246.948)">
      <path id="패스_63724" data-name="패스 63724" d="M143.585,72.053h-11.9a2.2,2.2,0,0,0-2.2,2.173V85.333h-.628a.228.228,0,0,0-.048,0,2.2,2.2,0,0,0,0,4.377.254.254,0,0,0,.048,0h10.806a2.2,2.2,0,0,0,2.2-2.2V76.45h1.721a2.2,2.2,0,1,0,0-4.4ZM129,89.253a1.722,1.722,0,0,1,0-3.444h9.3a2.192,2.192,0,0,0,0,3.444Zm12.377-1.721h0a1.721,1.721,0,1,1-1.721-1.721.238.238,0,0,0,0-.476h-9.692V74.25a1.723,1.723,0,0,1,1.721-1.721h10.539a2.193,2.193,0,0,0-.835,1.7V87.532Zm2.2-11.559h-1.709V74.25a1.721,1.721,0,1,1,1.721,1.721Z" transform="translate(0 0)" fill="#fff" stroke="#fff" stroke-width="0.7"/>
      <path id="패스_63725" data-name="패스 63725" d="M245.45,306.15h.952v.476h-.952Z" transform="translate(-113.602 -224.147)" fill="#fff" stroke="#fff" stroke-width="0.7"/>
      <path id="패스_63726" data-name="패스 63726" d="M318.25,306.15h4.284v.476H318.25Z" transform="translate(-183.307 -224.147)" fill="#fff" stroke="#fff" stroke-width="0.7"/>
      <path id="패스_63727" data-name="패스 63727" d="M245.45,238.95h.952v.476h-.952Z" transform="translate(-113.602 -159.804)" fill="#fff" stroke="#fff" stroke-width="0.7"/>
      <path id="패스_63728" data-name="패스 63728" d="M318.25,238.95h4.284v.476H318.25Z" transform="translate(-183.307 -159.804)" fill="#fff" stroke="#fff" stroke-width="0.7"/>
      <path id="패스_63729" data-name="패스 63729" d="M245.45,171.75h.952v.476h-.952Z" transform="translate(-113.602 -95.46)" fill="#fff" stroke="#fff" stroke-width="0.7"/>
      <path id="패스_63730" data-name="패스 63730" d="M318.25,171.75h4.284v.476H318.25Z" transform="translate(-183.307 -95.46)" fill="#fff" stroke="#fff" stroke-width="0.7"/>
    </g>
  </g>
</svg>
