<svg xmlns="http://www.w3.org/2000/svg" width="13.444" height="15.365" viewBox="0 0 13.444 15.365">
  <path id="Icon_awesome-bell" data-name="Icon awesome-bell" d="M6.722,15.365a1.92,1.92,0,0,0,1.92-1.921H4.8A1.92,1.92,0,0,0,6.722,15.365Zm6.464-4.493c-.58-.623-1.665-1.56-1.665-4.63A4.739,4.739,0,0,0,7.682,1.586V.96a.96.96,0,1,0-1.919,0v.625A4.739,4.739,0,0,0,1.923,6.242c0,3.07-1.085,4.007-1.665,4.63A.938.938,0,0,0,0,11.524a.961.961,0,0,0,.963.96H12.481a.961.961,0,0,0,.963-.96.937.937,0,0,0-.258-.652Z" transform="translate(0)" fill="#353990"/>
</svg>
