<svg xmlns="http://www.w3.org/2000/svg" width="60" height="60" viewBox="0 0 60 60">
  <g id="icon" transform="translate(-390 -562)">
    <circle id="타원_1110" data-name="타원 1110" cx="30" cy="30" r="30" transform="translate(390 562)" fill="#f4f4f9"/>
    <path id="패스_63804" data-name="패스 63804" d="M196.965,27.173h-7.682a.726.726,0,0,0-.768.768v3.073a.726.726,0,0,0,.768.768h7.682a.726.726,0,0,0,.768-.768V27.941A.726.726,0,0,0,196.965,27.173Zm-.768,3.073h-6.145V28.709H196.2Zm.768,3.073h-7.682a.726.726,0,0,0-.768.768v3.073a.726.726,0,0,0,.768.768h7.682a.726.726,0,0,0,.768-.768V34.087A.726.726,0,0,0,196.965,33.318Zm-.768,3.073h-6.145V34.855H196.2Zm.768,3.073h-7.682a.726.726,0,0,0-.768.768V43.3a.726.726,0,0,0,.768.768h7.682a.726.726,0,0,0,.768-.768V40.232A.726.726,0,0,0,196.965,39.464Zm-.768,3.073h-6.145V41H196.2ZM202.343,55.6h-1.536V24.1a.726.726,0,0,0-.768-.768H188.516a.872.872,0,0,0-.614.23l-4.609,5.377a.648.648,0,0,0-.154.538V55.6H181.6a.768.768,0,1,0,0,1.537h20.741a.768.768,0,1,0,0-1.537Zm-12.291,0v-8.45H196.2V55.6Zm7.682,0V46.377a.726.726,0,0,0-.768-.768h-7.682a.726.726,0,0,0-.768.768V55.6h-3.841V29.785l4.225-4.916h10.37V55.6Z" transform="translate(228.167 551.668)" fill="#353990"/>
  </g>
</svg>
