<svg xmlns="http://www.w3.org/2000/svg" width="20" height="20" viewBox="0 0 20 20">
  <g id="icon_달력" data-name="icon / 달력" transform="translate(-660 -97)">
    <rect id="사각형_9385" data-name="사각형 9385" width="20" height="20" transform="translate(660 97)" fill="none"/>
    <path id="Icon_awesome-calendar-alt" data-name="Icon awesome-calendar-alt" d="M0,14.345a1.484,1.484,0,0,0,1.484,1.484H12.366a1.484,1.484,0,0,0,1.484-1.484V5.936H0ZM9.893,8.285a.372.372,0,0,1,.371-.371H11.5a.372.372,0,0,1,.371.371V9.522a.372.372,0,0,1-.371.371H10.264a.372.372,0,0,1-.371-.371Zm0,3.957a.372.372,0,0,1,.371-.371H11.5a.372.372,0,0,1,.371.371v1.237a.372.372,0,0,1-.371.371H10.264a.372.372,0,0,1-.371-.371ZM5.936,8.285a.372.372,0,0,1,.371-.371H7.543a.372.372,0,0,1,.371.371V9.522a.372.372,0,0,1-.371.371H6.307a.372.372,0,0,1-.371-.371Zm0,3.957a.372.372,0,0,1,.371-.371H7.543a.372.372,0,0,1,.371.371v1.237a.372.372,0,0,1-.371.371H6.307a.372.372,0,0,1-.371-.371ZM1.979,8.285a.372.372,0,0,1,.371-.371H3.586a.372.372,0,0,1,.371.371V9.522a.372.372,0,0,1-.371.371H2.35a.372.372,0,0,1-.371-.371Zm0,3.957a.372.372,0,0,1,.371-.371H3.586a.372.372,0,0,1,.371.371v1.237a.372.372,0,0,1-.371.371H2.35a.372.372,0,0,1-.371-.371ZM12.366,1.979H10.882V.495A.5.5,0,0,0,10.387,0H9.4A.5.5,0,0,0,8.9.495V1.979H4.946V.495A.5.5,0,0,0,4.452,0H3.462a.5.5,0,0,0-.495.495V1.979H1.484A1.484,1.484,0,0,0,0,3.462V4.946H13.85V3.462A1.484,1.484,0,0,0,12.366,1.979Z" transform="translate(663 99)" fill="#253258"/>
  </g>
</svg>
