<svg xmlns="http://www.w3.org/2000/svg" width="60" height="60" viewBox="0 0 60 60">
  <g id="icon" transform="translate(-390 -562)">
    <circle id="타원_1110" data-name="타원 1110" cx="30" cy="30" r="30" transform="translate(390 562)" fill="#f4f4f9"/>
    <path id="패스_63808" data-name="패스 63808" d="M145.479,15.405a.427.427,0,0,0,0-.1.14.14,0,0,0,0-.036.469.469,0,0,0-.076-.12L137.808,7.59a2.187,2.187,0,0,0-.277-.225,1.918,1.918,0,0,0-.3-.173A2.007,2.007,0,0,0,136.387,7H120.227A1.228,1.228,0,0,0,119,8.232V37.071a1.228,1.228,0,0,0,1.228,1.228h24.048a1.228,1.228,0,0,0,1.2-1.228V15.405Zm-1.368-.377h-6.656V8.372l1.826,1.841Zm.165,22.468H120.227a.421.421,0,0,1-.425-.425V8.232a.421.421,0,0,1,.425-.425h16.161a1.134,1.134,0,0,1,.265.032v7.591a.4.4,0,0,0,.4.4h7.623V37.07a.421.421,0,0,1-.4.425ZM132.339,23.052a.4.4,0,0,0-.4.4v1.023a5.312,5.312,0,1,0,5.7,5.7h1.023a.4.4,0,0,0,.4-.4,6.724,6.724,0,0,0-6.72-6.72Zm0,11.234a4.514,4.514,0,0,1-.4-9.007v4.493a.4.4,0,0,0,.4.4h4.493a4.518,4.518,0,0,1-4.493,4.112Zm.4-4.915V23.855a5.933,5.933,0,0,1,5.517,5.517ZM121.808,11.417a.4.4,0,0,1,.4-.4h11.234a.4.4,0,1,1,0,.8H122.209A.4.4,0,0,1,121.808,11.417Zm0,3.611a.4.4,0,0,1,.4-.4h11.234a.4.4,0,1,1,0,.8H122.209A.4.4,0,0,1,121.808,15.028Zm21.264,3.611a.4.4,0,0,1-.4.4H122.209a.4.4,0,0,1,0-.8H142.67a.4.4,0,0,1,.4.4Z" transform="translate(287.501 569.496)" fill="#353990" stroke="#353990" stroke-width="0.8"/>
  </g>
</svg>
