<svg xmlns="http://www.w3.org/2000/svg" width="60" height="60" viewBox="0 0 60 60">
  <g id="icon" transform="translate(-390 -562)">
    <circle id="타원_1110" data-name="타원 1110" cx="30" cy="30" r="30" transform="translate(390 562)" fill="#f4f4f9"/>
    <g id="그룹_3719" data-name="그룹 3719" transform="translate(594.555 244)">
      <path id="패스_63805" data-name="패스 63805" d="M164.364,14h-16.11a2.525,2.525,0,0,0-2.278,2.709V43.332a2.525,2.525,0,0,0,2.278,2.709h16.11a2.525,2.525,0,0,0,2.278-2.709V16.709A2.525,2.525,0,0,0,164.364,14Zm.86,29.332a.953.953,0,0,1-.86,1.023h-16.11a.953.953,0,0,1-.86-1.023V40.91h17.831Zm0-4.109H147.394V16.71a.953.953,0,0,1,.86-1.023h16.11a.953.953,0,0,1,.86,1.023Z" transform="translate(-330.531 318)" fill="#353990"/>
      <path id="패스_63806" data-name="패스 63806" d="M336.211,75.342a.964.964,0,0,0,0,1.194.635.635,0,0,0,1,0,.964.964,0,0,0,0-1.194A.653.653,0,0,0,336.211,75.342Z" transform="translate(-510.935 260.574)" fill="#353990"/>
      <path id="패스_63807" data-name="패스 63807" d="M312.7,477.086h2.432a.856.856,0,0,0,0-1.686H312.7a.856.856,0,0,0,0,1.686Z" transform="translate(-488.137 -115.611)" fill="#353990"/>
    </g>
  </g>
</svg>
