<svg id="logologin" xmlns="http://www.w3.org/2000/svg" xmlns:xlink="http://www.w3.org/1999/xlink" width="234.87" height="34.958" viewBox="0 0 234.87 34.958">
  <defs>
    <clipPath id="clip-path">
      <rect id="사각형_63" data-name="사각형 63" width="234.87" height="34.958" fill="none"/>
    </clipPath>
  </defs>
  <g id="그룹_263" data-name="그룹 263" clip-path="url(#clip-path)">
    <path id="패스_86" data-name="패스 86" d="M289.424,17.482c0,10.026-9.737,17.476-21.514,17.476-11.762,0-21.479-7.451-21.479-17.476S256.147,0,267.91,0c11.777,0,21.514,7.463,21.514,17.482" transform="translate(-54.553 0)" fill="#fff"/>
    <path id="패스_87" data-name="패스 87" d="M288.744,17.718c0,9.552-9.35,16.649-20.565,16.649-11.2,0-20.531-7.1-20.531-16.649S256.98,1.066,268.179,1.066c11.215,0,20.565,7.114,20.565,16.652" transform="translate(-54.822 -0.236)" fill="#0054a4"/>
    <path id="패스_88" data-name="패스 88" d="M270.571,24.679a12.629,12.629,0,0,1,10.513,5.607,4.361,4.361,0,0,1,.384.6.121.121,0,0,0,.012.022h.471a92.177,92.177,0,0,0,0-23.624l-.1,0h-.375a.343.343,0,0,1-.024.04,3.692,3.692,0,0,1-.208.329,12.652,12.652,0,0,1-21.312.039,3.855,3.855,0,0,1-.262-.408h-.464a90.476,90.476,0,0,0-.758,11.808,90.008,90.008,0,0,0,.76,11.813h.464A3.716,3.716,0,0,1,260,30.4a12.653,12.653,0,0,1,10.571-5.722" transform="translate(-57.214 -1.613)" fill="#89ba40"/>
    <path id="패스_89" data-name="패스 89" d="M282,30.963h-.575l-.045-.061a4.432,4.432,0,0,0-.378-.591,12.564,12.564,0,0,0-20.957.111,3.649,3.649,0,0,0-.322.5l-.022.04h-.579l-.009-.068a90.473,90.473,0,0,1-.76-11.823,91.036,91.036,0,0,1,.758-11.818l.009-.068h.578l.022.04a3.906,3.906,0,0,0,.257.4,12.512,12.512,0,0,0,10.572,5.78A12.475,12.475,0,0,0,281.16,7.591a3.746,3.746,0,0,0,.206-.325.287.287,0,0,0,.02-.033l.02-.046L282,7.181l.009.07a92.421,92.421,0,0,1,0,23.644Zm-.494-.155h.357a92.089,92.089,0,0,0,0-23.467H281.5a3.776,3.776,0,0,1-.213.337,12.629,12.629,0,0,1-10.74,5.883,12.663,12.663,0,0,1-10.7-5.848,3.514,3.514,0,0,1-.242-.372h-.35a90.7,90.7,0,0,0-.75,11.731,90.281,90.281,0,0,0,.751,11.736h.349a3.751,3.751,0,0,1,.308-.476,12.72,12.72,0,0,1,21.211-.111,4.45,4.45,0,0,1,.378.587" transform="translate(-57.192 -1.59)" fill="#0054a4"/>
    <path id="패스_90" data-name="패스 90" d="M229.517,21.936l4.043-6.014h-4.679l-3.588,5.286h-.041l2.311-11.751h-4.488l-3.831,19.777h4.49l1.338-7.055h.039l2.242,7.086h4.263Z" transform="translate(-48.534 -2.094)" fill="#0054a4"/>
    <path id="패스_91" data-name="패스 91" d="M203.616,17.67h4.378l-.187,1.6h.208a4.114,4.114,0,0,1,3.466-1.914c1.868,0,3.028,1.046,2.5,3.836l-1.932,9.8h-4.485l1.842-9.3c.145-.788-.048-1.224-.59-1.224a1.489,1.489,0,0,0-1.458,1.179l-1.843,9.348h-4.481Z" transform="translate(-44.504 -3.842)" fill="#0054a4"/>
    <path id="패스_92" data-name="패스 92" d="M190.961,26c-.16.861-.552,2.6-1.525,2.6-.717,0-.8-.582-.76-1.225a7.239,7.239,0,0,1,.308-1.593c.242-.98.959-2.17,1.971-2.139l.515-.047Zm.874-4.366H191.3c-3.542-.009-5.227,1.229-6.11,2.987a8.02,8.02,0,0,0-.751,3.037c-.191,2.112.749,3.579,2.837,3.637a3.579,3.579,0,0,0,2.892-1.326l-.074,1.014h4.109l1.9-9.622c.449-2.447-.744-4.012-4.31-4.012-2.353,0-4.659.554-5.539,3.438h3.963c.161-.733.549-1.08,1.11-1.08.631,0,.816.3.714.836Z" transform="translate(-40.825 -3.841)" fill="#0054a4"/>
    <path id="패스_93" data-name="패스 93" d="M148.9,15.922h4.5l-2.6,13.315h-4.5Zm1.2-6.466h4.473l-.791,4.244H149.3Z" transform="translate(-32.387 -2.094)" fill="#0054a4"/>
    <path id="패스_94" data-name="패스 94" d="M160.091,9.456h4.486l-3.848,19.78h-4.476Z" transform="translate(-34.59 -2.094)" fill="#0054a4"/>
    <path id="패스_95" data-name="패스 95" d="M171.821,23.977c.181-.927.768-3.983.925-4.426.226-.612.567-1.046,1.187-.972,1.362.167.491,3.486.121,5.151-.366,1.608-.98,2.629-1.7,2.629a.722.722,0,0,1-.765-.614,6.257,6.257,0,0,1,.228-1.769m-5.5,5.259h4.229l.3-1.218a2.627,2.627,0,0,0,2.6,1.53c2.266,0,4.655-.864,5.679-8.495.529-4.013-.628-5.572-2.949-5.572a4.122,4.122,0,0,0-2.958,1.405l1.411-7.431h-4.514Z" transform="translate(-36.818 -2.094)" fill="#0054a4"/>
    <path id="패스_96" data-name="패스 96" d="M135.824,8.848h0c-3.567-.269-5.5.922-6.836,4.048-1.064,2.481-1.546,6.287-2.045,9.076-.776,4.416.512,7.318,4.954,7.527,3.658.185,5.743-.858,7.078-3.983,1.046-2.488,1.545-6.29,2.043-9.078.761-4.434-.742-7.508-5.194-7.589m.114,8.536c-.193,1.141-1.224,6.48-1.484,7.346-.447,1.437-.892,1.963-1.743,1.982-.094,0-.179,0-.262-.007-1.686-.086-1.114-1.429-.4-5.483l0,0c.2-1.139,1.265-6.457,1.513-7.335.423-1.451.894-1.963,1.725-1.98h.008c2.009-.04,1.425,1.214.641,5.478Z" transform="translate(-28.054 -1.951)" fill="#0054a4"/>
    <path id="패스_97" data-name="패스 97" d="M48.238,31.075H43.861l.19-1.6h-.033a4.388,4.388,0,0,1-3.644,1.91c-1.87,0-3.023-1.052-2.5-3.832L39.8,17.762h4.485l-1.841,9.306a.953.953,0,0,0,.938,1.212c.491,0,.946-.332,1.107-1.17l1.839-9.347h4.492Z" transform="translate(-8.356 -3.932)" fill="#0054a4"/>
    <path id="패스_98" data-name="패스 98" d="M57.87,17.673h4.377l-.181,1.595h.206a4.109,4.109,0,0,1,3.455-1.912c1.883,0,3.029,1.047,2.5,3.836l-1.908,9.794h-4.49l1.83-9.305c.146-.786-.051-1.218-.586-1.218a1.482,1.482,0,0,0-1.448,1.18l-1.854,9.343H55.279Z" transform="translate(-12.237 -3.842)" fill="#0054a4"/>
    <path id="패스_99" data-name="패스 99" d="M81.3,21.182a37.491,37.491,0,0,1-1.087,4.859c-.152.335-.311.758-1.206.521-1.148-.28-.339-3.722,0-5.283.377-1.649.9-2.619,1.567-2.7.461-.051.941.164.941,1.1a7.523,7.523,0,0,1-.22,1.5m-1.342,8.055h4.23L88.016,9.458H83.537l-1.432,7.43a3.1,3.1,0,0,0-2.683-1.282c-2.161-.077-3.934,1.319-4.951,5.454-.923,3.837-.952,8.039,2.123,8.433a3.35,3.35,0,0,0,3.519-1.471Z" transform="translate(-16.365 -2.094)" fill="#0054a4"/>
    <path id="패스_100" data-name="패스 100" d="M97.459,26c-.152.86-.566,2.6-1.546,2.6-.709,0-.791-.582-.754-1.225a6.91,6.91,0,0,1,.306-1.592c.232-.98.969-2.168,1.985-2.137l.5-.045Zm.871-4.363h-.557c-3.531-.012-5.207,1.225-6.1,2.984a8.4,8.4,0,0,0-.745,3.035c-.211,2.112.74,3.58,2.833,3.637a3.579,3.579,0,0,0,2.891-1.325l-.069,1.012h4.107l1.9-9.622c.451-2.446-.736-4.012-4.3-4.012-2.369,0-4.669.555-5.545,3.437h3.952c.163-.729.578-1.079,1.115-1.079.638,0,.814.3.717.836Z" transform="translate(-20.122 -3.841)" fill="#0054a4"/>
    <path id="패스_101" data-name="패스 101" d="M109.755,15.925h4.485l-2.6,13.312h-4.475Zm1.262-6.467h4.474l-.849,4.249h-4.463Z" transform="translate(-23.722 -2.094)" fill="#0054a4"/>
    <path id="패스_102" data-name="패스 102" d="M23.546,31.087l-1.32-13.324h4.289l-.06,9.123,3.312-9.123h4.481l-8.863,18.5H20.953Z" transform="translate(-4.638 -3.933)" fill="#0054a4"/>
    <path id="패스_103" data-name="패스 103" d="M12.333,9.475l-1.382,7.043H7.225L8.6,9.475H3.871L0,29.232H4.727L6.562,19.87H10.3L8.461,29.232H13.2L17.063,9.475Z" transform="translate(0 -2.098)" fill="#0054a4"/>
  </g>
</svg>
