<svg xmlns="http://www.w3.org/2000/svg" width="18" height="18" viewBox="0 0 18 18">
  <g id="icon" transform="translate(-1733 -678)">
    <rect id="area" width="18" height="18" transform="translate(1733 678)" fill="none"/>
    <path id="icon-2" data-name="icon" d="M503,1636.4l1.988,1.185a1.129,1.129,0,0,1,.529,1.191h0a3.4,3.4,0,0,1-4.211,2.639,13.121,13.121,0,0,1-9.187-9.182,3.406,3.406,0,0,1,2.638-4.214l.013,0a1.13,1.13,0,0,1,1.194.532l1.176,1.985a1.542,1.542,0,0,1-.473,2.07l-1.25.831a8.725,8.725,0,0,0,4.672,4.683l.839-1.252A1.543,1.543,0,0,1,503,1636.4Z" transform="translate(1243.23 -947.77)" fill="#999"/>
  </g>
</svg>
