<svg xmlns="http://www.w3.org/2000/svg" xmlns:xlink="http://www.w3.org/1999/xlink" width="40.163" height="39.702" viewBox="0 0 40.163 39.702">
  <defs>
    <linearGradient id="linear-gradient" x1="0.245" y1="0.576" x2="0.988" y2="0.119" gradientUnits="objectBoundingBox">
      <stop offset="0" stop-color="#282b2d"/>
      <stop offset="1"/>
    </linearGradient>
    <linearGradient id="linear-gradient-2" x1="0.209" y1="1.124" x2="0.79" y2="-0.162" gradientUnits="objectBoundingBox">
      <stop offset="0" stop-color="#f5eb34"/>
      <stop offset="1" stop-color="#f89a1c"/>
    </linearGradient>
    <linearGradient id="linear-gradient-3" y1="0.5" x2="1" y2="0.5" gradientUnits="objectBoundingBox">
      <stop offset="0" stop-color="#323638"/>
      <stop offset="1" stop-color="#39393e"/>
    </linearGradient>
    <linearGradient id="linear-gradient-4" x1="0.175" y1="0.721" x2="0.693" y2="0.342" gradientUnits="objectBoundingBox">
      <stop offset="0" stop-color="#575c5d"/>
      <stop offset="1" stop-color="#39393e"/>
    </linearGradient>
    <linearGradient id="linear-gradient-5" x1="0.336" y1="0.324" x2="1.399" y2="1.111" xlink:href="#linear-gradient-2"/>
  </defs>
  <g id="icon" transform="translate(-522.954 -407)">
    <rect id="area" width="38" height="38" transform="translate(525 407)" fill="none"/>
    <g id="icon-2" data-name="icon" transform="translate(-2899.243 -2622.755)">
      <ellipse id="타원_2170" data-name="타원 2170" cx="13.791" cy="4.757" rx="13.791" ry="4.757" transform="matrix(1, 0.017, -0.017, 1, 3428.573, 3053.255)" opacity="0.6"/>
      <path id="패스_17037" data-name="패스 17037" d="M3487.614,3123.593s.1,6.451-.614,14.028c0,0,3.481,3.686,10.751,3.686,8.192,0,11.571-3.686,11.571-3.686a88.984,88.984,0,0,1-1.126-12.9Z" transform="translate(-55.882 -79.912)" fill="url(#linear-gradient)"/>
      <path id="패스_17038" data-name="패스 17038" d="M3498.426,3235.291q.754.07,1.491.069a21.288,21.288,0,0,0,10.833-3.334c-.034-.234-.069-.494-.107-.776-2.836,1.772-7.242,3.784-12.151,3.327a17.471,17.471,0,0,1-9.575-4.128q-.03.433-.065.874A18.09,18.09,0,0,0,3498.426,3235.291Z" transform="translate(-57.545 -175.826)" fill="#575e61"/>
      <path id="패스_17039" data-name="패스 17039" d="M3661.813,3204.322a4.958,4.958,0,0,0-.727,5.775c1.592,2.818,5.521,2.039,6.715,4.5,0,0,2.121-3.731,1.456-6.467-.744-3.065-4.028-4.378-6.7-4.614Z" transform="translate(-211.561 -151.652)" fill="url(#linear-gradient-2)"/>
      <path id="패스_17040" data-name="패스 17040" d="M3678.129,3215.174c.055-.121.094-.167.154-.306a3.469,3.469,0,0,0-.356-.615,6.667,6.667,0,0,0-.44-5.716,8.486,8.486,0,0,0-4.442-3.251c-.187-.063-.268.233-.082.3a8.349,8.349,0,0,1,4.363,3.074,6.63,6.63,0,0,1,.444,5.417,6.778,6.778,0,0,0-.644-.668.171.171,0,0,0,.01-.038,3.482,3.482,0,0,0-.424-1.854,4.932,4.932,0,0,0-1.5-1.735,6.661,6.661,0,0,1-1.714-1.862,8.318,8.318,0,0,1-.692-2.423c-.038-.194-.334-.112-.3.082a10.043,10.043,0,0,0,.614,2.188,4.843,4.843,0,0,0,1.286,1.637,9.8,9.8,0,0,1,1.848,1.726,3.819,3.819,0,0,1,.69,2.144,9.917,9.917,0,0,0-2.036-1.153c-1.188-.481-2.4-.973-2.925-2.243a4.791,4.791,0,0,1,.357-3.939c.093-.174-.172-.33-.265-.155-1.05,1.963-.96,4.65,1.108,5.885.921.55,1.987.791,2.895,1.368A4.567,4.567,0,0,1,3678.129,3215.174Z" transform="translate(-221.415 -153.232)" fill="#6d281e" opacity="0.2"/>
      <path id="패스_17041" data-name="패스 17041" d="M3424.921,3102.312a2.284,2.284,0,0,0,.165,2.065s13.792,8.01,15.526,8.919c0,0,14.7-6.194,20.811-8.176,0,0,.661-1.239.083-1.9Z" transform="translate(0 -60.81)" fill="url(#linear-gradient-3)"/>
      <path id="패스_17042" data-name="패스 17042" d="M3426.485,3041.5s8.424,4.873,15.856,9.084c0,0,13.3-5.45,20.728-8.176,0,0-12.222-5.946-16.434-7.845A106.4,106.4,0,0,0,3426.485,3041.5Z" transform="translate(-1.564)" fill="url(#linear-gradient-4)"/>
      <path id="패스_17043" data-name="패스 17043" d="M3599.483,3093.564s6.83,4.179,7.242,5.913a22.765,22.765,0,0,1,.248,4.873l1.073-.083s.156-3.99-.423-5.34c-.838-1.956-7.369-5.98-7.369-5.98Z" transform="translate(-156.847 -52.404)" fill="url(#linear-gradient-5)"/>
      <ellipse id="타원_2168" data-name="타원 2168" cx="2.065" cy="1.13" rx="2.065" ry="1.13" transform="translate(3440.702 3040.035)" fill="#323638"/>
      <path id="패스_17044" data-name="패스 17044" d="M3670.932,3195.5a1.376,1.376,0,1,1-1.637-.623A1.25,1.25,0,0,1,3670.932,3195.5Z" transform="translate(-218.638 -143.821)" fill="#f6d92f"/>
      <ellipse id="타원_2169" data-name="타원 2169" cx="2.065" cy="1.28" rx="2.065" ry="1.28" transform="translate(3440.655 3039.116)" fill="#646a6b"/>
      <path id="패스_17045" data-name="패스 17045" d="M3582.687,3081.831c-1.14,0-2.064-.573-2.064-1.28,0-.479.425-.9,1.053-1.115-.885.145-1.538.643-1.538,1.236,0,.707.924,1.28,2.064,1.28a3.081,3.081,0,0,0,1.011-.165A3.255,3.255,0,0,1,3582.687,3081.831Z" transform="translate(-139.483 -40.277)" fill="#97a3a8" opacity="0.5"/>
    </g>
  </g>
</svg>
