<svg xmlns="http://www.w3.org/2000/svg" width="16" height="11.005" viewBox="0 0 16 11.005">
  <path id="Icon_ionic-ios-arrow-round-back" data-name="Icon ionic-ios-arrow-round-back" d="M18.086,11.462a.766.766,0,0,0-.006,1.055l3.373,3.49H8.6a.746.746,0,0,0,0,1.49H21.453l-3.379,3.49a.771.771,0,0,0,.006,1.055.7.7,0,0,0,1.017-.006l4.579-4.757h0a.839.839,0,0,0,.15-.235.73.73,0,0,0,.056-.287.759.759,0,0,0-.206-.522L19.1,11.48A.693.693,0,0,0,18.086,11.462Z" transform="translate(-7.882 -11.252)"/>
</svg>
