<svg xmlns="http://www.w3.org/2000/svg" width="21.008" height="27.241" viewBox="0 0 21.008 27.241">
  <g id="그룹_18971" data-name="그룹 18971" transform="translate(-721.414 -312.9)">
    <g id="패스_16454" data-name="패스 16454" transform="translate(505.25 150.096)" fill="#ddd">
      <path d="M 225.0298614501953 176.3857574462891 L 224.9969940185547 176.3857574462891 C 224.4944915771484 176.3857574462891 224.0385437011719 176.0545654296875 223.8624267578125 175.5616149902344 L 222.7429351806641 172.2359619140625 C 222.7164306640625 172.1857299804688 222.667724609375 172.1677093505859 222.6574096679688 172.1676635742188 C 222.6279754638672 172.1676635742188 222.5946350097656 172.1676635742188 222.5731506347656 172.2322692871094 L 222.0125122070312 173.7823638916016 C 221.8409729003906 174.2627105712891 221.3956451416016 174.5732269287109 220.8780364990234 174.5732269287109 L 219.4611206054688 174.5732269287109 C 219.1712188720703 174.5732269287109 218.9169158935547 174.3189086914062 218.9169158935547 174.0290069580078 C 218.9169158935547 173.7390899658203 219.1712188720703 173.4847869873047 219.4611206054688 173.4847869873047 L 220.8780364990234 173.4847869873047 C 220.9138641357422 173.4847869873047 220.9339141845703 173.4751892089844 220.9637145996094 173.4162139892578 L 221.5229034423828 171.8701019287109 C 221.6944732666016 171.3897399902344 222.1398162841797 171.0792236328125 222.6574096679688 171.0792236328125 C 223.1478271484375 171.0792236328125 223.5802764892578 171.4027099609375 223.7591400146484 171.9033660888672 L 224.8798370361328 175.2325286865234 L 224.8824462890625 175.2402801513672 L 224.8824462890625 175.2484741210938 C 224.8824462890625 175.2843170166016 224.9313049316406 175.2973175048828 224.9641571044922 175.2973175048828 C 224.9995422363281 175.2973175048828 225.0195465087891 175.2879333496094 225.0487518310547 175.2308502197266 L 225.5087432861328 173.4236297607422 C 225.6423034667969 172.9233551025391 226.0842132568359 172.5641784667969 226.6085357666016 172.5293273925781 C 226.6346588134766 172.527587890625 226.66064453125 172.5267181396484 226.6865539550781 172.5267181396484 C 227.1776428222656 172.5267181396484 227.6167907714844 172.8323974609375 227.7793273925781 173.2873687744141 C 227.7987518310547 173.3453521728516 227.8497161865234 173.3530426025391 227.8970489501953 173.3530426025391 C 227.9264831542969 173.3530426025391 227.9598388671875 173.3530426025391 227.9813385009766 173.2884063720703 L 229.1667633056641 168.8096618652344 C 229.3295440673828 168.25634765625 229.7733154296875 167.9134521484375 230.3252258300781 167.9134521484375 C 230.3513641357422 167.9134521484375 230.3777923583984 167.9142303466797 230.4043884277344 167.9157867431641 C 230.9945068359375 167.95068359375 231.4371032714844 168.3657073974609 231.5057525634766 168.9485168457031 L 232.0647735595703 173.3549346923828 C 232.0947570800781 173.4098510742188 232.1447296142578 173.4518737792969 232.1811065673828 173.4518737792969 L 233.8617095947266 173.4518737792969 C 233.9926300048828 173.4518890380859 234.1220397949219 173.5093231201172 234.2261199951172 173.6136016845703 C 234.3388061523438 173.7265014648438 234.4059143066406 173.8819122314453 234.4056549072266 174.0293121337891 C 234.4056549072266 174.3191375732422 234.1513519287109 174.5734252929688 233.8614501953125 174.5734252929688 L 232.1808471679688 174.5734252929688 C 231.5929718017578 174.5734252929688 231.0790252685547 174.1197662353516 231.0108032226562 173.5406188964844 L 230.45068359375 169.0921173095703 L 230.4502868652344 169.0890045166016 L 230.4502868652344 169.0858612060547 C 230.4502868652344 169.0411376953125 230.4441375732422 169.0041351318359 230.3685607910156 169.0041351318359 L 230.3624267578125 169.0041351318359 L 230.3564758300781 169.0026550292969 C 230.3428497314453 168.9992523193359 230.3302459716797 168.9975280761719 230.3190155029297 168.9975280761719 C 230.2577362060547 168.9975280761719 230.2537536621094 169.0524291992188 230.2537536621094 169.052978515625 L 230.2537231445312 169.0594177246094 L 230.2520904541016 169.0657653808594 L 229.0657501220703 173.5475158691406 C 228.9323120117188 174.0473175048828 228.4904022216797 174.4064788818359 227.966064453125 174.4413452148438 C 227.9399566650391 174.4430999755859 227.9139709472656 174.4439544677734 227.8880615234375 174.4439544677734 C 227.3969879150391 174.4439544677734 226.9578399658203 174.1382751464844 226.7952880859375 173.6833190917969 C 226.7741394042969 173.6201171875 226.7456665039062 173.6176452636719 226.6775665283203 173.6176452636719 C 226.6481323242188 173.6176452636719 226.6147918701172 173.6176452636719 226.5932922363281 173.6822662353516 L 226.1329498291016 175.4913482666016 C 225.9923095703125 176.0181884765625 225.5387573242188 176.3857574462891 225.0298614501953 176.3857574462891 Z" stroke="none"/>
      <path d="M 225.0298614501953 176.3357543945312 C 225.5240783691406 176.3357543945312 225.9525604248047 175.9732513427734 226.0845031738281 175.4790191650391 L 226.5458526611328 173.6664886474609 C 226.5787200927734 173.5676422119141 226.6446990966797 173.5676422119141 226.6775665283203 173.5676422119141 C 226.7435455322266 173.5676422119141 226.8092956542969 173.5676422119141 226.8423767089844 173.6664886474609 C 227.0071868896484 174.1278076171875 227.4682006835938 174.4241943359375 227.9627532958984 174.3914642333984 C 228.4569702148438 174.3585968017578 228.8854675292969 174.0289611816406 229.0174102783203 173.5347290039062 L 230.2037506103516 169.052978515625 C 230.2037506103516 169.0201110839844 230.2366027832031 168.9213104248047 230.3685607910156 168.9541320800781 C 230.5002899169922 168.9541320800781 230.5002899169922 169.052978515625 230.5002899169922 169.0858612060547 L 231.0604705810547 173.5347595214844 C 231.1264495849609 174.0949554443359 231.6206512451172 174.5234375 232.1808471679688 174.5234375 L 233.8614501953125 174.5234375 C 234.1251068115234 174.5234375 234.3556518554688 174.2926483154297 234.3556518554688 174.0292205810547 C 234.3561248779297 173.7655487060547 234.1253204345703 173.5019073486328 233.8616790771484 173.5019073486328 L 233.8617095947266 173.5018768310547 L 232.1811065673828 173.5018768310547 C 232.1151428222656 173.5018768310547 232.0493927001953 173.4358978271484 232.0162963867188 173.3701477050781 L 231.4561004638672 168.9543762207031 C 231.3901214599609 168.3941955566406 230.9618835449219 167.9988403320312 230.4014587402344 167.9656982421875 C 229.8412780761719 167.9329376220703 229.3799285888672 168.2622375488281 229.2151031494141 168.8224487304688 L 228.0287780761719 173.3041839599609 C 227.9958953857422 173.4030456542969 227.9299163818359 173.4030456542969 227.8970489501953 173.4030456542969 C 227.8641815185547 173.4030456542969 227.7653350830078 173.4030456542969 227.7322387695312 173.3041839599609 C 227.5674438476562 172.8428497314453 227.1060028076172 172.5462646484375 226.6118621826172 172.5792083740234 C 226.1176452636719 172.6120758056641 225.6891479492188 172.9417114257812 225.5572052001953 173.4359588623047 L 225.0958709716797 175.2484741210938 C 225.0630035400391 175.314453125 225.0298919677734 175.3473205566406 224.9641571044922 175.3473205566406 C 224.8981781005859 175.3473205566406 224.8324432373047 175.314453125 224.8324432373047 175.2484741210938 L 223.7120513916016 171.9201812744141 C 223.5472412109375 171.4588470458984 223.1518707275391 171.1292266845703 222.6574096679688 171.1292266845703 C 222.1632080078125 171.1292266845703 221.7346954345703 171.4257659912109 221.5699310302734 171.8871154785156 L 221.0097351074219 173.4359588623047 C 220.9768829345703 173.5019226074219 220.9437713623047 173.5347900390625 220.8780364990234 173.5347900390625 L 219.4611206054688 173.5347900390625 C 219.1974639892578 173.5347900390625 218.9669189453125 173.7655792236328 218.9669189453125 174.0290069580078 C 218.9669189453125 174.2926788330078 219.1977081298828 174.5232238769531 219.4611206054688 174.5232238769531 L 220.8780364990234 174.5232238769531 C 221.3722381591797 174.5232238769531 221.8007507324219 174.2266845703125 221.9654998779297 173.7653503417969 L 222.5256958007812 172.2165069580078 C 222.5585632324219 172.1176605224609 222.6245422363281 172.1176605224609 222.6574096679688 172.1176605224609 C 222.6902770996094 172.1176605224609 222.7562561035156 172.1505279541016 222.7891387939453 172.2165069580078 L 223.9095001220703 175.5447998046875 C 224.0743255615234 176.0061340332031 224.5025634765625 176.3357543945312 224.9969940185547 176.3357543945312 L 225.0298614501953 176.3357543945312 M 225.0298614501953 176.4357452392578 L 224.9969940185547 176.4357452392578 C 224.4734191894531 176.4357452392578 223.99853515625 176.0912322998047 223.8153228759766 175.5784454345703 L 222.6970062255859 172.2562408447266 C 222.6835174560547 172.2330627441406 222.6618804931641 172.2207183837891 222.6528015136719 172.2176666259766 C 222.6328430175781 172.2178039550781 222.6300201416016 172.2197113037109 222.6205902099609 172.248046875 L 222.0595397949219 173.7993621826172 C 221.880859375 174.2996978759766 221.4170379638672 174.6232299804688 220.8780364990234 174.6232299804688 L 219.4611206054688 174.6232299804688 C 219.1445770263672 174.6232299804688 218.8669128417969 174.3455505371094 218.8669128417969 174.0290069580078 C 218.8669128417969 173.7124633789062 219.1445770263672 173.4347991943359 219.4611206054688 173.4347991943359 L 220.8780364990234 173.4347991943359 C 220.8919982910156 173.4347991943359 220.8981018066406 173.4347991943359 220.9177398681641 173.3963165283203 L 221.4758911132812 171.8531036376953 C 221.6545867919922 171.3527679443359 222.118408203125 171.0292205810547 222.6574096679688 171.0292205810547 C 223.1692352294922 171.0292205810547 223.6201629638672 171.3657379150391 223.8062133789062 171.8865356445312 L 224.9324340820312 175.2320861816406 L 224.9324340820312 175.2413482666016 C 224.9383544921875 175.2440948486328 224.9494323730469 175.2473297119141 224.9641571044922 175.2473297119141 C 224.9776000976562 175.2473297119141 224.9837646484375 175.247314453125 225.001708984375 175.2130126953125 L 225.4602966308594 173.4112854003906 C 225.5995178222656 172.8897552490234 226.0595092773438 172.5157165527344 226.605224609375 172.4794311523438 C 227.1489715576172 172.4430999755859 227.6478424072266 172.7707061767578 227.826416015625 173.2705383300781 C 227.8328704833984 173.2897796630859 227.8417053222656 173.3030395507812 227.8970489501953 173.3030395507812 C 227.9204711914062 173.3030395507812 227.923583984375 173.3030395507812 227.9329376220703 173.2754364013672 L 229.1184234619141 168.7968597412109 C 229.2960968017578 168.1929321289062 229.7945556640625 167.8298645019531 230.4073028564453 167.8658752441406 C 231.0224761962891 167.9022521972656 231.4838409423828 168.3349761962891 231.5554046630859 168.9426727294922 L 232.1131134033203 173.3387145996094 C 232.1367645263672 173.3778381347656 232.1692810058594 173.4016265869141 232.1811218261719 173.4018707275391 L 233.8617095947266 173.4018707275391 C 234.0060119628906 173.4018859863281 234.1479949951172 173.4645385742188 234.2615051269531 173.5782775878906 C 234.3851776123047 173.7021942138672 234.4559478759766 173.8666229248047 234.4556427001953 174.0294036865234 C 234.4556427001953 174.3457641601562 234.1779937744141 174.6234283447266 233.8614501953125 174.6234283447266 L 232.1808471679688 174.6234283447266 C 231.5680389404297 174.6234283447266 231.0322875976562 174.1503753662109 230.9611663818359 173.5464630126953 L 230.4002838134766 169.0858612060547 C 230.4002838134766 169.0802459716797 230.4002838134766 169.0632934570312 230.3971252441406 169.0575103759766 C 230.3968200683594 169.057861328125 230.3887634277344 169.0541381835938 230.3685607910156 169.0541381835938 L 230.3562927246094 169.0541381835938 L 230.3443756103516 169.0511627197266 C 230.334716796875 169.0487518310547 230.326171875 169.0475311279297 230.3190155029297 169.0475311279297 C 230.3101959228516 169.0475311279297 230.3053283691406 169.0475311279297 230.303466796875 169.0575866699219 L 230.303466796875 169.0706024169922 L 230.3004150390625 169.0785675048828 L 229.1140747070312 173.5603179931641 C 228.97509765625 174.0809173583984 228.5151062011719 174.4549407958984 227.9693908691406 174.4912414550781 C 227.4254455566406 174.5276794433594 226.9267883300781 174.1999664306641 226.7482147216797 173.7001342773438 C 226.7373046875 173.6676483154297 226.7373046875 173.6676483154297 226.6775665283203 173.6676483154297 C 226.6542816162109 173.6676483154297 226.6510620117188 173.6676483154297 226.641845703125 173.6947479248047 L 226.1814117431641 175.5036926269531 C 226.0347900390625 176.0529327392578 225.5613861083984 176.4357452392578 225.0298614501953 176.4357452392578 Z" stroke="none" fill="#ddd"/>
    </g>
    <g id="패스_16457" data-name="패스 16457" transform="translate(504.728 -127.165)" fill="#ddd">
      <path d="M 234.3837280273438 463.5984497070312 L 220.0157775878906 463.5984497070312 C 219.7258758544922 463.5984497070312 219.4715728759766 463.3441467285156 219.4715728759766 463.0542297363281 C 219.4715728759766 462.7643432617188 219.7258758544922 462.5100402832031 220.0157775878906 462.5100402832031 L 234.3837280273438 462.5100402832031 C 234.6736450195312 462.5101928710938 234.9279327392578 462.764404296875 234.9279327392578 463.0542297363281 C 234.9279327392578 463.3441467285156 234.6736297607422 463.5984497070312 234.3837280273438 463.5984497070312 Z" stroke="none"/>
      <path d="M 220.0157775878906 462.5600280761719 C 219.7521362304688 462.5600280761719 219.5215759277344 462.7908020019531 219.5215759277344 463.0542297363281 C 219.5215759277344 463.31787109375 219.7523803710938 463.5484619140625 220.0157775878906 463.5484619140625 L 234.3837280273438 463.5484619140625 C 234.6473999023438 463.5484619140625 234.8779296875 463.3176574707031 234.8779296875 463.0542297363281 C 234.8779296875 462.7908020019531 234.6471557617188 462.5600280761719 234.3834838867188 462.5600280761719 L 234.3837280273438 462.5600280761719 L 220.0157775878906 462.5600280761719 M 234.3834838867188 462.5600280761719 L 234.3837280273438 462.5600280761719 L 234.3834838867188 462.5600280761719 M 234.3837280273438 462.5600280761719 L 234.3834838867188 462.5600280761719 M 220.0157775878906 462.4600219726562 L 234.3837280273438 462.4600219726562 L 234.3834838867188 462.4600219726562 L 234.3837280273438 462.4600219726562 C 234.7002563476562 462.4600219726562 234.9779357910156 462.7377014160156 234.9779357910156 463.0542297363281 C 234.9779357910156 463.3707885742188 234.7002563476562 463.6484680175781 234.3837280273438 463.6484680175781 L 220.0157775878906 463.6484680175781 C 219.6992340087891 463.6484680175781 219.4215698242188 463.3707885742188 219.4215698242188 463.0542297363281 C 219.4215698242188 462.7377014160156 219.6992340087891 462.4600219726562 220.0157775878906 462.4600219726562 Z" stroke="none" fill="#ddd"/>
    </g>
    <g id="패스_16458" data-name="패스 16458" transform="translate(504.728 -90.272)" fill="#ddd">
      <path d="M 234.3837280273438 424.3984069824219 L 220.0157775878906 424.3984069824219 C 219.7258758544922 424.3984069824219 219.4715728759766 424.1441040039062 219.4715728759766 423.8542175292969 C 219.4715728759766 423.5643005371094 219.7258758544922 423.3099975585938 220.0157775878906 423.3099975585938 L 234.3837280273438 423.3099975585938 C 234.6736450195312 423.3101501464844 234.9279327392578 423.5643920898438 234.9279327392578 423.8542175292969 C 234.9279327392578 424.1441040039062 234.6736297607422 424.3984069824219 234.3837280273438 424.3984069824219 Z" stroke="none"/>
      <path d="M 220.0157775878906 423.3599853515625 C 219.7521362304688 423.3599853515625 219.5215759277344 423.5907897949219 219.5215759277344 423.8542175292969 C 219.5215759277344 424.1178588867188 219.7523803710938 424.3484191894531 220.0157775878906 424.3484191894531 L 234.3837280273438 424.3484191894531 C 234.6473999023438 424.3484191894531 234.8779296875 424.1176147460938 234.8779296875 423.8542175292969 C 234.8779296875 423.5907592773438 234.6471557617188 423.3599853515625 234.3834838867188 423.3599853515625 L 234.3837280273438 423.3599853515625 L 220.0157775878906 423.3599853515625 M 234.3834838867188 423.3599853515625 L 234.3837280273438 423.3599853515625 L 234.3834838867188 423.3599853515625 M 234.3837280273438 423.3599853515625 L 234.3834838867188 423.3599853515625 M 220.0157775878906 423.2599792480469 L 234.3837280273438 423.2599792480469 L 234.3834838867188 423.2599792480469 L 234.3837280273438 423.2599792480469 C 234.7002563476562 423.2599792480469 234.9779357910156 423.5376586914062 234.9779357910156 423.8542175292969 C 234.9779357910156 424.1707458496094 234.7002563476562 424.4484252929688 234.3837280273438 424.4484252929688 L 220.0157775878906 424.4484252929688 C 219.6992340087891 424.4484252929688 219.4215698242188 424.1707458496094 219.4215698242188 423.8542175292969 C 219.4215698242188 423.5376586914062 219.6992340087891 423.2599792480469 220.0157775878906 423.2599792480469 Z" stroke="none" fill="#ddd"/>
    </g>
    <g id="패스_16459" data-name="패스 16459" transform="translate(504.728 -53.378)" fill="#ddd">
      <path d="M 234.3837280273438 385.1984252929688 L 220.0157775878906 385.1984252929688 C 219.7258758544922 385.1984252929688 219.4715728759766 384.9441223144531 219.4715728759766 384.6542358398438 C 219.4715728759766 384.3643188476562 219.7258758544922 384.1100158691406 220.0157775878906 384.1100158691406 L 234.3837280273438 384.1100158691406 C 234.6736450195312 384.1101684570312 234.9279327392578 384.3644104003906 234.9279327392578 384.6542358398438 C 234.9279327392578 384.9441223144531 234.6736297607422 385.1984252929688 234.3837280273438 385.1984252929688 Z" stroke="none"/>
      <path d="M 220.0157775878906 384.1600036621094 C 219.7521362304688 384.1600036621094 219.5215759277344 384.3908081054688 219.5215759277344 384.6542358398438 C 219.5215759277344 384.9178771972656 219.7523803710938 385.1484375 220.0157775878906 385.1484375 L 234.3837280273438 385.1484375 C 234.6473999023438 385.1484375 234.8779296875 384.9176635742188 234.8779296875 384.6542358398438 C 234.8779296875 384.3905639648438 234.6471557617188 384.1600036621094 234.3834838867188 384.1600036621094 L 234.3837280273438 384.1600036621094 L 220.0157775878906 384.1600036621094 M 234.3834838867188 384.1600036621094 L 234.3837280273438 384.1600036621094 L 234.3834838867188 384.1600036621094 M 234.3837280273438 384.1600036621094 L 234.3834838867188 384.1600036621094 M 220.0157775878906 384.0599975585938 L 234.3837280273438 384.0599975585938 L 234.3834838867188 384.0599975585938 L 234.3837280273438 384.0599975585938 C 234.7002563476562 384.0599975585938 234.9779357910156 384.3376770019531 234.9779357910156 384.6542358398438 C 234.9779357910156 384.9707641601562 234.7002563476562 385.2484436035156 234.3837280273438 385.2484436035156 L 220.0157775878906 385.2484436035156 C 219.6992340087891 385.2484436035156 219.4215698242188 384.9707641601562 219.4215698242188 384.6542358398438 C 219.4215698242188 384.3376770019531 219.6992340087891 384.0599975585938 220.0157775878906 384.0599975585938 Z" stroke="none" fill="#ddd"/>
    </g>
    <g id="패스_16460" data-name="패스 16460" transform="translate(504.728 -16.485)" fill="#ddd">
      <path d="M 234.3837280273438 345.9984130859375 L 220.0157775878906 345.9984130859375 C 219.7258758544922 345.9984130859375 219.4715728759766 345.7441101074219 219.4715728759766 345.4542236328125 C 219.4715728759766 345.1643371582031 219.7258758544922 344.9100341796875 220.0157775878906 344.9100341796875 L 234.3837280273438 344.9100341796875 C 234.6736450195312 344.9101867675781 234.9279327392578 345.1643981933594 234.9279327392578 345.4542236328125 C 234.9279327392578 345.7441101074219 234.6736297607422 345.9984130859375 234.3837280273438 345.9984130859375 Z" stroke="none"/>
      <path d="M 220.0157775878906 344.9600219726562 C 219.7521362304688 344.9600219726562 219.5215759277344 345.1907958984375 219.5215759277344 345.4542236328125 C 219.5215759277344 345.7178955078125 219.7523803710938 345.9484252929688 220.0157775878906 345.9484252929688 L 234.3837280273438 345.9484252929688 C 234.6473999023438 345.9484252929688 234.8779296875 345.7176513671875 234.8779296875 345.4542236328125 C 234.8779296875 345.1905517578125 234.6471557617188 344.9600219726562 234.3834838867188 344.9600219726562 L 234.3837280273438 344.9600219726562 L 220.0157775878906 344.9600219726562 M 234.3834838867188 344.9600219726562 L 234.3837280273438 344.9600219726562 L 234.3834838867188 344.9600219726562 M 234.3837280273438 344.9600219726562 L 234.3834838867188 344.9600219726562 M 220.0157775878906 344.8600158691406 L 234.3837280273438 344.8600158691406 L 234.3834838867188 344.8600158691406 L 234.3837280273438 344.8600158691406 C 234.7002563476562 344.8600158691406 234.9779357910156 345.1376953125 234.9779357910156 345.4542236328125 C 234.9779357910156 345.770751953125 234.7002563476562 346.0484313964844 234.3837280273438 346.0484313964844 L 220.0157775878906 346.0484313964844 C 219.6992340087891 346.0484313964844 219.4215698242188 345.770751953125 219.4215698242188 345.4542236328125 C 219.4215698242188 345.1376953125 219.6992340087891 344.8600158691406 220.0157775878906 344.8600158691406 Z" stroke="none" fill="#ddd"/>
    </g>
    <g id="패스_16461" data-name="패스 16461" transform="translate(548.469 288.281)" fill="#ddd">
      <path d="M 193.3451995849609 51.81019973754883 L 173.5398559570312 51.81019973754883 C 173.2499542236328 51.81019973754883 172.9956512451172 51.55590057373047 172.9956512451172 51.2659912109375 L 172.9956512451172 25.21294021606445 C 172.9956512451172 24.92303085327148 173.2499542236328 24.66872024536133 173.5398559570312 24.66872024536133 L 189.1600494384766 24.66872024536133 L 189.2588958740234 24.66872024536133 C 189.3202819824219 24.66872024536133 189.3666076660156 24.6687183380127 189.4093627929688 24.70158958435059 L 189.4234771728516 24.70158958435059 C 189.4770965576172 24.70158958435059 189.5198974609375 24.74441909790039 189.5576782226562 24.7822093963623 L 193.7756500244141 28.96751976013184 C 193.798095703125 28.98981094360352 193.8093109130859 29.01222991943359 193.8183135986328 29.03025054931641 C 193.8257598876953 29.04512023925781 193.8311309814453 29.05586051940918 193.8417663574219 29.06650924682617 L 193.8564147949219 29.08115005493164 L 193.8564147949219 29.10186004638672 L 193.8564147949219 29.13472938537598 C 193.8564300537109 29.14029312133789 193.8602142333984 29.15353965759277 193.8642730712891 29.16638374328613 L 193.8892822265625 29.13958930969238 L 193.8894195556641 29.26629066467285 C 193.8894653320312 29.26921081542969 193.8923034667969 29.27770042419434 193.8941802978516 29.2833194732666 C 193.9010925292969 29.30393600463867 193.9144287109375 29.34381866455078 193.8894195556641 29.38255882263184 L 193.8894195556641 51.2659912109375 C 193.8894195556641 51.55590057373047 193.6351165771484 51.81019973754883 193.3451995849609 51.81019973754883 Z M 174.0839996337891 25.69157981872559 L 174.0839996337891 50.65600967407227 L 192.8336486816406 50.65597152709961 L 192.8336486816406 29.9096508026123 L 189.1597747802734 29.9096508026123 C 188.869873046875 29.9096508026123 188.6155700683594 29.65534019470215 188.6155700683594 29.36543083190918 L 188.6155700683594 25.69157981872559 L 174.0839996337891 25.69157981872559 Z M 189.7042541503906 28.82106018066406 L 192.0379791259766 28.82106018066406 L 189.7042541503906 26.4871654510498 L 189.7042541503906 28.82106018066406 Z" stroke="none"/>
      <path d="M 173.5398559570312 24.71872329711914 C 173.2762145996094 24.71872329711914 173.045654296875 24.94950485229492 173.045654296875 25.21293258666992 L 173.045654296875 51.26598358154297 C 173.045654296875 51.52965545654297 173.2764434814453 51.76020431518555 173.5398559570312 51.76020431518555 L 193.3451995849609 51.76020431518555 C 193.6088562011719 51.76020431518555 193.8394165039062 51.52941131591797 193.8394165039062 51.26598358154297 L 193.8394165039062 29.36513519287109 C 193.8725280761719 29.3322639465332 193.8394165039062 29.29916381835938 193.8394165039062 29.26629257202148 L 193.8392791748047 29.26644515991211 C 193.8392791748047 29.23357391357422 193.8064117431641 29.1676025390625 193.8064117431641 29.13472366333008 L 193.8064117431641 29.10185241699219 C 193.7735443115234 29.06898498535156 193.7735443115234 29.03588485717773 193.7404327392578 29.00301361083984 L 189.5223236083984 24.81756210327148 C 189.4894561767578 24.78469467163086 189.4563598632812 24.75159454345703 189.4234771728516 24.75159454345703 L 189.3906097412109 24.75159454345703 C 189.3577423095703 24.71872329711914 189.3246459960938 24.71872329711914 189.2588958740234 24.71872329711914 L 173.5398559570312 24.71872329711914 M 174.0339965820312 50.70600128173828 L 174.0339965820312 25.64157485961914 L 188.6655731201172 25.64157485961914 L 188.6655731201172 29.36543273925781 C 188.6655731201172 29.62909317016602 188.8963623046875 29.85965347290039 189.1597747802734 29.85965347290039 L 192.8836364746094 29.85965347290039 L 192.8836364746094 50.70597457885742 L 174.0339965820312 50.70600128173828 M 192.1586761474609 28.87106323242188 L 189.6542510986328 28.87106323242188 L 189.6542510986328 26.3664436340332 L 192.1586761474609 28.87106323242188 M 173.5398559570312 24.61872482299805 L 189.2588958740234 24.61872482299805 C 189.3172302246094 24.61872482299805 189.3729553222656 24.61872482299805 189.4250030517578 24.6515998840332 C 189.4984893798828 24.65232086181641 189.5508575439453 24.70468521118164 189.5930023193359 24.74682235717773 L 193.8108673095703 28.93203353881836 C 193.8391418457031 28.96010208129883 193.8529663085938 28.98772430419922 193.863037109375 29.00788497924805 C 193.8698425292969 29.021484375 193.8726196289062 29.02664566040039 193.8771209716797 29.03114318847656 L 193.900390625 29.05441284179688 L 193.9392852783203 29.01274490356445 L 193.9394226074219 29.26097106933594 C 193.9400787353516 29.26313018798828 193.9408721923828 29.26527786254883 193.9416046142578 29.26745223999023 C 193.9484100341797 29.28781890869141 193.9663848876953 29.34146118164062 193.9394226074219 29.39574432373047 L 193.9394226074219 51.26598358154297 C 193.9394226074219 51.58253479003906 193.6617584228516 51.86020660400391 193.3451995849609 51.86020660400391 L 173.5398559570312 51.86020660400391 C 173.2233123779297 51.86020660400391 172.9456481933594 51.58253479003906 172.9456481933594 51.26598358154297 L 172.9456481933594 25.21293258666992 C 172.9456481933594 24.89639282226562 173.2233123779297 24.61872482299805 173.5398559570312 24.61872482299805 Z M 188.5655670166016 25.74157333374023 L 174.1340026855469 25.74157333374023 L 174.1340026855469 50.60600280761719 L 192.7836303710938 50.60597229003906 L 192.7836303710938 29.95965194702148 L 189.1597747802734 29.95965194702148 C 188.8432312011719 29.95965194702148 188.5655670166016 29.68198394775391 188.5655670166016 29.36543273925781 L 188.5655670166016 25.74157333374023 Z M 191.9172668457031 28.77106475830078 L 189.7542572021484 26.60787582397461 L 189.7542572021484 28.77106475830078 L 191.9172668457031 28.77106475830078 Z" stroke="none" fill="#ddd"/>
    </g>
  </g>
</svg>
