<svg xmlns="http://www.w3.org/2000/svg" width="20" height="20" viewBox="0 0 20 20">
  <g id="icon" transform="translate(-547 -368)">
    <rect id="area" width="20" height="20" transform="translate(547 368)" fill="none"/>
    <path id="icon-2" data-name="icon" d="M545.853,112.4v-.486a8.079,8.079,0,0,0,1.492-4.652c0-3.08-1.992-5.232-4.844-5.232s-4.844,2.152-4.844,5.232a8.085,8.085,0,0,0,1.492,4.652v.485c-3.647,1.031-5.647,3.149-5.647,6.006a.706.706,0,0,0,.706.706h16.587a.707.707,0,0,0,.707-.706C551.5,115.553,549.5,113.435,545.853,112.4Zm-10.882,5.3c.409-2.426,2.917-3.549,5.05-4.068a.706.706,0,0,0,.539-.687V111.68a.709.709,0,0,0-.153-.44,6.666,6.666,0,0,1-1.339-3.974c0-2.32,1.347-3.819,3.432-3.819s3.432,1.5,3.432,3.819a6.669,6.669,0,0,1-1.338,3.974.7.7,0,0,0-.153.44v1.269a.706.706,0,0,0,.539.687c2.133.518,4.641,1.642,5.05,4.068Z" transform="translate(14.499 267.423)" fill="#999"/>
  </g>
</svg>
