<svg xmlns="http://www.w3.org/2000/svg" width="20" height="20" viewBox="0 0 20 20">
  <g id="icon" transform="translate(-437 -699)">
    <rect id="area" width="20" height="20" transform="translate(437 699)" fill="none"/>
    <g id="패스_16949" data-name="패스 16949" transform="translate(254.23 518.198)" fill="#222">
      <path d="M 195.5137634277344 197.0229797363281 L 185.8523712158203 197.0229797363281 C 185.7606964111328 197.0229797363281 185.6260681152344 196.9808502197266 185.5319671630859 196.8867340087891 C 185.4377746582031 196.7925720214844 185.3957672119141 196.6937561035156 185.3957672119141 196.5663604736328 L 185.5337066650391 193.4558258056641 L 184.7827453613281 193.4558258056641 C 184.5908660888672 193.4558258056641 184.4112243652344 193.3159027099609 184.3649139404297 193.1303558349609 L 183.1180267333984 188.5040130615234 C 183.0692596435547 188.3560485839844 183.0854644775391 188.2197265625 183.1661834716797 188.0987701416016 L 183.1717071533203 188.0904846191406 L 183.1787719726562 188.0834503173828 C 183.2305755615234 188.0318298339844 183.3689270019531 187.9117736816406 183.5345916748047 187.9117736816406 L 185.9695587158203 187.9117736816406 L 186.0729217529297 185.1185913085938 C 186.0728454589844 184.8981323242188 186.2862243652344 184.7014923095703 186.5294799804688 184.7014923095703 L 194.8717803955078 184.7014923095703 C 195.1138610839844 184.7014923095703 195.3263549804688 184.8962707519531 195.328369140625 185.1190948486328 L 195.6401824951172 190.5592193603516 L 198.6026306152344 189.0107116699219 L 199.0543060302734 187.4475402832031 C 199.107421875 187.2872314453125 199.2073516845703 187.1736297607422 199.3298950195312 187.1316680908203 L 200.147705078125 186.8116912841797 L 200.1501159667969 186.8107604980469 L 200.152587890625 186.8099365234375 C 200.2151031494141 186.7891387939453 200.2799530029297 186.7781524658203 200.3401031494141 186.7781524658203 C 200.4059906005859 186.7781524658203 200.4645080566406 186.7906646728516 200.5140075683594 186.8153228759766 L 200.5285797119141 186.8226013183594 L 200.5401000976562 186.8341217041016 C 200.6168518066406 186.9108734130859 200.6946411132812 186.9886474609375 200.7372131347656 187.0741424560547 L 200.7393188476562 187.078369140625 L 200.7410125732422 187.082763671875 L 202.4165802001953 191.4321441650391 L 202.4542236328125 191.5298614501953 L 202.4421081542969 191.5339050292969 C 202.4576416015625 191.6294250488281 202.4496307373047 191.7255096435547 202.4180603027344 191.8206634521484 L 202.4106140136719 191.8431549072266 L 202.3938598632812 191.8598937988281 C 202.3171844482422 191.9365844726562 202.2393646240234 192.014404296875 202.1538848876953 192.0569915771484 L 202.1498870849609 192.0590057373047 L 202.1457214355469 192.0606231689453 L 201.3258209228516 192.3814239501953 C 201.263427734375 192.4024505615234 201.2095184326172 192.4118347167969 201.1563568115234 192.4118347167969 C 201.0703735351562 192.4118347167969 200.9885101318359 192.3862762451172 200.9130554199219 192.3358917236328 L 199.5372161865234 191.4759979248047 L 195.7954711914062 193.3466033935547 L 195.97021484375 196.5609283447266 L 195.9703674316406 196.5636444091797 L 195.9703674316406 196.5663604736328 C 195.9703674316406 196.6580657958984 195.9282379150391 196.7926940917969 195.8341369628906 196.8867645263672 C 195.7399444580078 196.98095703125 195.6411437988281 197.0229797363281 195.5137634277344 197.0229797363281 Z M 186.3507232666016 196.1097259521484 L 195.0514678955078 196.1097259521484 L 194.8795776367188 193.0509796142578 C 194.8419342041016 192.8774566650391 194.9509735107422 192.6894683837891 195.1480255126953 192.5907745361328 L 199.0243835449219 190.7054138183594 L 198.7409515380859 189.9687347412109 L 195.4173889160156 191.6993255615234 L 195.4104156494141 191.7029571533203 L 195.4029693603516 191.7054443359375 C 195.3452758789062 191.7247772216797 195.2913665771484 191.7341613769531 195.2382049560547 191.7341613769531 C 195.1522369384766 191.7341613769531 195.0703735351562 191.7086181640625 194.9948883056641 191.6582336425781 C 194.8564300537109 191.5658264160156 194.7733612060547 191.4294738769531 194.7721099853516 191.2929382324219 L 194.4567108154297 185.6144409179688 L 186.9805450439453 185.6144409179688 L 186.3507232666016 196.1097259521484 Z M 185.1100158691406 192.5428009033203 L 185.5826110839844 192.5428009033203 L 185.9210052490234 188.8246917724609 L 184.1625213623047 188.8246917724609 L 185.1100158691406 192.5428009033203 Z M 199.9799652099609 190.6521148681641 L 201.2362213134766 191.4329986572266 L 201.4038848876953 191.3956604003906 L 200.0539245605469 187.8855895996094 L 199.8738250732422 187.9456176757812 L 199.4698944091797 189.3596038818359 L 199.9799652099609 190.6521148681641 Z" stroke="none"/>
      <path d="M 195.5137634277344 196.9229736328125 C 195.6206817626953 196.9229736328125 195.6920623779297 196.8874206542969 195.763427734375 196.8160247802734 C 195.8348083496094 196.7446746826172 195.870361328125 196.6377258300781 195.870361328125 196.5663604736328 L 195.6920623779297 193.2864837646484 L 199.5426635742188 191.3614654541016 L 200.9685821533203 192.2527313232422 C 201.0754699707031 192.3240966796875 201.1824035644531 192.3240966796875 201.2893829345703 192.2882995605469 L 202.1092834472656 191.9674987792969 C 202.1806488037109 191.9319305419922 202.2517700195312 191.8605651855469 202.3231506347656 191.7891845703125 C 202.3587036132812 191.6820220947266 202.3587036132812 191.5750732421875 202.3231506347656 191.4681396484375 L 202.3232727050781 191.4680938720703 L 200.647705078125 187.1187133789062 C 200.6121368408203 187.0473175048828 200.5407562255859 186.9761962890625 200.4693908691406 186.9048309326172 C 200.3980102539062 186.8692474365234 200.2910766601562 186.8692474365234 200.1841430664062 186.9048309326172 L 199.3642425537109 187.2256164550781 C 199.2573089599609 187.2611846923828 199.1859436035156 187.3681335449219 199.1503753662109 187.4752960205078 L 198.6868438720703 189.0795288085938 L 195.5492095947266 190.7196044921875 L 195.2283935546875 185.1222839355469 C 195.2283935546875 184.9439849853516 195.0500946044922 184.8014831542969 194.8717803955078 184.8014831542969 L 186.5294799804688 184.8014831542969 C 186.3511657714844 184.8014831542969 186.1728515625 184.9439849853516 186.1728515625 185.1222839355469 L 186.0659332275391 188.0117797851562 L 183.5345916748047 188.0117797851562 C 183.4276885986328 188.0117797851562 183.3207397460938 188.0831451416016 183.2493591308594 188.1542816162109 C 183.1779937744141 188.2612152099609 183.1779937744141 188.3681488037109 183.2137908935547 188.4750823974609 L 184.4619445800781 193.1061401367188 C 184.4975128173828 193.2486267089844 184.6402587890625 193.3558197021484 184.7827453613281 193.3558197021484 L 185.6382446289062 193.3558197021484 L 185.4957580566406 196.5663604736328 C 185.4957580566406 196.6732940673828 185.5313110351562 196.7446746826172 185.6026763916016 196.8160247802734 C 185.6740570068359 196.8874206542969 185.7809906005859 196.9229736328125 185.8523712158203 196.9229736328125 L 195.5137634277344 196.9229736328125 M 195.1572418212891 196.209716796875 L 186.2445373535156 196.209716796875 L 186.8863677978516 185.5144500732422 L 194.5513153076172 185.5144500732422 L 194.8721008300781 191.2898254394531 C 194.8721008300781 191.3967590332031 194.9434661865234 191.5036926269531 195.0503997802734 191.5750579833984 C 195.1573486328125 191.6464233398438 195.2642822265625 191.6464233398438 195.3712158203125 191.6106262207031 L 198.7940673828125 189.8283233642578 L 199.1506805419922 190.7551879882812 L 195.1928100585938 192.68017578125 C 195.0503082275391 192.7515563964844 194.9431304931641 192.89404296875 194.9789428710938 193.0367736816406 L 195.1572418212891 196.209716796875 M 184.0338439941406 188.7247009277344 L 186.030517578125 188.7247009277344 L 185.6739196777344 192.6428070068359 L 185.0323028564453 192.6428070068359 L 184.0338439941406 188.7247009277344 M 200.1129608154297 187.760498046875 L 201.5388793945312 191.4680480957031 L 201.2181091308594 191.5394744873047 L 199.8990936279297 190.7195739746094 L 199.3644256591797 189.3647613525391 L 199.7921600341797 187.8674163818359 L 200.1129608154297 187.760498046875 M 195.5137634277344 197.1229858398438 L 185.8523712158203 197.1229858398438 C 185.7153167724609 197.1229858398438 185.5617980957031 197.0579986572266 185.4612579345703 196.9574432373047 C 185.3483581542969 196.8445739746094 185.2957611083984 196.7202911376953 185.2957611083984 196.5663604736328 L 185.2959594726562 196.5574951171875 L 185.4291687011719 193.5558166503906 L 184.7827453613281 193.5558166503906 C 184.5463256835938 193.5558166503906 184.3249969482422 193.3833160400391 184.2678985595703 193.1545715332031 L 183.0220947265625 188.5323944091797 C 182.9643707275391 188.3548583984375 182.9848480224609 188.1903228759766 183.0830078125 188.0432586669922 L 183.0940704345703 188.0266723632812 L 183.1081848144531 188.0126037597656 C 183.1687774658203 187.9522247314453 183.3316345214844 187.8117828369141 183.5345916748047 187.8117828369141 L 185.8731994628906 187.8117828369141 L 185.9728698730469 185.1181640625 C 185.975341796875 184.8376617431641 186.2292327880859 184.6014862060547 186.5294799804688 184.6014862060547 L 194.8717803955078 184.6014862060547 C 195.1711883544922 184.6014862060547 195.4244995117188 184.8363494873047 195.4283447265625 185.1158294677734 L 195.7311553955078 190.3988342285156 L 198.5184326171875 188.9418792724609 L 198.9605560302734 187.4122924804688 C 199.022216796875 187.2265319824219 199.1441345214844 187.0903625488281 199.2956085205078 187.0377044677734 L 200.1210327148438 186.7150421142578 C 200.2783203125 186.6627349853516 200.4392547607422 186.6663513183594 200.55859375 186.7258148193359 L 200.5877685546875 186.7403564453125 L 200.6108093261719 186.7634124755859 C 200.6932373046875 186.8458251953125 200.7768859863281 186.9294738769531 200.8267364501953 187.0295562744141 L 200.8343353271484 187.0468139648438 L 202.5851745605469 191.5916137695312 L 202.5494384765625 191.603515625 C 202.5525054931641 191.6865234375 202.5403442382812 191.7696533203125 202.5129852294922 191.8521575927734 L 202.4980773925781 191.8971252441406 L 202.4645690917969 191.9306030273438 C 202.3822326660156 192.0129547119141 202.2985534667969 192.0966339111328 202.198486328125 192.1464996337891 L 202.1821441650391 192.1537475585938 L 201.3528747558594 192.4779510498047 C 201.1741790771484 192.5377655029297 201.0067901611328 192.5175628662109 200.8603057861328 192.4208984375 L 199.5317687988281 191.5905151367188 L 195.8988952636719 193.4066772460938 L 196.0703582763672 196.5663604736328 C 196.0703582763672 196.7034454345703 196.0053863525391 196.8569641113281 195.9048156738281 196.9574737548828 C 195.7919616699219 197.0703735351562 195.6676788330078 197.1229858398438 195.5137634277344 197.1229858398438 Z M 186.4569091796875 196.0097198486328 L 194.9456939697266 196.0097198486328 L 194.7801666259766 193.0640106201172 C 194.7377471923828 192.8480377197266 194.867919921875 192.6192321777344 195.1032409667969 192.5013580322266 L 198.8980865478516 190.6556396484375 L 198.6878204345703 190.1091461181641 L 195.4347229003906 191.8002777099609 C 195.2549438476562 191.8604888916016 195.0865631103516 191.8396606445312 194.9393768310547 191.7414093017578 C 194.7740783691406 191.6310882568359 194.6745910644531 191.4650421142578 194.6721496582031 191.2961730957031 L 194.3621215820312 185.7144470214844 L 187.0747222900391 185.7144470214844 L 186.4569091796875 196.0097198486328 Z M 185.1877288818359 192.4428100585938 L 185.4912872314453 192.4428100585938 L 185.8114929199219 188.9246978759766 L 184.2911987304688 188.9246978759766 L 185.1877288818359 192.4428100585938 Z M 200.0608520507812 190.5846405029297 L 201.2543334960938 191.3265075683594 L 201.2689208984375 191.3232574462891 L 199.9948883056641 188.0106658935547 L 199.9554901123047 188.0238037109375 L 199.5753631591797 189.3544464111328 L 200.0608520507812 190.5846405029297 Z" stroke="none" fill="#222"/>
    </g>
  </g>
</svg>
