<svg xmlns="http://www.w3.org/2000/svg" width="60" height="60" viewBox="0 0 60 60">
  <g id="icon" transform="translate(-446 -289)">
    <circle id="타원_786" data-name="타원 786" cx="30" cy="30" r="30" transform="translate(446 289)" fill="#f1f2f9"/>
    <path id="Icon_metro-file-excel" data-name="Icon metro-file-excel" d="M26.734,8.458a3.83,3.83,0,0,1,.79,1.251,3.8,3.8,0,0,1,.329,1.448V30.12a1.574,1.574,0,0,1-1.58,1.58H4.151a1.574,1.574,0,0,1-1.58-1.58V3.784A1.574,1.574,0,0,1,4.151,2.2H18.9a3.8,3.8,0,0,1,1.448.329,3.83,3.83,0,0,1,1.251.79ZM19.426,4.442v6.189h6.189a1.8,1.8,0,0,0-.362-.675L20.1,4.8a1.8,1.8,0,0,0-.675-.362Zm6.321,25.151V12.738H18.9a1.574,1.574,0,0,1-1.58-1.58V4.31H4.678V29.593H25.747ZM9.632,25.741v1.745h4.625V25.741H13.023l1.7-2.65a2.36,2.36,0,0,0,.165-.272q.082-.156.123-.222t.058-.066H15.1a.567.567,0,0,0,.082.165.92.92,0,0,0,.074.123q.041.058.1.132l.107.14,1.761,2.65H15.969v1.745h4.79V25.741H19.64l-3.16-4.494,3.21-4.642h1.1V14.845H16.2v1.761h1.218l-1.7,2.617q-.066.115-.165.272t-.148.222l-.033.049h-.033a.566.566,0,0,0-.082-.165,1.964,1.964,0,0,0-.28-.379l-1.745-2.617h1.251V14.845H9.714v1.761h1.119l3.111,4.477-3.193,4.658H9.632Z" transform="translate(461.009 302.472)" fill="#383e60"/>
  </g>
</svg>
