<svg xmlns="http://www.w3.org/2000/svg" width="24.708" height="21.902" viewBox="0 0 24.708 21.902">
  <g id="패스_16620" data-name="패스 16620" transform="translate(-33.696 0.089)" fill="#fff">
    <path d="M 55.00313568115234 21.7633228302002 L 37.09684371948242 21.7633228302002 C 35.24922561645508 21.7633228302002 33.74607467651367 20.26018142700195 33.74607467651367 18.41256141662598 L 33.74607467651367 12.38863182067871 L 33.74607467651367 12.33863162994385 L 33.79607391357422 12.33863162994385 L 39.27488327026367 12.33863162994385 L 39.27488327026367 0.01098209992051125 L 39.27488327026367 -0.03901790082454681 L 39.32488250732422 -0.03901790082454681 L 58.30389404296875 -0.03901790082454681 L 58.3538932800293 -0.03901790082454681 L 58.3538932800293 0.01098209992051125 L 58.3538932800293 18.41256141662598 C 58.3538932800293 20.26018142700195 56.85075378417969 21.7633228302002 55.00313568115234 21.7633228302002 Z M 39.67914199829102 20.59061241149902 L 55.00348281860352 20.59061241149902 C 56.20446395874023 20.59061241149902 57.18153381347656 19.6135425567627 57.18153381347656 18.41256141662598 L 57.18153381347656 1.133702158927917 L 40.44793319702148 1.133702158927917 L 40.44793319702148 18.41256141662598 L 40.44793319702148 18.46256256103516 L 40.44726943969727 18.46256256103516 C 40.43691635131836 19.25854682922363 40.17875671386719 19.9736499786377 39.67914199829102 20.59061241149902 Z M 35.00149536132812 13.5109224319458 L 35.00149536132812 18.41213226318359 C 35.00149536132812 19.61311149597168 35.94147491455078 20.59018135070801 37.09687423706055 20.59018135070801 C 38.29785537719727 20.59018135070801 39.27492523193359 19.61311149597168 39.27492523193359 18.41213226318359 L 39.27488327026367 13.5109224319458 L 35.00149536132812 13.5109224319458 Z M 45.18351364135742 17.49299240112305 L 45.14815521240234 17.4576416015625 L 42.59009552001953 14.89956188201904 L 42.55283355712891 14.86229228973389 L 42.59200286865234 14.82704162597656 L 43.41718292236328 14.0843620300293 L 43.45244216918945 14.05262184143066 L 43.48599243164062 14.08616256713867 L 45.18351364135742 15.78369235992432 L 47.95375442504883 13.01345252990723 L 47.9873046875 12.97991180419922 L 48.02256393432617 13.01165199279785 L 48.84775543212891 13.75433254241943 L 48.88692474365234 13.78958225250244 L 48.84966278076172 13.8268518447876 L 45.21887588500977 17.4576416015625 L 45.18351364135742 17.49299240112305 Z M 54.64087295532227 16.06942176818848 L 54.59087371826172 16.06942176818848 L 50.54727554321289 16.06942176818848 L 50.49727249145508 16.06942176818848 L 50.49727249145508 16.01942253112793 L 50.49727249145508 14.94671249389648 L 50.49727249145508 14.89671230316162 L 50.54727554321289 14.89671230316162 L 54.59087371826172 14.89671230316162 L 54.64087295532227 14.89671230316162 L 54.64087295532227 14.94671249389648 L 54.64087295532227 16.01942253112793 L 54.64087295532227 16.06942176818848 Z M 45.18351364135742 12.62420177459717 L 45.14815521240234 12.58885192871094 L 42.59009552001953 10.03078174591064 L 42.55283355712891 9.993512153625488 L 42.59200286865234 9.95826244354248 L 43.41718292236328 9.215581893920898 L 43.45244216918945 9.183841705322266 L 43.48599243164062 9.217382431030273 L 45.18351364135742 10.91490173339844 L 47.95375442504883 8.144661903381348 L 47.9873046875 8.111122131347656 L 48.02256393432617 8.142862319946289 L 48.84775543212891 8.885552406311035 L 48.88692474365234 8.920802116394043 L 48.84966278076172 8.958071708679199 L 45.21887588500977 12.58885192871094 L 45.18351364135742 12.62420177459717 Z M 54.64087295532227 11.20064163208008 L 54.59087371826172 11.20064163208008 L 50.54727554321289 11.20064163208008 L 50.49727249145508 11.20064163208008 L 50.49727249145508 11.15064239501953 L 50.49727249145508 10.07792186737061 L 50.49727249145508 10.02792167663574 L 50.54727554321289 10.02792167663574 L 54.59087371826172 10.02792167663574 L 54.64087295532227 10.02792167663574 L 54.64087295532227 10.07792186737061 L 54.64087295532227 11.15064239501953 L 54.64087295532227 11.20064163208008 Z M 45.18368530273438 7.754462242126465 L 45.14874267578125 7.72064208984375 L 42.59068298339844 5.245071887969971 L 42.55416488647461 5.20972204208374 L 42.59009552001953 5.173781871795654 L 43.41527557373047 4.348592281341553 L 43.45063400268555 4.313241958618164 L 43.48599243164062 4.348592281341553 L 45.18351364135742 6.046122074127197 L 47.95375442504883 3.275882005691528 L 47.98911285400391 3.240532159805298 L 48.02447509765625 3.275882005691528 L 48.84966278076172 4.101072311401367 L 48.88542556762695 4.136842250823975 L 48.8492546081543 4.172192096710205 L 45.21846389770508 7.72047233581543 L 45.18368530273438 7.754462242126465 Z M 54.64087295532227 6.331851959228516 L 54.59087371826172 6.331851959228516 L 50.54727554321289 6.331851959228516 L 50.49727249145508 6.331851959228516 L 50.49727249145508 6.281852245330811 L 50.49727249145508 5.209142208099365 L 50.49727249145508 5.159142017364502 L 50.54727554321289 5.159142017364502 L 54.59087371826172 5.159142017364502 L 54.64087295532227 5.159142017364502 L 54.64087295532227 5.209142208099365 L 54.64087295532227 6.281852245330811 L 54.64087295532227 6.331851959228516 Z" stroke="none"/>
    <path d="M 55.00313568115234 21.71332168579102 C 56.81852340698242 21.71332168579102 58.30389404296875 20.22795295715332 58.30389404296875 18.41256141662598 L 58.30389404296875 0.01098209992051125 L 39.32488250732422 0.01098209992051125 L 39.32472229003906 12.38863182067871 L 33.79607391357422 12.38863182067871 L 33.79607391357422 18.41256141662598 C 33.79607391357422 20.22795295715332 35.28144454956055 21.71332168579102 37.09684371948242 21.71332168579102 L 55.00313568115234 21.71332168579102 M 40.3975944519043 18.41256141662598 L 40.39793395996094 18.41256141662598 L 40.39793395996094 1.083702087402344 L 57.23153305053711 1.083702087402344 L 57.23153305053711 18.41256141662598 C 57.23153305053711 19.6504020690918 56.24120330810547 20.64061164855957 55.00348281860352 20.64061164855957 L 39.57240295410156 20.64061164855957 C 40.06757354736328 20.06294250488281 40.3975944519043 19.32026290893555 40.3975944519043 18.41256141662598 M 34.95149230957031 13.46092224121094 L 39.32488250732422 13.46092224121094 L 39.32492446899414 18.41213226318359 C 39.32492446899414 19.64998245239258 38.3345947265625 20.64018249511719 37.09687423706055 20.64018249511719 C 35.94169235229492 20.64018249511719 34.95149230957031 19.64986228942871 34.95149230957031 18.41213226318359 L 34.95149230957031 13.46092224121094 M 45.18351364135742 17.42228126525879 L 48.81430435180664 13.7914924621582 L 47.98911285400391 13.04881191253662 L 45.18351364135742 15.85441207885742 L 43.45063400268555 14.12152194976807 L 42.62545394897461 14.86420249938965 L 45.18351364135742 17.42228126525879 M 54.59087371826172 16.01942253112793 L 54.59087371826172 14.94671249389648 L 50.54727554321289 14.94671249389648 L 50.54727554321289 16.01942253112793 L 54.59087371826172 16.01942253112793 M 45.18351364135742 12.55349254608154 L 48.81430435180664 8.922712326049805 L 47.98911285400391 8.180022239685059 L 45.18351364135742 10.98562240600586 L 43.45063400268555 9.252741813659668 L 42.62545394897461 9.99542236328125 L 45.18351364135742 12.55349254608154 M 54.59087371826172 11.15064239501953 L 54.59087371826172 10.07792186737061 L 50.54727554321289 10.07792186737061 L 50.54727554321289 11.15064239501953 L 54.59087371826172 11.15064239501953 M 45.18351364135742 7.684711933135986 L 48.81430435180664 4.13643217086792 L 47.98911285400391 3.31124210357666 L 45.18351364135742 6.116842269897461 L 43.45063400268555 4.383952140808105 L 42.62545394897461 5.209142208099365 L 45.18351364135742 7.684711933135986 M 54.59087371826172 6.281852245330811 L 54.59087371826172 5.209142208099365 L 50.54727554321289 5.209142208099365 L 50.54727554321289 6.281852245330811 L 54.59087371826172 6.281852245330811 M 55.00313568115234 21.81332206726074 L 37.09684371948242 21.81332206726074 C 35.22165298461914 21.81332206726074 33.69607543945312 20.28775215148926 33.69607543945312 18.41256141662598 L 33.69607543945312 12.2886323928833 L 39.22488403320312 12.2886323928833 L 39.22488403320312 -0.08901789784431458 L 58.40389251708984 -0.08901789784431458 L 58.40389251708984 18.41256141662598 C 58.40389251708984 20.28775215148926 56.87832260131836 21.81332206726074 55.00313568115234 21.81332206726074 Z M 39.78216171264648 20.54061126708984 L 55.00348281860352 20.54061126708984 C 56.17689514160156 20.54061126708984 57.13153457641602 19.58597183227539 57.13153457641602 18.41256141662598 L 57.13153457641602 1.183702111244202 L 40.49793243408203 1.183702111244202 L 40.49630737304688 18.5125617980957 C 40.47685623168945 19.26560592651367 40.23702239990234 19.94650268554688 39.78216171264648 20.54061126708984 Z M 35.05149459838867 13.56092166900635 L 35.05149459838867 18.41213226318359 C 35.05149459838867 19.58554267883301 35.96904373168945 20.54018211364746 37.09687423706055 20.54018211364746 C 38.27028274536133 20.54018211364746 39.22492218017578 19.58554267883301 39.22492218017578 18.41213226318359 L 39.22488403320312 13.56092166900635 L 35.05149459838867 13.56092166900635 Z M 45.18351364135742 17.56370162963867 L 42.4802131652832 14.86038208007812 L 43.45425415039062 13.98372173309326 L 45.18351364135742 15.71299171447754 L 47.98549270629883 12.91101169586182 L 48.95954513549805 13.78767204284668 L 45.18351364135742 17.56370162963867 Z M 54.69087219238281 16.11942291259766 L 50.44727325439453 16.11942291259766 L 50.44727325439453 14.84671211242676 L 54.69087219238281 14.84671211242676 L 54.69087219238281 16.11942291259766 Z M 45.18351364135742 12.69491195678711 L 42.4802131652832 9.991601943969727 L 43.45425415039062 9.11494255065918 L 45.18351364135742 10.84420204162598 L 47.98549270629883 8.042222023010254 L 48.95954513549805 8.918891906738281 L 45.18351364135742 12.69491195678711 Z M 54.69087219238281 11.25064182281494 L 50.44727325439453 11.25064182281494 L 50.44727325439453 9.977922439575195 L 54.69087219238281 9.977922439575195 L 54.69087219238281 11.25064182281494 Z M 45.18385314941406 7.824202060699463 L 42.48286437988281 5.210311889648438 L 43.45063400268555 4.242532253265381 L 45.18351364135742 5.975421905517578 L 47.98911285400391 3.169822216033936 L 48.95654296875 4.137252330780029 L 45.18385314941406 7.824202060699463 Z M 54.69087219238281 6.381852149963379 L 50.44727325439453 6.381852149963379 L 50.44727325439453 5.109142303466797 L 54.69087219238281 5.109142303466797 L 54.69087219238281 6.381852149963379 Z" stroke="none" fill="#fff"/>
  </g>
</svg>
