<svg xmlns="http://www.w3.org/2000/svg" width="21.667" height="21.667" viewBox="0 0 21.667 21.667">
  <path id="noun-lock-5282425" d="M116.8,37.332V35.973c0-2.92-.706-6.8-6.8-6.8s-6.8,3.882-6.8,6.8v1.358c-3.04.373-4.031,1.911-4.031,5.7v2.016c0,4.441,1.354,5.795,5.795,5.795H115.04c4.44,0,5.795-1.354,5.795-5.795V43.028c0-3.785-.992-5.323-4.031-5.7Zm-12.093-1.358c0-3.176.9-5.291,5.291-5.291s5.291,2.115,5.291,5.291v1.265c-.085,0-.164-.005-.252-.005H104.962c-.088,0-.167,0-.252.005Zm14.613,9.07c0,3.6-.68,4.283-4.283,4.283H104.963c-3.6,0-4.283-.681-4.283-4.283V43.028c0-3.6.68-4.283,4.283-4.283H115.04c3.6,0,4.283.681,4.283,4.283ZM106.9,43.652a1.01,1.01,0,0,1,.081.383,1,1,0,0,1-1.008,1.008,1.008,1.008,0,0,1-.383-.081.967.967,0,0,1-.625-.927,1.009,1.009,0,0,1,.081-.383.911.911,0,0,1,.544-.544,1.01,1.01,0,0,1,1.1.212,1.163,1.163,0,0,1,.212.332Zm4.031,0a1.007,1.007,0,0,1,.081.383,1.042,1.042,0,0,1-.292.715l-.151.121a.769.769,0,0,1-.181.091.624.624,0,0,1-.192.061,1.282,1.282,0,0,1-.191.02,1.06,1.06,0,0,1-.715-.292,1.038,1.038,0,0,1-.292-.715.84.84,0,0,1,.081-.383,1.164,1.164,0,0,1,.212-.332,1,1,0,0,1,.906-.272.611.611,0,0,1,.192.06.756.756,0,0,1,.181.091,1.554,1.554,0,0,1,.152.121,1.156,1.156,0,0,1,.212.332Zm3.819-.332a1.042,1.042,0,0,1,.292.715,1.008,1.008,0,0,1-.081.383,1.046,1.046,0,0,1-.212.333,1.063,1.063,0,0,1-.716.292,1.04,1.04,0,0,1-.715-.292,1.166,1.166,0,0,1-.212-.333,1.008,1.008,0,0,1-.081-.383,1.055,1.055,0,0,1,.292-.715l.151-.121a.775.775,0,0,1,.182-.091.636.636,0,0,1,.181-.06,1.026,1.026,0,0,1,.917.272Z" transform="translate(-99.168 -29.171)" fill="#fff"/>
</svg>
