<svg xmlns="http://www.w3.org/2000/svg" width="22.201" height="21.751" viewBox="0 0 22.201 21.751">
  <g id="그룹_18971" data-name="그룹 18971" transform="translate(-722.592 -314.187)">
    <path id="패스_16626" data-name="패스 16626" d="M243.016,95.1a5.676,5.676,0,1,1-5.706,5.706A5.652,5.652,0,0,1,243.016,95.1Zm0,1.2a4.475,4.475,0,1,0,4.444,4.5A4.461,4.461,0,0,0,243.016,96.3Z" transform="translate(488.255 220.085)" fill="#ddd" stroke="#ddd" stroke-width="0.4"/>
    <path id="패스_16627" data-name="패스 16627" d="M183.42,347.32a.578.578,0,1,1-1.141-.18,8.522,8.522,0,0,1,16.936,0,.611.611,0,0,1-.541.661.535.535,0,0,1-.661-.48,7.34,7.34,0,0,0-14.594,0Z" transform="translate(540.523 -12.072)" fill="#ddd" stroke="#ddd" stroke-width="0.4"/>
    <rect id="사각형_349" data-name="사각형 349" width="2" height="6" transform="translate(740.793 314.187)" fill="#ddd"/>
    <rect id="사각형_350" data-name="사각형 350" width="2" height="6" transform="translate(744.793 316.187) rotate(90)" fill="#ddd"/>
  </g>
</svg>
