<svg xmlns="http://www.w3.org/2000/svg" width="22.56" height="29.8" viewBox="0 0 22.56 29.8">
  <path id="패스_16453" data-name="패스 16453" d="M145.466,13.391a.4.4,0,1,1-.493-.623l6-4.731a.4.4,0,0,1,.492.623ZM157.3.289l.85,2.64,2.778,0a.4.4,0,0,1,.233.719l-2.247,1.628.862,2.638a.4.4,0,0,1-.636.427l-2.219-1.62-2.243,1.636a.4.4,0,0,1-.611-.444h0l.864-2.638-2.249-1.628a.4.4,0,0,1,.263-.719l2.748,0,.852-2.641a.4.4,0,0,1,.759,0Zm.183,3.16-.563-1.744-.563,1.744a.4.4,0,0,1-.379.276l-1.833,0L155.635,4.8a.4.4,0,0,1,.145.445l-.57,1.744,1.475-1.077a.4.4,0,0,1,.474,0l1.482,1.081-.567-1.729a.4.4,0,0,1,.141-.46L159.7,3.722l-1.816,0a.4.4,0,0,1-.4-.276Zm-2.628,25.064h4.13V10.735h-4.13Zm-.8-14.825V10.337a.4.4,0,0,1,.4-.4h4.928a.4.4,0,0,1,.4.4V28.914a.4.4,0,0,1-.4.4H139.676a.4.4,0,0,1-.4-.4V22.358a.4.4,0,0,1,.4-.4H144.2V18.138a.4.4,0,0,1,.4-.4h4.528V14.088a.4.4,0,0,1,.4-.4h4.531Zm0,.8H149.93V28.513h4.132Zm-4.929,4.05H145v9.977h4.13ZM144.2,22.758h-4.13v5.756h4.13Z" transform="translate(-139.027 0.237)" fill="#ddd" stroke="#ddd" stroke-width="0.5"/>
</svg>
