<svg xmlns="http://www.w3.org/2000/svg" width="103" height="33" viewBox="0 0 103 33">
  <g id="CI" transform="translate(-346 -3403)">
    <rect id="area" width="103" height="33" transform="translate(346 3403)" fill="none"/>
    <g id="그룹_18949" data-name="그룹 18949" transform="translate(245.134 3385.171)">
      <g id="그룹_18938" data-name="그룹 18938" transform="translate(140.933 27.401)">
        <path id="패스_16409" data-name="패스 16409" d="M230.41,53.8V49.33h1.559v3.147h8.249V53.8h-4.2v1.1H241v1.335H229.482V54.894h4.974V53.8Zm7.925,5.747a2.645,2.645,0,0,1-.245,1.132,3.1,3.1,0,0,1-.654.92,3.414,3.414,0,0,1-1,.626,3.2,3.2,0,0,1-2.389,0,3.379,3.379,0,0,1-1-.626,3.079,3.079,0,0,1-.654-.92,2.726,2.726,0,0,1,0-2.262,3.265,3.265,0,0,1,.654-.935,3.553,3.553,0,0,1,1-.611,3.186,3.186,0,0,1,2.389,0,3.591,3.591,0,0,1,1,.611,3.288,3.288,0,0,1,.654.935A2.643,2.643,0,0,1,238.335,59.546Zm-1.518-.014a1.574,1.574,0,0,0-3.147,0,1.494,1.494,0,0,0,.463,1.1,1.578,1.578,0,0,0,2.221,0A1.491,1.491,0,0,0,236.817,59.531Z" transform="translate(-229.482 -48.782)" fill="#fff"/>
        <path id="패스_16410" data-name="패스 16410" d="M282.6,55.675v1.349H271.082V55.675h4.974V53.947h1.56v1.728Zm-6.576-5.564V48.734h1.616v1.377h4.089v1.32h-4.159l4.272,2.361L281.1,54.9l-4.258-2.4-4.258,2.4-.744-1.11,4.258-2.361h-4.159v-1.32ZM273.6,58.05v1.883h8.234v1.391h-9.823V58.05Z" transform="translate(-258.317 -48.369)" fill="#fff"/>
        <path id="패스_16411" data-name="패스 16411" d="M313.71,51.3V49.969h7.167V51.3h-3.049L321,55.73l-1.124.843-2.544-3.625-2.515,3.724-1.152-.843,3.176-4.525Zm.843,10.581V57.7H316.1v2.811h8.726v1.377Zm8.6-4.258V49.6h1.56v8.024Z" transform="translate(-287.835 -48.971)" fill="#fff"/>
        <path id="패스_16412" data-name="패스 16412" d="M366.97,54.331v1.307H355.447V54.331Zm-.787-5.606v1.292h-2.951a2.276,2.276,0,0,1,.379.548,2.206,2.206,0,0,1,.2.913,2.175,2.175,0,0,1-.774,1.672,2.594,2.594,0,0,1-.836.52,2.865,2.865,0,0,1-2.01,0,2.457,2.457,0,0,1-.822-.52,2.182,2.182,0,0,1-.772-1.672,2.078,2.078,0,0,1,.21-.913,2.054,2.054,0,0,1,.366-.548H356.22V48.724H360.3v-1.18h1.8v1.18Zm-2.164,9.948a2.3,2.3,0,0,1-.225,1,2.86,2.86,0,0,1-.6.836,2.928,2.928,0,0,1-.892.562,2.836,2.836,0,0,1-1.089.211,2.773,2.773,0,0,1-1.082-.211,2.951,2.951,0,0,1-.885-.562,2.874,2.874,0,0,1-.6-.836,2.3,2.3,0,0,1-.225-1,2.269,2.269,0,0,1,.225-.99,2.888,2.888,0,0,1,.6-.837,3,3,0,0,1,.885-.562,2.784,2.784,0,0,1,1.082-.21,2.847,2.847,0,0,1,1.089.21,2.976,2.976,0,0,1,.892.562,2.874,2.874,0,0,1,.6.837A2.263,2.263,0,0,1,364.019,58.673Zm-1.518,0a1.308,1.308,0,0,0-1.293-1.279,1.208,1.208,0,0,0-.906.387,1.262,1.262,0,0,0,0,1.791,1.222,1.222,0,0,0,.906.379,1.247,1.247,0,0,0,.914-.379A1.23,1.23,0,0,0,362.5,58.673Zm-.126-7.251a1.12,1.12,0,0,0-.351-.815,1.138,1.138,0,0,0-.829-.351,1.115,1.115,0,0,0-.822.351,1.131,1.131,0,0,0-.344.815,1.1,1.1,0,0,0,.344.815,1.134,1.134,0,0,0,.822.337,1.157,1.157,0,0,0,.829-.337A1.088,1.088,0,0,0,362.375,51.422Z" transform="translate(-316.793 -47.544)" fill="#fff"/>
        <path id="패스_16413" data-name="패스 16413" d="M396.769,51.6V50.294h2.936V49.1h1.659v1.194h2.8V51.6h-3.049l3.161,3.2-1.011.956-2.726-2.838-2.7,3.063-1.041-.97,3.176-3.414Zm10,7.517a2.772,2.772,0,0,1-.26,1.188,3.29,3.29,0,0,1-.7.976,3.242,3.242,0,0,1-1.033.667,3.393,3.393,0,0,1-2.536,0,3.223,3.223,0,0,1-1.04-.667,3.283,3.283,0,0,1-.7-.976,2.835,2.835,0,0,1,0-2.374,3.273,3.273,0,0,1,.7-.978,3.215,3.215,0,0,1,1.04-.666,3.381,3.381,0,0,1,2.536,0,3.235,3.235,0,0,1,1.033.666,3.28,3.28,0,0,1,.7.978A2.765,2.765,0,0,1,406.774,59.119Zm-1.531-.014a1.639,1.639,0,0,0-.514-1.209,1.689,1.689,0,0,0-1.229-.506,1.714,1.714,0,1,0,0,3.429,1.7,1.7,0,0,0,1.229-.5A1.634,1.634,0,0,0,405.243,59.105Zm1.04-3.176V53.54h-2.193V52.206h2.193V49.254h1.559v6.675Z" transform="translate(-345.435 -48.623)" fill="#fff"/>
      </g>
      <g id="그룹_18945" data-name="그룹 18945" transform="translate(100.867 17.828)">
        <g id="그룹_18944" data-name="그룹 18944" transform="translate(0 0)">
          <circle id="타원_778" data-name="타원 778" cx="16.5" cy="16.5" r="16.5" transform="translate(0 0)" fill="#fff"/>
          <g id="그룹_18943" data-name="그룹 18943" transform="translate(0.761 0.761)">
            <g id="그룹_18942" data-name="그룹 18942">
              <g id="그룹_18941" data-name="그룹 18941">
                <g id="그룹_18939" data-name="그룹 18939">
                  <path id="패스_16414" data-name="패스 16414" d="M125.684,33.352a5.487,5.487,0,0,0-7.805,1.638,5.492,5.492,0,0,1-9.929-1.51h0c-.006-.021-.01-.037-.015-.057s-.013-.046-.019-.071a7.046,7.046,0,0,1-.281-2.181c0-4.922,5.049-10.4,12.324-10.4a13.873,13.873,0,0,1,12.808,8.821c-.019-.055-.036-.11-.056-.168a15.686,15.686,0,0,0-30.523,5.089c0,7.742,5.585,14.37,13.33,14.37a12.6,12.6,0,0,0,12.235-8.238A6.046,6.046,0,0,0,125.684,33.352Z" transform="translate(-102.187 -18.828)" fill="#002b51"/>
                </g>
                <g id="그룹_18940" data-name="그룹 18940" transform="translate(5.447 1.941)">
                  <path id="패스_16415" data-name="패스 16415" d="M145.167,34.28a13.828,13.828,0,0,0-12.906-9.127c-7.274,0-12.324,5.48-12.324,10.4a7.046,7.046,0,0,0,.281,2.181,4.61,4.61,0,0,1-.144-1.119c0-5.126,5.133-8.678,10.408-8.678a12.932,12.932,0,0,1,12.932,12.931,14.255,14.255,0,0,1-7.9,12.772l0,0A15.69,15.69,0,0,0,145.857,38.9,15.5,15.5,0,0,0,145.167,34.28Z" transform="translate(-119.938 -25.153)" fill="#da0021"/>
                </g>
              </g>
            </g>
          </g>
        </g>
      </g>
    </g>
  </g>
</svg>
