<svg xmlns="http://www.w3.org/2000/svg" width="150" height="44" viewBox="0 0 150 44">
  <g id="logo" transform="translate(-324 -18)">
    <rect id="area" width="150" height="44" transform="translate(324 18)" fill="none"/>
    <g id="e4_1" transform="translate(1625.667 -44.603)">
      <path id="패스_16628" data-name="패스 16628" d="M-782.9,173.82l-9.01,5.2,9.01,5.2Z" transform="translate(-447.759 -97.368)" fill="#ff8125"/>
      <path id="패스_16629" data-name="패스 16629" d="M-876.675,183.559l9.077-5.24-9.077-5.24Z" transform="translate(-373.304 -96.716)" fill="#ff8125"/>
      <path id="패스_16630" data-name="패스 16630" d="M-868.273,80.788s3.963-2.4,4.993-3.024c.788-.475.792-.527.792-1.6V71.208a14.465,14.465,0,0,0,4.055-.9c1.081-.631-4.235-.811-4.235-.811s-.86,1.009-5.612,1.351c4.332-.853,5.446-2.04,5.446-2.04s-2.315-9.4-5.468-4.267c-3.964-5.136-5.609,3.886-5.789,4.967-.563-.011-4.753.3-3.964.845s3.987.856,3.987.856v4.956c0,1.115.017,1.154.8,1.6C-872.547,78.172-868.273,80.788-868.273,80.788Z" transform="translate(-372.003 0)" fill="#383e60"/>
      <path id="패스_16631" data-name="패스 16631" d="M-699.97,178.354V173.06h-5.317v-3.137h5.317v-5.3h3.393v13.736Z" transform="translate(-523.847 -89.285)" fill="#383e60"/>
      <path id="패스_16632" data-name="패스 16632" d="M-589.665,188.535h-12.917V176.209h3.614v9.266h9.3Z" transform="translate(-614.06 -99.466)" fill="#383e60"/>
      <path id="패스_16633" data-name="패스 16633" d="M-484.152,186.309l-.046-2.2h-4v-2.995h4v-2.246h-4v-3h4v-2.2h3.614l.046,12.634Z" transform="translate(-714.533 -97.24)" fill="#383e60"/>
      <path id="패스_16634" data-name="패스 16634" d="M-397.992,166.43h27.832v6.556h2.87V166.43h9.391v-2.939h-28.691v-2.777h5.534v-3.246h-12.006v-6.426h-3.621v9.671h6.536v2.777h-7.846Z" transform="translate(-793.768 -77.361)" fill="#383e60"/>
      <path id="패스_16635" data-name="패스 16635" d="M-517.525,310.839l-9.191,0V302.6h-3.591v11.329h12.782Z" transform="translate(-677.546 -210.481)" fill="#383e60"/>
      <path id="패스_16636" data-name="패스 16636" d="M-205.152,127.532v3.48h-7.854v-3.48h-3.219v12.326h14.292V127.532Zm0,9.6h-7.854v-3.422h7.854Z" transform="translate(-953.429 -56.709)" fill="#383e60"/>
      <path id="패스_16637" data-name="패스 16637" d="M-855.121,227.8l-9.252-5.342h0l-9.339,5.392,1.757,3.043,7.584-4.378,7.5,4.328Z" transform="translate(-375.903 -140.089)" fill="#383e60"/>
      <path id="패스_16638" data-name="패스 16638" d="M-756.662,297.949c-4.247,0-7.689,3.171-7.689,7.083s3.443,7.083,7.689,7.083,7.689-3.171,7.689-7.083S-752.415,297.949-756.662,297.949Zm0,11.061a4.158,4.158,0,0,1-4.318-3.978,4.158,4.158,0,0,1,4.318-3.978,4.158,4.158,0,0,1,4.318,3.978A4.158,4.158,0,0,1-756.662,309.01Z" transform="translate(-471.967 -206.4)" fill="#383e60"/>
      <path id="패스_16639" data-name="패스 16639" d="M-375.714,303.007q-.04.153-.092.3a4.552,4.552,0,0,1-4.353,2.918,4.4,4.4,0,0,1-4.573-4.212,4.4,4.4,0,0,1,4.573-4.212,4.952,4.952,0,0,1,1.14.132,10.634,10.634,0,0,1,3.15-2.3,8.625,8.625,0,0,0-4.291-1.125c-4.5,0-8.143,3.358-8.143,7.5s3.646,7.5,8.143,7.5,8.143-3.358,8.143-7.5c0-.2-.013-.488-.026-.6A14.753,14.753,0,0,1-375.714,303.007Z" transform="translate(-802.28 -203.383)" fill="#383e60"/>
      <path id="패스_16640" data-name="패스 16640" d="M-328.3,306.336a32.118,32.118,0,0,1,10.217-5.957,74.417,74.417,0,0,0-9.883,6.226c7.44-.521,11.19-3.5,12.823-7.948C-320.445,298.339-325.418,299.684-328.3,306.336Z" transform="translate(-854.984 -206.984)" fill="#55b523"/>
      <g id="그룹_19059" data-name="그룹 19059" transform="translate(-1301.667 76.897)">
        <g id="그룹_19058" data-name="그룹 19058">
          <path id="패스_16641" data-name="패스 16641" d="M-946.272,204.879a1.889,1.889,0,0,1-.573,1.387,1.889,1.889,0,0,1-1.387.573,1.888,1.888,0,0,1-1.387-.573,1.889,1.889,0,0,1-.573-1.387,1.888,1.888,0,0,1,.573-1.387,1.888,1.888,0,0,1,1.387-.572,1.889,1.889,0,0,1,1.387.572A1.888,1.888,0,0,1-946.272,204.879Zm-.667-4.307h-2.813l-.292-16.244h3.4Z" transform="translate(992.938 -183.493)" fill="#383e60"/>
          <path id="패스_16642" data-name="패스 16642" d="M-1124.239,258.259v2.6h8.1v2.894h-18.674v-2.894h7.781V258.25Z" transform="translate(1155.11 -248.426)" fill="#383e60"/>
          <path id="패스_16643" data-name="패스 16643" d="M-1291.088,258.259v2.6h8.1v2.894h-18.674v-2.894h7.781V258.25Z" transform="translate(1301.667 -248.426)" fill="#383e60"/>
          <path id="패스_16644" data-name="패스 16644" d="M-1055.759,177.473h8.64v2.838h-5.545v3.106h5.7v2.8h-8.8Z" transform="translate(1085.667 -177.473)" fill="#383e60"/>
          <path id="패스_16645" data-name="패스 16645" d="M-1123.6,186.216h-8.563v-8.743h8.563v2.838h-4.983v3.106h4.983Z" transform="translate(1152.78 -177.473)" fill="#383e60"/>
          <path id="패스_16646" data-name="패스 16646" d="M-1222.862,177.473h8.64v2.838h-5.545v3.106h5.7v2.8h-8.8Z" transform="translate(1232.446 -177.473)" fill="#383e60"/>
          <path id="패스_16647" data-name="패스 16647" d="M-1290.7,186.216h-8.563v-8.743h8.563v2.838h-4.983v3.106h4.983Z" transform="translate(1299.56 -177.473)" fill="#383e60"/>
          <path id="패스_16648" data-name="패스 16648" d="M-1112.6,321.139h-12.2v-3.079h15.8v8.08h-3.606Z" transform="translate(1146.31 -300.961)" fill="#383e60"/>
          <path id="패스_16649" data-name="패스 16649" d="M-1279.644,321.139h-12.2v-3.079h15.8v8.08h-3.606Z" transform="translate(1293.038 -300.961)" fill="#383e60"/>
        </g>
      </g>
    </g>
  </g>
</svg>
