<svg id="미리보기" xmlns="http://www.w3.org/2000/svg" width="24" height="24" viewBox="0 0 24 24">
  <path id="area" d="M12,0a12,12,0,0,1,4.6,23.088A11.6,11.6,0,0,1,12,24,12,12,0,0,1,12,0Z" fill="#f4f4f9"/>
  <path id="패스_63816" data-name="패스 63816" d="M149.756,27.977a.481.481,0,0,0-.431.481v4.067a.481.481,0,1,0,.962,0V28.938h5.545v2.479a.481.481,0,0,0,.481.481h2.474v8.51H151.1a.481.481,0,1,0,0,.962h8.17a.481.481,0,0,0,.481-.481V31.418a.481.481,0,0,0-.14-.341l-2.955-2.96a.481.481,0,0,0-.341-.14h-6.557Zm7.038,1.643,1.317,1.317h-1.317Zm-4.473,3a3.481,3.481,0,0,0-2.234,6.171l-1.8,2.87a.481.481,0,1,0,.812.516l1.813-2.88a3.49,3.49,0,1,0,1.412-6.677Zm0,.962a2.525,2.525,0,1,1-2.544,2.524A2.523,2.523,0,0,1,152.32,33.582Zm-.05.716a.481.481,0,1,0,.05.962.843.843,0,0,1,.857.846.481.481,0,1,0,.962,0A1.819,1.819,0,0,0,152.32,34.3h-.05Z" transform="translate(-141.975 -23.193)" fill="#353990"/>
</svg>
