<svg xmlns="http://www.w3.org/2000/svg" width="30" height="30" viewBox="0 0 30 30">
  <g id="그룹_3691" data-name="그룹 3691" transform="translate(-1847 -321)">
    <rect id="아이콘박스" width="30" height="30" rx="5" transform="translate(1847 321)" fill="#f6f6fe"/>
    <g id="그룹_3690" data-name="그룹 3690" transform="translate(265.745 -29.398)">
      <path id="패스_3246" data-name="패스 3246" d="M59.23,151.4v13.316" transform="translate(1536.731 206.722)" fill="none" stroke="#8587bc" stroke-width="1.4"/>
      <path id="패스_3247" data-name="패스 3247" d="M54.314,155.053H71.535" transform="translate(1533.01 209.727)" fill="none" stroke="#8587bc" stroke-width="1.4"/>
      <g id="패스_3249" data-name="패스 3249" transform="translate(1585.255 357.398)" fill="none">
        <path d="M3.566,0H17.831a1.845,1.845,0,0,1,1.783,1.9L21.4,13.311a1.845,1.845,0,0,1-1.783,1.9H1.783A1.845,1.845,0,0,1,0,13.311L1.783,1.9A1.845,1.845,0,0,1,3.566,0Z" stroke="none"/>
        <path d="M 3.566244125366211 1.399995803833008 C 3.358573913574219 1.399995803833008 3.183124542236328 1.629715919494629 3.183124542236328 1.901625633239746 L 3.183124542236328 2.01036548614502 L 1.404834747314453 13.38919353485107 C 1.434379577636719 13.62570476531982 1.595619201660156 13.81299591064453 1.783123016357422 13.81299591064453 L 19.61432456970215 13.81299591064453 C 19.80182838439941 13.81299591064453 19.96306800842285 13.62570476531982 19.99261283874512 13.38919353485107 L 18.21432304382324 2.01036548614502 L 18.21432304382324 1.901625633239746 C 18.21432304382324 1.629715919494629 18.03887367248535 1.399995803833008 17.83120346069336 1.399995803833008 L 3.566244125366211 1.399995803833008 M 3.566244125366211 -3.814697265625e-06 L 17.83120346069336 -3.814697265625e-06 C 18.81599426269531 -3.814697265625e-06 19.61432456970215 0.8513860702514648 19.61432456970215 1.901625633239746 L 21.3974437713623 13.31136608123779 C 21.3974437713623 14.36160564422607 20.59912300109863 15.2129955291748 19.61432456970215 15.2129955291748 L 1.783123016357422 15.2129955291748 C 0.7983341217041016 15.2129955291748 3.814697265625e-06 14.36160564422607 3.814697265625e-06 13.31136608123779 L 1.783123016357422 1.901625633239746 C 1.783123016357422 0.8513860702514648 2.581453323364258 -3.814697265625e-06 3.566244125366211 -3.814697265625e-06 Z" stroke="none" fill="#8587bc"/>
      </g>
    </g>
  </g>
</svg>
