<svg id="경계편집" xmlns="http://www.w3.org/2000/svg" width="26" height="26" viewBox="0 0 26 26">
  <g id="off" transform="translate(-346 -180)">
    <g id="타원_1095" data-name="타원 1095" transform="translate(346 180)" fill="#fff" stroke="#d8dee3" stroke-width="1">
      <circle cx="13" cy="13" r="13" stroke="none"/>
      <circle cx="13" cy="13" r="12.5" fill="none"/>
    </g>
    <g id="사각형_9136" data-name="사각형 9136" transform="translate(352 188)" fill="none" stroke="#999" stroke-width="1.5">
      <rect width="12" height="12" stroke="none"/>
      <rect x="0.75" y="0.75" width="10.5" height="10.5" fill="none"/>
    </g>
    <g id="타원_504" data-name="타원 504" transform="translate(351 187)" fill="#fff" stroke="#999" stroke-width="1.5">
      <circle cx="2" cy="2" r="2" stroke="none"/>
      <circle cx="2" cy="2" r="1.25" fill="none"/>
    </g>
    <g id="타원_507" data-name="타원 507" transform="translate(351 197)" fill="#fff" stroke="#999" stroke-width="1.5">
      <circle cx="2" cy="2" r="2" stroke="none"/>
      <circle cx="2" cy="2" r="1.25" fill="none"/>
    </g>
    <g id="타원_508" data-name="타원 508" transform="translate(361 197)" fill="#fff" stroke="#999" stroke-width="1.5">
      <circle cx="2" cy="2" r="2" stroke="none"/>
      <circle cx="2" cy="2" r="1.25" fill="none"/>
    </g>
    <path id="패스_63690" data-name="패스 63690" d="M363,185l-5.829,6.314,4.062,2.9,4.86-4.57-.725-2.539Z" transform="translate(-1 1)" fill="#fff"/>
    <path id="패스_3213" data-name="패스 3213" d="M322.577,50.891l-4.544,4.487-.854-.861-.62-.625-.938-.946,4.577-4.52-.623-.623-5.085,5.029a.434.434,0,0,0-.1.157l-1.777,4.737a.441.441,0,0,0,.413.6.436.436,0,0,0,.139-.023l4.7-1.565a.437.437,0,0,0,.172-.106l5.17-5.113Zm-7.5,2.762,2.3,2.313-2.545.848-.683-.674Z" transform="translate(42.559 138.248)" fill="#999" stroke="#999" stroke-width="0.4"/>
    <path id="패스_3214" data-name="패스 3214" d="M5.512,2.549,3.257.294a1.01,1.01,0,0,0-1.424,0L.625,1.56l0,0L0,2.181,3.681,5.863,4.3,5.24h0L5.512,3.973A1.009,1.009,0,0,0,5.512,2.549Zm-.623.8L3.681,4.616,1.248,2.184,2.456.917a.129.129,0,0,1,.178,0L4.889,3.172a.129.129,0,0,1,0,.178Z" transform="matrix(1, 0.014, -0.014, 1, 362.57, 183.465)" fill="#999" stroke="#999" stroke-width="0.4"/>
  </g>
  <g id="on" transform="translate(-346 -180)" opacity="0">
    <circle id="타원_1095-2" data-name="타원 1095" cx="13" cy="13" r="13" transform="translate(346 180)" fill="#353990"/>
    <g id="사각형_9136-2" data-name="사각형 9136" transform="translate(352 188)" fill="none" stroke="#fff" stroke-width="1.5">
      <rect width="12" height="12" stroke="none"/>
      <rect x="0.75" y="0.75" width="10.5" height="10.5" fill="none"/>
    </g>
    <g id="타원_504-2" data-name="타원 504" transform="translate(351 187)" fill="#353990" stroke="#fff" stroke-width="1.5">
      <circle cx="2" cy="2" r="2" stroke="none"/>
      <circle cx="2" cy="2" r="1.25" fill="none"/>
    </g>
    <g id="타원_507-2" data-name="타원 507" transform="translate(351 197)" fill="#353990" stroke="#fff" stroke-width="1.5">
      <circle cx="2" cy="2" r="2" stroke="none"/>
      <circle cx="2" cy="2" r="1.25" fill="none"/>
    </g>
    <g id="타원_508-2" data-name="타원 508" transform="translate(361 197)" fill="#353990" stroke="#fff" stroke-width="1.5">
      <circle cx="2" cy="2" r="2" stroke="none"/>
      <circle cx="2" cy="2" r="1.25" fill="none"/>
    </g>
    <path id="패스_63690-2" data-name="패스 63690" d="M363,185l-5.829,6.314,4.062,2.9,4.86-4.57-.725-2.539Z" transform="translate(-1 1)" fill="#353990"/>
    <path id="패스_3213-2" data-name="패스 3213" d="M322.577,50.891l-4.544,4.487-.854-.861-.62-.625-.938-.946,4.577-4.52-.623-.623-5.085,5.029a.434.434,0,0,0-.1.157l-1.777,4.737a.441.441,0,0,0,.413.6.436.436,0,0,0,.139-.023l4.7-1.565a.437.437,0,0,0,.172-.106l5.17-5.113Zm-7.5,2.762,2.3,2.313-2.545.848-.683-.674Z" transform="translate(42.559 138.248)" fill="#fff" stroke="#fff" stroke-width="0.4"/>
    <path id="패스_3214-2" data-name="패스 3214" d="M5.512,2.549,3.257.294a1.01,1.01,0,0,0-1.424,0L.625,1.56l0,0L0,2.181,3.681,5.863,4.3,5.24h0L5.512,3.973A1.009,1.009,0,0,0,5.512,2.549Zm-.623.8L3.681,4.616,1.248,2.184,2.456.917a.129.129,0,0,1,.178,0L4.889,3.172a.129.129,0,0,1,0,.178Z" transform="matrix(1, 0.014, -0.014, 1, 362.57, 183.465)" fill="#fff" stroke="#fff" stroke-width="0.4"/>
  </g>
</svg>
