<svg xmlns="http://www.w3.org/2000/svg" width="23.436" height="26.784" viewBox="0 0 23.436 26.784">
  <path id="Icon_awesome-bell" data-name="Icon awesome-bell" d="M11.718,26.784a3.347,3.347,0,0,0,3.346-3.348H8.372A3.347,3.347,0,0,0,11.718,26.784Zm11.268-7.832c-1.011-1.086-2.9-2.72-2.9-8.071a8.261,8.261,0,0,0-6.693-8.117V1.674a1.673,1.673,0,1,0-3.346,0v1.09a8.261,8.261,0,0,0-6.693,8.117c0,5.352-1.891,6.985-2.9,8.071A1.634,1.634,0,0,0,0,20.088a1.675,1.675,0,0,0,1.679,1.674H21.757a1.675,1.675,0,0,0,1.679-1.674,1.634,1.634,0,0,0-.45-1.136Z" fill="#fff"/>
</svg>
