<svg xmlns="http://www.w3.org/2000/svg" width="20" height="20" viewBox="0 0 20 20">
  <g id="icon_기본지도" data-name="icon / 기본지도" transform="translate(-42 -366.988)">
    <rect id="사각형_9157" data-name="사각형 9157" width="20" height="20" transform="translate(42 366.988)" fill="none"/>
    <path id="Icon_awesome-layer-group" data-name="Icon awesome-layer-group" d="M.379,4.524,7.5,7.754a.783.783,0,0,0,.651,0l7.12-3.23a.683.683,0,0,0,0-1.224L8.15.07A.783.783,0,0,0,7.5.07L.379,3.3A.683.683,0,0,0,.379,4.524Zm14.891,2.7-1.776-.8L8.554,8.657a1.762,1.762,0,0,1-1.459,0L2.155,6.417l-1.776.8a.682.682,0,0,0,0,1.223L7.5,11.672a.785.785,0,0,0,.651,0l7.12-3.227a.682.682,0,0,0,0-1.223Zm0,3.906-1.769-.8L8.554,12.569a1.762,1.762,0,0,1-1.459,0L2.148,10.327l-1.769.8a.682.682,0,0,0,0,1.223L7.5,15.578a.785.785,0,0,0,.651,0l7.12-3.227a.682.682,0,0,0,0-1.223Z" transform="translate(44 368.988)" fill="#4876ef"/>
  </g>
</svg>
