<svg xmlns="http://www.w3.org/2000/svg" width="24" height="24" viewBox="0 0 24 24">
  <g id="icon_초기화" data-name="icon / 초기화" transform="translate(-755 -316)">
    <rect id="사각형_9335" data-name="사각형 9335" width="24" height="24" transform="translate(755 316)" fill="none"/>
    <path id="_2" data-name="2" d="M315.414,30.486A7.083,7.083,0,0,0,322.561,38a7.5,7.5,0,1,0,0-14.993,6.146,6.146,0,0,0-4.48,1.664" transform="translate(444.891 298.324)" fill="none" stroke="#222" stroke-linecap="round" stroke-width="2"/>
    <path id="다각형_17" data-name="다각형 17" d="M3.608.776a1,1,0,0,1,1.458,0L7.093,2.935A1,1,0,0,1,6.364,4.62H2.311a1,1,0,0,1-.729-1.684Z" transform="matrix(-0.719, -0.695, 0.695, -0.719, 763.244, 329.027)" fill="#222"/>
  </g>
</svg>
