<svg xmlns="http://www.w3.org/2000/svg" width="124" height="40" viewBox="0 0 124 40">
  <g id="CI" transform="translate(-345 -3403)">
    <rect id="area" width="123" height="40" transform="translate(346 3403)" fill="none"/>
    <g id="그룹_18946" data-name="그룹 18946" transform="translate(244.133 3385.172)">
      <g id="그룹_18938" data-name="그룹 18938" transform="translate(149.249 29.387)">
        <path id="패스_16409" data-name="패스 16409" d="M230.6,54.726v-5.4h1.883v3.8h9.961v1.6h-5.074v1.324H243.4v1.612H229.482V56.049h6.006V54.726Zm9.57,6.94a3.194,3.194,0,0,1-.3,1.367,3.742,3.742,0,0,1-.789,1.111,4.123,4.123,0,0,1-1.205.756,3.862,3.862,0,0,1-2.884,0,4.081,4.081,0,0,1-1.2-.756,3.718,3.718,0,0,1-.79-1.111,3.292,3.292,0,0,1,0-2.732,3.943,3.943,0,0,1,.79-1.129,4.29,4.29,0,0,1,1.2-.738,3.848,3.848,0,0,1,2.884,0,4.337,4.337,0,0,1,1.205.738,3.97,3.97,0,0,1,.789,1.129A3.191,3.191,0,0,1,240.172,61.666Zm-1.833-.017a1.9,1.9,0,0,0-3.8,0,1.8,1.8,0,0,0,.559,1.332,1.906,1.906,0,0,0,2.682,0A1.8,1.8,0,0,0,238.34,61.648Z" transform="translate(-229.482 -48.668)" fill="#fff"/>
        <path id="패스_16410" data-name="패스 16410" d="M285,57.116v1.629H271.082V57.116h6.007V55.029h1.884v2.087ZM277.055,50.4V48.734h1.951V50.4h4.937v1.594h-5.022l5.158,2.851-.9,1.34-5.141-2.9-5.141,2.9-.9-1.34,5.141-2.851h-5.022V50.4Zm-2.935,9.586v2.274h9.943v1.68H272.2V59.984Z" transform="translate(-255.667 -48.293)" fill="#fff"/>
        <path id="패스_16411" data-name="패스 16411" d="M313.718,51.656V50.045h8.654v1.612H318.69L322.526,57l-1.358,1.018L318.1,53.642l-3.037,4.5-1.391-1.018,3.835-5.464Zm1.018,12.778V59.377H316.6v3.394H327.14v1.663Zm10.384-5.141V49.6H327v9.689Z" transform="translate(-282.473 -48.84)" fill="#fff"/>
        <path id="패스_16412" data-name="패스 16412" d="M369.361,55.739v1.579H355.447V55.739Zm-.95-6.77V50.53h-3.564a2.749,2.749,0,0,1,.458.662,2.663,2.663,0,0,1,.238,1.1,2.626,2.626,0,0,1-.934,2.019,3.133,3.133,0,0,1-1.009.628,3.46,3.46,0,0,1-2.427,0,2.967,2.967,0,0,1-.993-.628,2.635,2.635,0,0,1-.933-2.019,2.51,2.51,0,0,1,.254-1.1,2.48,2.48,0,0,1,.442-.662h-3.563V48.969h4.92V47.544h2.172v1.425ZM365.8,60.983a2.772,2.772,0,0,1-.272,1.214,3.454,3.454,0,0,1-.73,1.009,3.537,3.537,0,0,1-1.077.679,3.425,3.425,0,0,1-1.315.255,3.349,3.349,0,0,1-1.306-.255,3.564,3.564,0,0,1-1.069-.679,3.47,3.47,0,0,1-.73-1.009,2.778,2.778,0,0,1-.272-1.214,2.739,2.739,0,0,1,.272-1.2,3.486,3.486,0,0,1,.73-1.01A3.623,3.623,0,0,1,361.1,58.1a3.362,3.362,0,0,1,1.306-.254,3.438,3.438,0,0,1,1.315.254,3.594,3.594,0,0,1,1.077.679,3.47,3.47,0,0,1,.73,1.01A2.733,2.733,0,0,1,365.8,60.983Zm-1.833,0a1.579,1.579,0,0,0-1.561-1.544,1.459,1.459,0,0,0-1.094.467,1.524,1.524,0,0,0,0,2.163,1.475,1.475,0,0,0,1.094.458,1.506,1.506,0,0,0,1.1-.458A1.485,1.485,0,0,0,363.965,60.983Zm-.153-8.756a1.353,1.353,0,0,0-.424-.985,1.374,1.374,0,0,0-1-.424,1.347,1.347,0,0,0-.993.424,1.366,1.366,0,0,0-.416.985,1.327,1.327,0,0,0,.416.984,1.37,1.37,0,0,0,.993.407,1.4,1.4,0,0,0,1-.407A1.314,1.314,0,0,0,363.813,52.227Z" transform="translate(-308.771 -47.544)" fill="#fff"/>
        <path id="패스_16413" data-name="패스 16413" d="M396.769,52.121V50.542h3.546V49.1h2v1.442h3.376v1.579h-3.681l3.817,3.868-1.221,1.155-3.292-3.428-3.257,3.7L396.8,56.244l3.835-4.123ZM408.85,61.2a3.348,3.348,0,0,1-.314,1.434,3.973,3.973,0,0,1-.84,1.179,3.915,3.915,0,0,1-1.247.806,4.1,4.1,0,0,1-3.062,0,3.891,3.891,0,0,1-1.256-.806,3.964,3.964,0,0,1-.84-1.179,3.424,3.424,0,0,1,0-2.867,3.952,3.952,0,0,1,.84-1.181,3.882,3.882,0,0,1,1.256-.8,4.083,4.083,0,0,1,3.062,0,3.906,3.906,0,0,1,1.247.8,3.961,3.961,0,0,1,.84,1.181A3.339,3.339,0,0,1,408.85,61.2ZM407,61.182a1.98,1.98,0,0,0-.62-1.46,2.039,2.039,0,0,0-1.484-.611,2.07,2.07,0,1,0,0,4.14,2.057,2.057,0,0,0,1.484-.6A1.973,1.973,0,0,0,407,61.182Zm1.256-3.835V54.462h-2.648V52.85h2.648V49.286h1.883v8.06Z" transform="translate(-334.781 -48.523)" fill="#fff"/>
      </g>
      <g id="그룹_18945" data-name="그룹 18945" transform="translate(100.867 17.828)">
        <g id="그룹_18944" data-name="그룹 18944" transform="translate(0 0)">
          <circle id="타원_778" data-name="타원 778" cx="20" cy="20" r="20" fill="#fff"/>
          <g id="그룹_18943" data-name="그룹 18943" transform="translate(0.919 0.919)">
            <g id="그룹_18942" data-name="그룹 18942">
              <g id="그룹_18941" data-name="그룹 18941">
                <g id="그룹_18939" data-name="그룹 18939">
                  <path id="패스_16414" data-name="패스 16414" d="M130.561,36.366a6.626,6.626,0,0,0-9.425,1.978,6.632,6.632,0,0,1-11.989-1.823h0c-.007-.025-.012-.045-.019-.069s-.015-.056-.023-.085a8.509,8.509,0,0,1-.339-2.634c0-5.944,6.1-12.562,14.881-12.562a16.752,16.752,0,0,1,15.466,10.652c-.023-.067-.043-.133-.067-.2a18.942,18.942,0,0,0-36.858,6.145c0,9.349,6.744,17.353,16.1,17.353a15.213,15.213,0,0,0,14.774-9.948A7.3,7.3,0,0,0,130.561,36.366Z" transform="translate(-102.187 -18.828)" fill="#002b51"/>
                </g>
                <g id="그룹_18940" data-name="그룹 18940" transform="translate(6.578 2.344)">
                  <path id="패스_16415" data-name="패스 16415" d="M150.4,36.175a16.7,16.7,0,0,0-15.584-11.022c-8.784,0-14.881,6.618-14.881,12.562a8.509,8.509,0,0,0,.339,2.634A5.567,5.567,0,0,1,120.1,39c0-6.19,6.2-10.479,12.569-10.479a15.615,15.615,0,0,1,15.616,15.614,17.214,17.214,0,0,1-9.544,15.423l0,0a18.946,18.946,0,0,0,12.49-17.813A18.721,18.721,0,0,0,150.4,36.175Z" transform="translate(-119.938 -25.153)" fill="#da0021"/>
                </g>
              </g>
            </g>
          </g>
        </g>
      </g>
    </g>
  </g>
</svg>
