<svg xmlns="http://www.w3.org/2000/svg" width="86" height="33" viewBox="0 0 86 33">
  <g id="BI" transform="translate(0.274)">
    <rect id="area" width="86" height="33" transform="translate(-0.274)" fill="none"/>
    <g id="logo" transform="translate(-324.274 -14)">
      <rect id="area-2" data-name="area" width="86" height="25" transform="translate(324 18)" fill="none"/>
      <g id="e4_1" transform="translate(324 18)">
        <path id="패스_16416" data-name="패스 16416" d="M569.922,173.82l-5.166,2.982,5.166,2.982Z" transform="translate(-529.211 -166.091)" fill="#ff9140"/>
        <path id="패스_16417" data-name="패스 16417" d="M479.992,179.088l5.2-3-5.2-3Z" transform="translate(-450.357 -165.401)" fill="#ff9140"/>
        <path id="패스_16418" data-name="패스 16418" d="M484.177,73.186s2.272-1.378,2.863-1.734c.452-.272.454-.3.454-.918V67.693a8.294,8.294,0,0,0,2.325-.517c.62-.362-2.428-.465-2.428-.465s-.493.578-3.218.775c2.484-.489,3.122-1.17,3.122-1.17s-1.327-5.391-3.135-2.446c-2.273-2.944-3.216,2.228-3.319,2.848-.323-.006-2.725.174-2.273.484a8.562,8.562,0,0,0,2.286.491v2.841c0,.639.01.662.461.918C481.727,71.686,484.177,73.186,484.177,73.186Z" transform="translate(-448.98 -62.971)" fill="#fff"/>
        <path id="패스_16419" data-name="패스 16419" d="M654.428,172.494v-3.035H651.38v-1.8h3.048v-3.041h1.945v7.875Z" transform="translate(-609.794 -157.531)" fill="#fff"/>
        <path id="패스_16420" data-name="패스 16420" d="M761.49,183.276h-7.406v-7.067h2.072v5.312h5.334Z" transform="translate(-705.337 -168.313)" fill="#fff"/>
        <path id="패스_16421" data-name="패스 16421" d="M870.788,180.918l-.027-1.258h-2.294v-1.717h2.294v-1.288h-2.294v-1.717h2.294v-1.263h2.072l.027,7.244Z" transform="translate(-811.745 -165.955)" fill="#fff"/>
        <path id="패스_16422" data-name="패스 16422" d="M958.675,159.865h15.957v3.759h1.646v-3.759h5.384v-1.685H965.212v-1.592h3.173v-1.861H961.5v-3.684h-2.076v5.545h3.747v1.592h-4.5Z" transform="translate(-895.662 -144.902)" fill="#fff"/>
        <path id="패스_16423" data-name="패스 16423" d="M833.688,307.322h-5.27V302.6H826.36v6.5h7.328Z" transform="translate(-772.573 -285.887)" fill="#fff"/>
        <path id="패스_16424" data-name="패스 16424" d="M1146.791,127.532v2h-4.5v-2h-1.846V134.6h8.194v-7.067Zm0,5.5h-4.5v-1.962h4.5Z" transform="translate(-1064.754 -123.03)" fill="#fff"/>
        <path id="패스_16425" data-name="패스 16425" d="M493.612,225.52l-5.3-3.063h0l-5.354,3.091,1.007,1.745,4.348-2.51,4.3,2.482Z" transform="translate(-453.11 -211.336)" fill="#fff"/>
        <path id="패스_16426" data-name="패스 16426" d="M596.724,297.949a4.075,4.075,0,1,0,4.409,4.061A4.245,4.245,0,0,0,596.724,297.949Zm0,6.341a2.288,2.288,0,1,1,2.476-2.28A2.384,2.384,0,0,1,596.724,304.29Z" transform="translate(-554.849 -281.564)" fill="#fff"/>
        <path id="패스_16427" data-name="패스 16427" d="M975.582,299.383q-.023.088-.053.173a2.61,2.61,0,0,1-2.5,1.673,2.423,2.423,0,1,1,0-4.83,2.839,2.839,0,0,1,.654.076,6.1,6.1,0,0,1,1.806-1.316,4.945,4.945,0,0,0-2.46-.645,4.315,4.315,0,1,0,4.669,4.3c0-.115-.007-.28-.015-.343A8.457,8.457,0,0,1,975.582,299.383Z" transform="translate(-904.676 -278.369)" fill="#fff"/>
        <path id="패스_16428" data-name="패스 16428" d="M1028.367,303.041a18.415,18.415,0,0,1,5.858-3.415,42.661,42.661,0,0,0-5.666,3.57c4.265-.3,6.416-2,7.352-4.557C1032.871,298.456,1030.019,299.228,1028.367,303.041Z" transform="translate(-960.494 -282.183)" fill="#c1e03f"/>
        <g id="그룹_18948" data-name="그룹 18948" transform="translate(0 7.984)">
          <path id="패스_16429" data-name="패스 16429" d="M408.723,196.11a1.121,1.121,0,1,1-.328-.8A1.083,1.083,0,0,1,408.723,196.11Zm-.383-2.47h-1.613l-.168-9.313h1.948Z" transform="translate(-381.968 -183.849)" fill="#fff"/>
          <path id="패스_16430" data-name="패스 16430" d="M227.915,258.255v1.489h4.642V261.4H221.849v-1.659h4.461V258.25Z" transform="translate(-210.215 -252.617)" fill="#fff"/>
          <path id="패스_16431" data-name="패스 16431" d="M61.065,258.255v1.489h4.642V261.4H55v-1.659h4.461V258.25Z" transform="translate(-55 -252.617)" fill="#fff"/>
          <path id="패스_16432" data-name="패스 16432" d="M300.908,177.473h4.954V179.1h-3.179v1.781h3.27v1.6h-5.044Z" transform="translate(-283.76 -177.473)" fill="#fff"/>
          <path id="패스_16433" data-name="패스 16433" d="M229.411,182.486H224.5v-5.013h4.909V179.1h-2.857v1.781h2.857Z" transform="translate(-212.683 -177.473)" fill="#fff"/>
          <path id="패스_16434" data-name="패스 16434" d="M133.8,177.473h4.954V179.1h-3.179v1.781h3.27v1.6H133.8Z" transform="translate(-128.31 -177.473)" fill="#fff"/>
          <path id="패스_16435" data-name="패스 16435" d="M62.308,182.486H57.4v-5.013h4.909V179.1H59.451v1.781h2.857Z" transform="translate(-57.232 -177.473)" fill="#fff"/>
          <path id="패스_16436" data-name="패스 16436" d="M238.861,319.825h-6.994v-1.766h9.062v4.633h-2.067Z" transform="translate(-219.534 -308.256)" fill="#fff"/>
          <path id="패스_16437" data-name="패스 16437" d="M71.817,319.825H64.823v-1.766h9.062v4.633H71.817Z" transform="translate(-64.138 -308.256)" fill="#fff"/>
        </g>
      </g>
    </g>
  </g>
</svg>
