<svg xmlns="http://www.w3.org/2000/svg" width="105" height="40" viewBox="0 0 105 40">
  <g id="BI" transform="translate(-346 -3403)">
    <rect id="area" width="105" height="40" transform="translate(346 3403)" fill="none"/>
    <g id="logo" transform="translate(22 3389)">
      <rect id="area-2" data-name="area" width="105" height="31" transform="translate(324 18)" fill="none"/>
      <g id="e4_1" transform="translate(269 -45.185)">
        <path id="패스_16672" data-name="패스 16672" d="M571.063,173.82l-6.307,3.641,6.307,3.641Z" transform="translate(-466.358 -101.412)" fill="#ff9140"/>
        <path id="패스_16673" data-name="패스 16673" d="M479.992,180.415l6.354-3.668-6.354-3.668Z" transform="translate(-388.81 -100.734)" fill="#ff9140"/>
        <path id="패스_16674" data-name="패스 16674" d="M485.429,75.443s2.774-1.683,3.5-2.117c.552-.332.555-.369.555-1.121V68.737a10.127,10.127,0,0,0,2.838-.631c.757-.441-2.964-.568-2.964-.568s-.6.706-3.929.946c3.033-.6,3.812-1.428,3.812-1.428s-1.621-6.582-3.828-2.987c-2.775-3.6-3.926,2.72-4.052,3.477-.394-.008-3.327.213-2.775.591a10.453,10.453,0,0,0,2.791.6v3.469c0,.78.012.808.563,1.121C482.437,73.612,485.429,75.443,485.429,75.443Z" transform="translate(-387.456 0)" fill="#fff"/>
        <path id="패스_16675" data-name="패스 16675" d="M655.1,174.233v-3.706H651.38v-2.2H655.1v-3.713h2.375v9.615Z" transform="translate(-545.607 -92.994)" fill="#fff"/>
        <path id="패스_16676" data-name="패스 16676" d="M763.126,184.837h-9.042v-8.628h2.53V182.7h6.513Z" transform="translate(-639.567 -103.598)" fill="#fff"/>
        <path id="패스_16677" data-name="패스 16677" d="M871.3,182.518l-.033-1.537h-2.8v-2.1h2.8v-1.572h-2.8v-2.1h2.8v-1.542h2.53l.032,8.844Z" transform="translate(-744.213 -101.279)" fill="#fff"/>
        <path id="패스_16678" data-name="패스 16678" d="M958.674,161.814h19.482V166.4h2.009v-4.589h6.574v-2.057H966.657v-1.944h3.874v-2.272h-8.4v-4.5h-2.534v6.77h4.575v1.944h-5.492Z" transform="translate(-826.74 -80.575)" fill="#fff"/>
        <path id="패스_16679" data-name="패스 16679" d="M835.307,308.366h-6.434V302.6H826.36v7.93h8.947Z" transform="translate(-705.69 -219.224)" fill="#fff"/>
        <path id="패스_16680" data-name="패스 16680" d="M1148.193,127.532v2.436h-5.5v-2.436h-2.253v8.628h10v-8.628Zm0,6.72h-5.5v-2.4h5.5Z" transform="translate(-993.033 -59.065)" fill="#fff"/>
        <path id="패스_16681" data-name="패스 16681" d="M495.967,226.2l-6.477-3.739h0l-6.537,3.774,1.23,2.13,5.309-3.065,5.248,3.03Z" transform="translate(-391.517 -145.908)" fill="#fff"/>
        <path id="패스_16682" data-name="패스 16682" d="M597.7,297.949a4.975,4.975,0,1,0,5.383,4.958A5.183,5.183,0,0,0,597.7,297.949Zm0,7.742a2.794,2.794,0,1,1,3.023-2.784A2.911,2.911,0,0,1,597.7,305.691Z" transform="translate(-491.572 -214.973)" fill="#fff"/>
        <path id="패스_16683" data-name="패스 16683" d="M977.176,300.459q-.028.107-.064.211a3.187,3.187,0,0,1-3.047,2.043,2.959,2.959,0,1,1,0-5.9,3.466,3.466,0,0,1,.8.092,7.444,7.444,0,0,1,2.205-1.607,6.037,6.037,0,0,0-3-.787,5.268,5.268,0,1,0,5.7,5.251c0-.141-.009-.342-.018-.419A10.323,10.323,0,0,1,977.176,300.459Z" transform="translate(-835.606 -211.831)" fill="#fff"/>
        <path id="패스_16684" data-name="패스 16684" d="M1028.367,304.019a22.482,22.482,0,0,1,7.152-4.17,52.092,52.092,0,0,0-6.918,4.358c5.208-.364,7.833-2.448,8.976-5.563C1033.865,298.421,1030.384,299.363,1028.367,304.019Z" transform="translate(-890.499 -215.582)" fill="#c1e03f"/>
        <g id="그룹_19062" data-name="그룹 19062" transform="translate(55 72.719)">
          <path id="패스_16685" data-name="패스 16685" d="M409.219,198.713a1.368,1.368,0,1,1-.4-.971A1.322,1.322,0,0,1,409.219,198.713Zm-.467-3.015h-1.969l-.2-11.371h2.379Z" transform="translate(-376.553 -183.743)" fill="#fff"/>
          <path id="패스_16686" data-name="패스 16686" d="M229.254,258.256v1.818h5.667V262.1H221.849v-2.026H227.3V258.25Z" transform="translate(-207.645 -251.373)" fill="#fff"/>
          <path id="패스_16687" data-name="패스 16687" d="M62.405,258.256v1.818h5.667V262.1H55v-2.026h5.447V258.25Z" transform="translate(-55 -251.373)" fill="#fff"/>
          <path id="패스_16688" data-name="패스 16688" d="M300.908,177.473h6.048v1.987h-3.882v2.174h3.992v1.959h-6.159Z" transform="translate(-279.972 -177.473)" fill="#fff"/>
          <path id="패스_16689" data-name="패스 16689" d="M230.5,183.593H224.5v-6.12H230.5v1.987h-3.488v2.174H230.5Z" transform="translate(-210.071 -177.473)" fill="#fff"/>
          <path id="패스_16690" data-name="패스 16690" d="M133.8,177.473h6.048v1.987h-3.882v2.174h3.992v1.959H133.8Z" transform="translate(-127.096 -177.473)" fill="#fff"/>
          <path id="패스_16691" data-name="패스 16691" d="M63.393,183.593H57.4v-6.12h5.994v1.987H59.9v2.174h3.488Z" transform="translate(-57.195 -177.473)" fill="#fff"/>
          <path id="패스_16692" data-name="패스 16692" d="M240.407,320.215h-8.539v-2.156h11.063v5.656h-2.524Z" transform="translate(-216.81 -306.09)" fill="#fff"/>
          <path id="패스_16693" data-name="패스 16693" d="M73.363,320.215H64.823v-2.156H75.887v5.656H73.363Z" transform="translate(-63.987 -306.09)" fill="#fff"/>
        </g>
      </g>
    </g>
  </g>
</svg>
