<svg xmlns="http://www.w3.org/2000/svg" width="102" height="30.145" viewBox="0 0 102 30.145">
  <g id="logo" transform="translate(-324 -17.855)">
    <rect id="area" width="102" height="30" transform="translate(324 18)" fill="none"/>
    <g id="e4_1" transform="translate(1625.666 -45.115)">
      <path id="패스_16650" data-name="패스 16650" d="M-785.784,173.82l-6.127,3.537,6.127,3.537Z" transform="translate(-467.598 -101.682)" fill="#ff8125"/>
      <path id="패스_16651" data-name="패스 16651" d="M-876.675,180.206l6.172-3.563-6.172-3.563Z" transform="translate(-389.844 -101.002)" fill="#ff8125"/>
      <path id="패스_16652" data-name="패스 16652" d="M-871.436,75.087s2.695-1.635,3.4-2.056c.536-.323.539-.359.539-1.089v-3.37a9.837,9.837,0,0,0,2.757-.613c.735-.429-2.88-.551-2.88-.551s-.585.686-3.817.919c2.946-.58,3.7-1.388,3.7-1.388s-1.574-6.394-3.719-2.9c-2.7-3.492-3.814,2.642-3.937,3.378-.383-.008-3.232.207-2.7.574a10.155,10.155,0,0,0,2.711.582v3.37c0,.758.011.785.547,1.089C-874.342,73.308-871.436,75.087-871.436,75.087Z" transform="translate(-388.486)" fill="#383e60"/>
      <path id="패스_16653" data-name="패스 16653" d="M-701.671,173.959v-3.6h-3.615v-2.133h3.615v-3.607h2.307v9.34Z" transform="translate(-547.058 -93.241)" fill="#383e60"/>
      <path id="패스_16654" data-name="패스 16654" d="M-593.8,184.591h-8.784v-8.382h2.457v6.3h6.326Z" transform="translate(-641.268 -103.873)" fill="#383e60"/>
      <path id="패스_16655" data-name="패스 16655" d="M-485.447,182.266l-.032-1.493h-2.72v-2.036h2.72v-1.528h-2.72v-2.037h2.72v-1.5h2.457l.032,8.591Z" transform="translate(-746.192 -101.548)" fill="#383e60"/>
      <path id="패스_16656" data-name="패스 16656" d="M-397.992,161.507h18.926v4.458h1.952v-4.458h6.386v-2h-19.51V157.62h3.763v-2.207h-8.164v-4.369H-397.1v6.577h4.444v1.888h-5.336Z" transform="translate(-828.938 -80.789)" fill="#383e60"/>
      <path id="패스_16657" data-name="패스 16657" d="M-521.615,308.2h-6.25V302.6h-2.442v7.7h8.692Z" transform="translate(-707.566 -219.807)" fill="#383e60"/>
      <path id="패스_16658" data-name="패스 16658" d="M-208.7,127.532V129.9h-5.341v-2.367h-2.189v8.382h9.719v-8.382Zm0,6.528h-5.341v-2.327h5.341Z" transform="translate(-995.673 -59.222)" fill="#383e60"/>
      <path id="패스_16659" data-name="패스 16659" d="M-861.071,226.09l-6.292-3.632h0l-6.35,3.666,1.195,2.069,5.157-2.977,5.1,2.943Z" transform="translate(-392.558 -146.296)" fill="#383e60"/>
      <path id="패스_16660" data-name="패스 16660" d="M-759.122,297.949a5.035,5.035,0,0,0-5.229,4.817,5.035,5.035,0,0,0,5.229,4.817,5.035,5.035,0,0,0,5.229-4.817A5.035,5.035,0,0,0-759.122,297.949Zm0,7.521a2.828,2.828,0,0,1-2.936-2.7,2.828,2.828,0,0,1,2.936-2.7,2.828,2.828,0,0,1,2.936,2.7A2.828,2.828,0,0,1-759.122,305.47Z" transform="translate(-492.878 -215.545)" fill="#383e60"/>
      <path id="패스_16661" data-name="패스 16661" d="M-379.742,300.289q-.027.1-.063.205a3.1,3.1,0,0,1-2.96,1.984,3,3,0,0,1-3.109-2.864,2.994,2.994,0,0,1,3.109-2.864,3.366,3.366,0,0,1,.775.09,7.231,7.231,0,0,1,2.142-1.561,5.865,5.865,0,0,0-2.918-.765,5.332,5.332,0,0,0-5.537,5.1,5.332,5.332,0,0,0,5.537,5.1,5.332,5.332,0,0,0,5.537-5.1c0-.137-.009-.332-.017-.407A10.033,10.033,0,0,1-379.742,300.289Z" transform="translate(-837.827 -212.394)" fill="#383e60"/>
      <path id="패스_16662" data-name="패스 16662" d="M-328.3,303.865a21.84,21.84,0,0,1,6.948-4.051,50.607,50.607,0,0,0-6.72,4.234c5.059-.354,7.609-2.378,8.72-5.4C-322.958,298.427-326.34,299.342-328.3,303.865Z" transform="translate(-892.867 -216.155)" fill="#55b523"/>
      <g id="그룹_19061" data-name="그룹 19061" transform="translate(-1301.667 72.441)">
        <g id="그룹_19060" data-name="그룹 19060" transform="translate(0 0)">
          <path id="패스_16663" data-name="패스 16663" d="M-947.526,198.3a1.285,1.285,0,0,1-.389.943,1.284,1.284,0,0,1-.943.389,1.284,1.284,0,0,1-.943-.389,1.285,1.285,0,0,1-.389-.943,1.284,1.284,0,0,1,.389-.943,1.284,1.284,0,0,1,.943-.389,1.285,1.285,0,0,1,.943.389A1.284,1.284,0,0,1-947.526,198.3Zm-.454-2.929h-1.913l-.2-11.046h2.311Z" transform="translate(979.259 -183.76)" fill="#383e60"/>
          <path id="패스_16664" data-name="패스 16664" d="M-1127.624,258.256v1.766h5.505v1.968h-12.7v-1.968h5.291V258.25Z" transform="translate(1148.616 -251.569)" fill="#383e60"/>
          <path id="패스_16665" data-name="패스 16665" d="M-1294.473,258.256v1.766h5.505v1.968h-12.7v-1.968h5.291V258.25Z" transform="translate(1301.667 -251.569)" fill="#383e60"/>
          <path id="패스_16666" data-name="패스 16666" d="M-1055.759,177.473h5.875v1.93h-3.771v2.112h3.878v1.9h-5.983Z" transform="translate(1076.096 -177.473)" fill="#383e60"/>
          <path id="패스_16667" data-name="패스 16667" d="M-1126.342,183.419h-5.823v-5.945h5.823v1.93h-3.389v2.112h3.389Z" transform="translate(1146.183 -177.473)" fill="#383e60"/>
          <path id="패스_16668" data-name="패스 16668" d="M-1222.862,177.473h5.875v1.93h-3.771v2.112h3.878v1.9h-5.983Z" transform="translate(1229.379 -177.473)" fill="#383e60"/>
          <path id="패스_16669" data-name="패스 16669" d="M-1293.445,183.419h-5.823v-5.945h5.823v1.93h-3.389v2.112h3.389Z" transform="translate(1299.466 -177.473)" fill="#383e60"/>
          <path id="패스_16670" data-name="패스 16670" d="M-1116.5,320.153h-8.3v-2.094h10.747v5.495h-2.452Z" transform="translate(1139.427 -306.432)" fill="#383e60"/>
          <path id="패스_16671" data-name="패스 16671" d="M-1283.548,320.153h-8.3v-2.094h10.747v5.495h-2.452Z" transform="translate(1292.656 -306.432)" fill="#383e60"/>
        </g>
      </g>
    </g>
  </g>
</svg>
