<svg xmlns="http://www.w3.org/2000/svg" width="60" height="60" viewBox="0 0 60 60">
  <g id="icon" transform="translate(-390 -562)">
    <circle id="타원_1110" data-name="타원 1110" cx="30" cy="30" r="30" transform="translate(390 562)" fill="#f4f4f9"/>
    <path id="패스_63803" data-name="패스 63803" d="M116.486,36.531h-7.528V34.523a3.726,3.726,0,0,0-3.722-3.722H97.4a3.726,3.726,0,0,0-3.722,3.722v2.008H86.149a.759.759,0,0,0-.759.759v8.6a2.8,2.8,0,0,0,1.6,2.518V60.042a.759.759,0,0,0,.759.759h27.135a.759.759,0,0,0,.759-.759V48.4a2.8,2.8,0,0,0,1.6-2.517v-8.6a.759.759,0,0,0-.759-.758ZM95.194,34.523A2.208,2.208,0,0,1,97.4,32.318h7.837a2.208,2.208,0,0,1,2.205,2.205v2.008H95.194Zm18.933,24.761H88.509V48.666h1.673a2.317,2.317,0,0,0,4.632,0h13.009a2.317,2.317,0,0,0,4.632,0h1.673ZM91.7,48.582V47.234a.8.8,0,1,1,1.6,0v1.348a.8.8,0,0,1-1.6,0Zm17.641,0V47.234a.8.8,0,0,1,1.6,0v1.348a.8.8,0,0,1-1.6,0Zm6.39-2.7a1.274,1.274,0,0,1-1.009,1.239,1.168,1.168,0,0,1-.255.025h-2.01a2.317,2.317,0,0,0-4.632,0H94.813a2.317,2.317,0,0,0-4.632,0h-2.01a1.181,1.181,0,0,1-.263-.027,1.272,1.272,0,0,1-1-1.237V38.048h28.82Z" transform="translate(318.611 546.199)" fill="#353990" stroke="#353990" stroke-width="0.2"/>
  </g>
</svg>
