<svg xmlns="http://www.w3.org/2000/svg" width="60" height="60" viewBox="0 0 60 60">
  <g id="icon" transform="translate(-390 -562)">
    <circle id="타원_1110" data-name="타원 1110" cx="30" cy="30" r="30" transform="translate(390 562)" fill="#f4f4f9"/>
    <path id="noun-phone-5079153" d="M172.912,98.32l-3.421,3.413c-1.789,1.789-1.857,4.641-.889,7.57A26.235,26.235,0,0,0,183.47,124.17c2.93.968,5.774.892,7.563-.9l3.421-3.413a1.03,1.03,0,0,0,0-1.459L189,112.944a1.03,1.03,0,0,0-1.459,0l-3.284,3.291c-.056.056-.152.115-.433.122a3.4,3.4,0,0,1-1.216-.266,11.941,11.941,0,0,1-5.845-5.852,3.37,3.37,0,0,1-.266-1.209c.006-.281.066-.378.122-.433l3.284-3.284h0a1.03,1.03,0,0,0,0-1.459l-5.534-5.534a1.03,1.03,0,0,0-1.452,0Zm.73,2.189,4.074,4.074-2.554,2.554a2.68,2.68,0,0,0-.73,1.847,5.2,5.2,0,0,0,.4,2,13.877,13.877,0,0,0,7.023,7.023,5.253,5.253,0,0,0,2.007.411,2.66,2.66,0,0,0,1.84-.73l2.562-2.554,4,4-2.683,2.691c-1.013,1.013-2.937,1.23-5.465.4a24.229,24.229,0,0,1-13.56-13.56c-.835-2.528-.617-4.452.4-5.465Z" transform="translate(239.019 480.979)" fill="#353990" fill-rule="evenodd"/>
  </g>
</svg>
