<svg xmlns="http://www.w3.org/2000/svg" width="60" height="60" viewBox="0 0 60 60">
  <g id="icon" transform="translate(-390 -562)">
    <circle id="타원_1110" data-name="타원 1110" cx="30" cy="30" r="30" transform="translate(390 562)" fill="#f4f4f9"/>
    <g id="그룹_3718" data-name="그룹 3718" transform="translate(-154.117 126.622)">
      <path id="패스_63796" data-name="패스 63796" d="M183.553,159.633H152.332A2.335,2.335,0,0,1,150,157.3V135.652a2.335,2.335,0,0,1,2.332-2.332h31.221a2.331,2.331,0,0,1,2.325,2.332V157.3A2.331,2.331,0,0,1,183.553,159.633Zm-31.221-24.878a.9.9,0,0,0-.9.9V157.3a.9.9,0,0,0,.9.9h31.221a.894.894,0,0,0,.89-.9V135.652a.894.894,0,0,0-.89-.9Z" transform="translate(406.239 318.68)" fill="#353990" stroke="#353990" stroke-width="0.2"/>
      <path id="패스_63797" data-name="패스 63797" d="M206.861,282.39H196.218a.718.718,0,0,1-.718-.718V275.9a2.9,2.9,0,0,1,2.9-2.9h6.279a2.9,2.9,0,0,1,2.9,2.9v5.771a.718.718,0,0,1-.718.718Zm-9.926-1.435h9.208V275.9a1.467,1.467,0,0,0-1.465-1.465H198.4a1.467,1.467,0,0,0-1.465,1.465Z" transform="translate(364.819 191.527)" fill="#353990" stroke="#353990" stroke-width="0.2"/>
      <path id="패스_63798" data-name="패스 63798" d="M225.205,189.747a3.707,3.707,0,1,1,3.707-3.707A3.712,3.712,0,0,1,225.205,189.747Zm0-5.98a2.272,2.272,0,1,0,2.272,2.273A2.275,2.275,0,0,0,225.205,183.767Z" transform="translate(341.154 274.064)" fill="#353990" stroke="#353990" stroke-width="0.2"/>
      <path id="패스_63799" data-name="패스 63799" d="M416.393,220.115h-7.176a.718.718,0,0,1,0-1.435h7.176a.718.718,0,1,1,0,1.435Z" transform="translate(170.926 240.976)" fill="#353990" stroke="#353990" stroke-width="0.2"/>
      <path id="패스_63800" data-name="패스 63800" d="M366.326,288.115H354.218a.718.718,0,1,1,0-1.435h12.109a.718.718,0,1,1,0,1.435Z" transform="translate(220.991 179.075)" fill="#353990" stroke="#353990" stroke-width="0.2"/>
      <path id="패스_63801" data-name="패스 63801" d="M366.326,356.115H354.218a.718.718,0,1,1,0-1.435h12.109a.718.718,0,1,1,0,1.435Z" transform="translate(220.991 117.175)" fill="#353990" stroke="#353990" stroke-width="0.2"/>
    </g>
  </g>
</svg>
