<svg xmlns="http://www.w3.org/2000/svg" width="60" height="60" viewBox="0 0 60 60">
  <g id="icon" transform="translate(-390 -562)">
    <circle id="타원_1110" data-name="타원 1110" cx="30" cy="30" r="30" transform="translate(390 562)" fill="#f4f4f9"/>
    <g id="그룹_3718" data-name="그룹 3718" transform="translate(-149.892 122.064)">
      <path id="패스_63797" data-name="패스 63797" d="M213.493,287.871H196.636a1.137,1.137,0,0,1-1.136-1.136V277.6A4.6,4.6,0,0,1,200.093,273h9.944a4.6,4.6,0,0,1,4.593,4.593v9.14a1.137,1.137,0,0,1-1.136,1.136Zm-15.72-2.273h14.584v-8a2.323,2.323,0,0,0-2.32-2.32h-9.944a2.323,2.323,0,0,0-2.32,2.32Z" transform="translate(364.392 195.815)" fill="#353990"/>
      <path id="패스_63798" data-name="패스 63798" d="M227.37,194.076a5.872,5.872,0,1,1,5.872-5.872A5.879,5.879,0,0,1,227.37,194.076Zm0-9.471a3.6,3.6,0,1,0,3.6,3.6A3.6,3.6,0,0,0,227.37,184.6Z" transform="translate(342.089 273.604)" fill="#353990"/>
    </g>
  </g>
</svg>
